<svg width="12" height="8" viewBox="0 0 12 8" fill="none" xmlns="http://www.w3.org/2000/svg">
<path d="M10.9975 0.78C10.9975 0.78 10.9975 0.77 10.9875 0.76C10.9875 0.76 10.9875 0.76 10.9775 0.75C10.8475 0.64 10.7275 0.52 10.5975 0.41C10.5675 0.38 10.5275 0.36 10.4975 0.33C9.6675 0.23 8.8375 0.11 8.0075 0C7.0375 0.12 6.0675 0.29 5.0875 0.35C4.0575 1.17 3.0575 2.08 2.0975 3.1C1.7275 3.45 1.3575 3.81 0.9875 4.2C0.6175 4.59 0.3075 5.05 0.0675 5.59C-0.0525 5.9 -0.0125 6.2 0.1875 6.49C0.4275 6.62 0.6175 6.7 0.7775 6.72C0.9275 6.74 1.1275 6.8 1.3475 6.9C1.3875 6.87 1.4375 6.83 1.4875 6.79C1.5375 6.75 1.6075 6.73 1.6975 6.76C1.8075 6.79 1.8675 6.83 1.8875 6.87C1.9075 6.91 1.9675 6.95 2.0675 7C2.1075 6.97 2.1775 6.95 2.2675 6.92C2.3575 6.9 2.3975 6.83 2.3775 6.72C2.4275 6.72 2.4675 6.74 2.5075 6.77C2.5375 6.8 2.5775 6.83 2.6175 6.85C2.6375 6.81 2.6375 6.77 2.6175 6.74C2.5975 6.71 2.5975 6.68 2.6075 6.66C2.6675 6.64 2.6675 6.61 2.6075 6.56C2.5475 6.51 2.5575 6.49 2.6575 6.5C2.6175 6.58 2.6575 6.61 2.7875 6.61C2.7875 6.64 2.7875 6.67 2.7775 6.7C2.7575 6.73 2.7475 6.74 2.7275 6.73C2.6975 6.73 2.6875 6.75 2.7075 6.76L2.7375 6.78C2.6475 6.85 2.6075 6.96 2.6375 7.1C2.6675 7.24 2.5975 7.33 2.4475 7.37C2.6375 7.4 2.7475 7.37 2.7675 7.28C2.7875 7.19 2.8475 7.11 2.9375 7.04L3.0575 7.11C3.0375 7.05 3.0375 7.01 3.0475 6.99C3.0575 6.97 3.0475 6.93 3.0075 6.85C3.0675 6.88 3.0975 6.88 3.0875 6.84C3.0875 6.8 3.1075 6.78 3.1575 6.78L3.2175 6.81C3.1575 6.83 3.1175 6.85 3.0975 6.89C3.1975 6.94 3.2275 6.98 3.1975 6.98C3.1675 6.98 3.1675 7 3.2075 7.03C3.2475 6.95 3.3275 7 3.4475 7.16C3.4075 7.09 3.4175 7.07 3.4675 7.09C3.5175 7.12 3.5375 7.14 3.5275 7.16C3.5075 7.2 3.4675 7.25 3.4275 7.31C3.3775 7.37 3.3775 7.44 3.4175 7.51C3.4475 7.45 3.5075 7.45 3.5875 7.49C3.5175 7.33 3.5575 7.23 3.6975 7.19C3.8375 7.15 3.8975 7.08 3.8775 6.97C3.9475 6.93 3.9775 6.88 3.9775 6.82C3.9775 6.76 4.0375 6.73 4.1575 6.75C4.2075 6.75 4.2375 6.77 4.2375 6.81C4.2375 6.85 4.2675 6.89 4.3275 6.92C4.3875 6.77 4.4375 6.67 4.4975 6.62C4.5575 6.56 4.6175 6.49 4.6975 6.41L4.6675 6.39C4.6675 6.39 4.7475 6.31 4.8275 6.27C4.9175 6.23 4.9375 6.15 4.9075 6.03C4.8775 6.03 4.8375 6.08 4.7975 6.16L4.7375 6.13C4.7575 6.19 4.7275 6.24 4.6475 6.29C4.5675 6.34 4.4975 6.37 4.4375 6.38C4.4175 6.32 4.4375 6.26 4.5075 6.21C4.5775 6.16 4.6475 6.13 4.7275 6.13L4.6975 6.11C4.8075 6 4.8875 5.94 4.9175 5.93C4.9475 5.93 4.9575 5.93 4.9275 5.93C4.9075 5.94 4.9175 5.96 4.9575 5.98C5.0475 5.95 5.1175 5.9 5.1575 5.83C5.0875 5.82 5.0475 5.83 5.0475 5.86C5.0475 5.9 5.0075 5.91 4.9375 5.89V5.84C4.9875 5.77 5.0475 5.7 5.1175 5.63C5.1875 5.55 5.2575 5.49 5.3375 5.43C5.4175 5.28 5.5475 5.21 5.7175 5.23V5.18C5.7875 5.18 5.8575 5.12 5.9275 5.02C5.9975 4.92 6.0575 4.86 6.1175 4.85L6.0575 4.82C6.1175 4.8 6.1775 4.79 6.2475 4.79C6.3075 4.79 6.3575 4.77 6.3775 4.73C6.3175 4.7 6.2675 4.68 6.2175 4.68C6.1675 4.68 6.1175 4.68 6.0675 4.68C6.0875 4.64 6.1275 4.61 6.1975 4.58C6.2675 4.55 6.2975 4.53 6.3175 4.51C6.3975 4.6 6.3875 4.64 6.2975 4.61C6.2075 4.59 6.1875 4.6 6.2375 4.65C6.4275 4.68 6.5475 4.65 6.5975 4.55C6.5975 4.5 6.5975 4.48 6.6175 4.48C6.6175 4.48 6.6375 4.48 6.6475 4.46C6.5775 4.45 6.5275 4.46 6.5075 4.5C6.4875 4.54 6.4275 4.53 6.3275 4.48C6.3475 4.44 6.3975 4.43 6.4675 4.44C6.4875 4.4 6.4675 4.38 6.4275 4.36C6.3875 4.35 6.3575 4.33 6.3475 4.3C6.3875 4.27 6.4475 4.24 6.5275 4.21C6.6075 4.18 6.6875 4.16 6.7675 4.16H6.8175C6.9075 4.07 6.9875 3.99 7.0675 3.91C7.1375 3.82 7.2475 3.76 7.4075 3.72C7.4375 3.76 7.4875 3.75 7.5775 3.7C7.5475 3.66 7.5275 3.65 7.5075 3.68C7.4875 3.71 7.4675 3.71 7.4275 3.69C7.4075 3.63 7.4275 3.59 7.4575 3.57C7.4975 3.55 7.4975 3.54 7.4775 3.53C7.4375 3.56 7.4075 3.58 7.3775 3.61C7.3475 3.63 7.3075 3.64 7.2375 3.63C7.2975 3.61 7.3375 3.58 7.3675 3.53C7.3975 3.48 7.4475 3.48 7.5275 3.53C7.5575 3.42 7.6375 3.35 7.7575 3.32C7.7175 3.3 7.7375 3.29 7.8075 3.31C7.8775 3.32 7.8975 3.31 7.8675 3.27C7.8275 3.25 7.7975 3.25 7.7875 3.27C7.7775 3.29 7.7475 3.29 7.7175 3.27C7.6775 3.2 7.7175 3.15 7.8375 3.11C7.8575 3.07 7.8975 3.07 7.9575 3.11L7.9275 3.17L8.0975 3.15C8.0975 3.15 8.0375 3.09 8.0075 3.1C7.9775 3.1 7.9775 3.1 7.9975 3.06C8.0075 3.04 8.0575 3.04 8.1475 3.06C8.1375 3.08 8.1175 3.08 8.0975 3.07C8.0775 3.06 8.0675 3.07 8.0475 3.08C8.0875 3.1 8.1175 3.1 8.1475 3.08C8.1775 3.06 8.1775 3.05 8.1675 3.08C8.2075 3.1 8.2075 3.12 8.1675 3.14C8.1275 3.16 8.1375 3.18 8.1675 3.2C8.2075 3.17 8.2475 3.15 8.2775 3.13C8.3175 3.11 8.3375 3.08 8.3675 3.05C8.3175 3 8.2775 2.99 8.2375 3.01C8.1975 3.04 8.1675 3.02 8.1475 2.96C8.2075 2.94 8.2575 2.91 8.2975 2.87C8.3375 2.83 8.3875 2.8 8.4475 2.78C8.4075 2.76 8.3875 2.74 8.3975 2.73C8.3975 2.73 8.3975 2.71 8.3775 2.7C8.4175 2.67 8.5075 2.67 8.6475 2.7C8.6075 2.63 8.6475 2.61 8.7575 2.65C8.8675 2.69 8.9075 2.65 8.8775 2.57C8.8175 2.59 8.7675 2.6 8.7375 2.62C8.6975 2.64 8.6475 2.62 8.5675 2.58C8.6175 2.58 8.6475 2.56 8.6575 2.52C8.6675 2.48 8.7175 2.48 8.7975 2.52C8.7775 2.46 8.7475 2.44 8.6975 2.45C8.6475 2.46 8.6475 2.45 8.6775 2.38C8.7175 2.4 8.7475 2.41 8.7775 2.42C8.7975 2.42 8.7775 2.4 8.6975 2.36C8.7075 2.34 8.7375 2.35 8.7875 2.37C8.8375 2.39 8.8675 2.4 8.8775 2.38L8.7875 2.33C8.8175 2.27 8.8675 2.23 8.9275 2.22L8.8375 2.17C8.8675 2.11 8.9375 2.11 9.0375 2.17L9.0075 2.23C9.0075 2.23 9.0475 2.24 9.0575 2.24C9.0675 2.24 9.0975 2.24 9.1375 2.27C9.1975 2.25 9.1975 2.24 9.1375 2.23C9.0775 2.23 9.0475 2.21 9.0575 2.19C9.1575 2.19 9.2375 2.19 9.2975 2.17C9.3575 2.15 9.4175 2.15 9.4675 2.15L9.4375 2.13H9.4875C9.4375 2.12 9.3975 2.12 9.3675 2.13C9.3375 2.13 9.2875 2.13 9.2175 2.13C9.2775 2.06 9.3675 2.02 9.4675 1.99C9.5775 1.96 9.6275 1.92 9.6275 1.87L9.8075 1.75C9.7475 1.72 9.7375 1.7 9.7775 1.7C9.8175 1.7 9.8175 1.69 9.7775 1.66C9.7675 1.68 9.7375 1.68 9.7075 1.66C9.6875 1.65 9.6675 1.66 9.6575 1.67C9.7175 1.65 9.7675 1.62 9.8075 1.57C9.8475 1.52 9.9675 1.5 10.1575 1.53C10.0775 1.44 10.0775 1.4 10.1475 1.41C10.2175 1.42 10.2375 1.41 10.2075 1.37C10.3175 1.36 10.4075 1.32 10.4675 1.25C10.5275 1.18 10.6075 1.11 10.6975 1.04L10.6675 1.02C10.8275 0.98 10.9375 0.91 11.0275 0.83L10.9975 0.78ZM7.6375 1.5C7.6675 1.44 7.7075 1.42 7.7475 1.45C7.7775 1.54 7.7475 1.56 7.6375 1.5ZM6.9875 1.52C7.0475 1.48 7.1075 1.45 7.1675 1.43C7.1875 1.44 7.2075 1.44 7.2375 1.43C7.2675 1.43 7.2875 1.4 7.2975 1.35C7.3075 1.31 7.3175 1.28 7.3275 1.26C7.3375 1.24 7.3575 1.25 7.3975 1.28C7.4375 1.31 7.4175 1.28 7.3675 1.2C7.4675 1.2 7.5375 1.2 7.5675 1.2C7.5975 1.2 7.6375 1.2 7.6975 1.24C7.6475 1.34 7.5775 1.36 7.4975 1.32C7.4575 1.4 7.3775 1.46 7.2675 1.49C7.1575 1.53 7.0375 1.59 6.9175 1.67C6.8975 1.61 6.9175 1.56 6.9875 1.52ZM7.5875 1.59C7.5475 1.67 7.4775 1.68 7.3775 1.62C7.4375 1.6 7.4675 1.59 7.4575 1.57C7.4575 1.56 7.4975 1.57 7.5875 1.58V1.59ZM5.3575 3.43C5.4275 3.38 5.5175 3.36 5.6375 3.38C5.5675 3.42 5.4975 3.48 5.4275 3.58C5.3575 3.68 5.2575 3.66 5.1375 3.51C5.2175 3.51 5.2875 3.48 5.3575 3.43ZM4.8275 3.31L4.9175 3.36C4.8875 3.42 4.8375 3.43 4.7775 3.4L4.8275 3.31ZM2.8875 5.01C2.8875 5.01 2.8375 5.08 2.7875 5.12C2.7175 5.06 2.7175 5.01 2.7875 4.97C2.8575 4.93 2.9175 4.92 2.9675 4.92C2.9275 4.95 2.8975 4.98 2.8775 5L2.8875 5.01ZM2.9275 5.28C2.9275 5.28 2.9575 5.21 2.9575 5.2C2.9575 5.18 2.9875 5.2 3.0675 5.24C3.1175 5.34 3.0675 5.35 2.9275 5.28ZM3.1375 5.22C3.1375 5.22 3.1175 5.25 3.0875 5.21C3.0875 5.16 3.1175 5.15 3.1675 5.18C3.2175 5.21 3.2275 5.24 3.2075 5.28C3.1675 5.21 3.1475 5.19 3.1375 5.23V5.22ZM3.5475 5.43C3.4575 5.45 3.3775 5.51 3.2975 5.6L3.2675 5.58C3.3375 5.49 3.3975 5.41 3.4375 5.34C3.4775 5.26 3.5375 5.21 3.6075 5.17C3.6575 5.32 3.6275 5.41 3.5375 5.43H3.5475ZM5.0275 4.21C4.9675 4.23 4.9275 4.21 4.9075 4.14C5.0175 4.12 5.0975 4.13 5.1375 4.15C5.1275 4.17 5.0875 4.19 5.0275 4.21ZM5.1275 3.79C5.1275 3.85 5.0875 3.87 4.9975 3.85L5.0575 3.88C4.9875 3.97 4.8875 4.03 4.7775 4.07C4.6675 4.11 4.5975 4.16 4.5675 4.21C4.5975 4.25 4.6375 4.27 4.6875 4.28C4.7375 4.28 4.7575 4.29 4.7475 4.31C4.7975 4.31 4.8275 4.3 4.8475 4.27C4.8675 4.24 4.8975 4.24 4.9575 4.27C4.8875 4.4 4.7875 4.49 4.6675 4.52C4.5475 4.55 4.4275 4.6 4.3175 4.67C4.2975 4.71 4.2675 4.74 4.2275 4.77C4.1875 4.8 4.1575 4.82 4.1475 4.84C4.1675 4.9 4.1575 4.95 4.1375 5C4.1075 5.05 4.0475 5.05 3.9475 5C3.9275 5.04 3.9475 5.06 3.9875 5.06C4.0375 5.06 4.0475 5.08 4.0275 5.12C3.9675 5.14 3.8275 5.1 3.6275 5.01C3.5575 5.05 3.4975 5.08 3.4475 5.12C3.3975 5.16 3.3375 5.18 3.2575 5.18C3.2075 5.18 3.1875 5.17 3.1975 5.15C3.2075 5.13 3.1975 5.11 3.1575 5.09C3.3575 4.95 3.5675 4.83 3.7875 4.72C3.9975 4.61 4.1675 4.49 4.2975 4.36L4.2675 4.34C4.3775 4.23 4.4875 4.13 4.5775 4.06C4.6675 3.99 4.7975 3.9 4.9475 3.81V3.77C4.9475 3.77 5.0175 3.72 4.9875 3.67C4.9675 3.62 4.9875 3.59 5.0675 3.58C5.0875 3.64 5.1175 3.67 5.1675 3.65C5.2175 3.64 5.2475 3.65 5.2775 3.69C5.1775 3.69 5.1275 3.72 5.1275 3.78V3.79ZM5.2675 3.92C5.2675 3.92 5.3075 3.86 5.3175 3.86C5.3275 3.86 5.3475 3.84 5.3575 3.83C5.3975 3.85 5.3975 3.88 5.3675 3.91C5.3375 3.94 5.2975 3.95 5.2575 3.93L5.2675 3.92ZM5.2675 5.2V5.13L5.3275 5.16C5.3075 5.2 5.2875 5.21 5.2675 5.2ZM6.0375 3.53C6.0375 3.53 6.0375 3.61 6.0075 3.65C5.8275 3.6 5.7075 3.62 5.6575 3.7C5.5975 3.78 5.5075 3.81 5.3875 3.8C5.4075 3.76 5.4375 3.74 5.4875 3.72C5.5275 3.71 5.5275 3.68 5.4675 3.65C5.5675 3.61 5.6775 3.56 5.7775 3.5C5.8875 3.45 6.0175 3.42 6.1675 3.43C6.0775 3.46 6.0375 3.49 6.0375 3.53ZM7.7475 1.87C7.6375 1.95 7.5375 1.99 7.4375 1.98C7.3675 2.11 7.2575 2.22 7.1075 2.29C6.9675 2.36 6.8175 2.43 6.6775 2.51C6.7275 2.56 6.7675 2.57 6.8075 2.55C6.8475 2.52 6.8875 2.52 6.9275 2.55C6.7775 2.59 6.6775 2.65 6.6175 2.72C6.5675 2.79 6.4775 2.86 6.3675 2.92L6.2175 2.84C6.2175 2.84 6.1775 2.89 6.2175 2.9C6.2575 2.91 6.3075 2.93 6.3475 2.95C6.2375 3.01 6.1275 3.08 6.0075 3.14C5.8975 3.21 5.7875 3.28 5.6875 3.38C5.6275 3.35 5.5875 3.33 5.5575 3.33C5.5275 3.33 5.5075 3.33 5.4875 3.31C5.5575 3.22 5.6175 3.15 5.6575 3.08C5.6975 3.01 5.7775 2.96 5.8975 2.93C5.9175 2.89 5.9375 2.87 5.9575 2.85C5.9775 2.84 6.0375 2.85 6.1375 2.91C6.1375 2.86 6.1175 2.83 6.0775 2.8C6.0375 2.77 6.0275 2.76 6.0375 2.74L6.1575 2.81C6.2175 2.7 6.3075 2.63 6.4275 2.6C6.5475 2.58 6.6375 2.5 6.7175 2.36L6.7475 2.38L6.7975 2.29C7.1475 2.08 7.4775 1.86 7.7775 1.63L7.8675 1.68C7.8675 1.68 7.8975 1.68 7.9075 1.67C7.8975 1.74 7.8375 1.81 7.7275 1.89L7.7475 1.87ZM8.0375 1.1C7.9675 1.14 7.8975 1.17 7.8275 1.21C7.8075 1.15 7.8375 1.1 7.9175 1.05C7.9975 1 8.0675 0.96 8.1375 0.93C8.1375 1.01 8.1175 1.07 8.0375 1.1ZM8.2675 1.38L8.2375 1.36C8.2375 1.36 8.3175 1.3 8.3475 1.27C8.3775 1.24 8.4375 1.24 8.5175 1.29C8.4775 1.32 8.4375 1.34 8.4075 1.34C8.3775 1.34 8.3375 1.36 8.2675 1.38ZM8.6275 2.27C8.5675 2.27 8.5175 2.31 8.4475 2.38C8.4775 2.32 8.5175 2.27 8.5575 2.21C8.5975 2.16 8.6675 2.14 8.7575 2.17C8.7275 2.23 8.6775 2.26 8.6275 2.27ZM8.8575 1.21C8.8575 1.21 8.8375 1.14 8.8775 1.11C8.9175 1.08 8.9675 1.08 9.0275 1.11C8.9775 1.16 8.9175 1.19 8.8575 1.2V1.21ZM9.0275 1.7C9.0275 1.7 9.0275 1.74 9.0075 1.78C8.9775 1.78 8.9475 1.78 8.9375 1.78L8.9175 1.81C8.9175 1.81 8.8875 1.73 8.9175 1.7C8.9475 1.67 8.9875 1.65 9.0375 1.65C9.0275 1.67 9.0275 1.69 9.0375 1.7H9.0275ZM9.3075 0.88C9.3075 0.88 9.2275 0.88 9.2075 0.92V0.87C9.2275 0.81 9.2975 0.8 9.4075 0.84C9.3875 0.88 9.3575 0.89 9.3075 0.88ZM9.4775 0.92C9.4775 0.92 9.4575 0.95 9.4075 0.92C9.4375 0.92 9.4475 0.9 9.4575 0.87C9.4575 0.85 9.4775 0.84 9.5175 0.87C9.4875 0.87 9.4775 0.9 9.4875 0.93L9.4775 0.92Z" fill="white"/>
</svg>
