<svg width="178" height="95" viewBox="0 0 178 95" fill="none" xmlns="http://www.w3.org/2000/svg">
<g filter="url(#filter0_d_135_28721)">
<path d="M112.18 15.17L18.77 15.26L35.24 7.19L34.06 5L9 17.28L17.84 29.51L21.92 27.31L16.11 19.27L112.05 18.85L112.18 15.17Z" fill="#F28B28"/>
<path d="M143 81.66L168.07 69.38L159.23 57.15L155.15 59.35L159.38 67.41L65.93 68.16L65.81 71.84L155.15 71.43L143.6 77.18L143 81.66Z" fill="#F28B28"/>
<path d="M39.87 40.8L44.73 33.44C44.98 33.11 45.29 33.02 45.72 33.01C45.84 33 45.96 33 46.1 33.01H46.16C46.16 33.01 46.25 33.01 46.3 33.01C46.48 33.01 46.67 33.01 46.89 33.01C46.89 33.01 47.31 33 47.46 33.44L49.86 40.8C49.9 40.92 49.87 41.07 49.79 41.19C49.71 41.31 49.58 41.38 49.45 41.38H47.54C47.41 41.38 47.3 41.3 47.26 41.17L47.05 40.48H43L42.84 40.73L42.52 41.18C42.43 41.31 42.28 41.39 42.13 41.39H40.11C39.97 41.39 39.85 41.32 39.8 41.2C39.75 41.08 39.77 40.93 39.86 40.81L39.87 40.8ZM44.33 38.47H46.45L45.76 36.28L44.33 38.47Z" fill="white"/>
<path d="M54.34 33C54.52 33 54.67 33.11 54.72 33.27L56.15 38.46C56.18 38.56 56.31 38.58 56.37 38.5L59.86 33.27C59.97 33.1 60.15 33 60.34 33H62.18C62.44 33 62.62 33.21 62.57 33.47L61.22 40.93C61.17 41.19 60.92 41.4 60.66 41.4H59.23C58.97 41.4 58.79 41.19 58.84 40.93L59.38 37.95L57.25 41.13C57.14 41.3 56.96 41.4 56.77 41.4H54.88C54.69 41.4 54.55 41.29 54.5 41.13L53.52 37.97L52.98 40.94C52.93 41.2 52.68 41.41 52.42 41.41H50.99C50.73 41.41 50.55 41.2 50.6 40.94L51.95 33.48C52 33.22 52.25 33.01 52.51 33.01H54.35L54.34 33Z" fill="white"/>
<path d="M71.93 37.08C71.71 38.29 70.54 39.27 69.31 39.27H65.48C65.43 39.27 65.38 39.32 65.37 39.37L65.09 40.92C65.04 41.18 64.79 41.39 64.53 41.39H62.95C62.69 41.39 62.51 41.18 62.56 40.92L63.91 33.45C63.96 33.19 64.21 32.98 64.47 32.98H70.45C71.68 32.98 72.5 33.96 72.28 35.17L71.94 37.08H71.93ZM69.33 35.08H66.23C66.18 35.08 66.13 35.12 66.12 35.17L65.78 37.07C65.78 37.12 65.81 37.16 65.86 37.16H68.96C69.19 37.16 69.41 36.97 69.46 36.75L69.69 35.49C69.73 35.26 69.58 35.07 69.34 35.07L69.33 35.08Z" fill="white"/>
<path d="M74.17 32.99H75.75C76.01 32.99 76.19 33.2 76.14 33.46L75.16 38.91C75.13 39.07 75.24 39.19 75.39 39.19H79.25C79.51 39.19 79.69 39.4 79.64 39.66L79.41 40.93C79.36 41.19 79.11 41.4 78.85 41.4H72.65C72.39 41.4 72.21 41.19 72.26 40.93L73.61 33.47C73.66 33.21 73.91 33 74.17 33V32.99Z" fill="white"/>
<path d="M83.66 32.99C83.92 32.99 84.1 33.2 84.05 33.46L82.7 40.92C82.65 41.18 82.4 41.39 82.14 41.39H80.56C80.3 41.39 80.12 41.18 80.17 40.92L81.52 33.46C81.57 33.2 81.82 32.99 82.08 32.99H83.66Z" fill="white"/>
<path d="M94.25 35.16L93.52 39.2C93.3 40.41 92.13 41.39 90.9 41.39H86.06C84.83 41.39 84.01 40.41 84.23 39.2L84.96 35.16C85.18 33.95 86.35 32.97 87.58 32.97H92.42C93.65 32.97 94.47 33.95 94.25 35.16ZM91.66 35.42C91.69 35.27 91.58 35.14 91.43 35.14H87.78C87.62 35.14 87.47 35.26 87.44 35.42L86.81 38.91C86.78 39.06 86.89 39.19 87.04 39.19H90.69C90.85 39.19 91 39.07 91.03 38.91L91.66 35.42Z" fill="white"/>
<path d="M99.77 40.92L101.12 33.45C101.17 33.19 101.42 32.98 101.68 32.98H108.75C108.91 32.98 109.01 33.11 108.98 33.26L108.69 34.84C108.66 35 108.51 35.12 108.36 35.12H103.45C103.4 35.12 103.35 35.16 103.34 35.21L103.18 36.08C103.18 36.13 103.21 36.17 103.26 36.17H107.21C107.37 36.17 107.47 36.29 107.44 36.45L107.18 37.9C107.15 38.05 107 38.18 106.85 38.18H102.9C102.85 38.18 102.8 38.22 102.79 38.27L102.64 39.08C102.64 39.13 102.67 39.17 102.72 39.17H107.63C107.79 39.17 107.89 39.29 107.86 39.45L107.56 41.09C107.53 41.24 107.38 41.37 107.23 41.37H100.16C99.9 41.37 99.72 41.16 99.77 40.9V40.92Z" fill="white"/>
<path d="M109.14 41.38C108.88 41.38 108.7 41.17 108.75 40.91L108.98 39.64C109.03 39.38 109.28 39.17 109.54 39.17H114.81C114.97 39.17 115.12 39.05 115.14 38.89L115.21 38.49C115.24 38.34 115.13 38.21 114.98 38.21H111.19C109.96 38.21 109.14 37.23 109.36 36.02L109.52 35.16C109.74 33.95 110.91 32.97 112.14 32.97H117.74C118 32.97 118.18 33.18 118.13 33.44L117.91 34.65C117.86 34.91 117.61 35.12 117.35 35.12H112.23C112.07 35.12 111.92 35.24 111.9 35.4L111.8 35.93C111.77 36.09 111.88 36.21 112.03 36.21H115.82C117.05 36.21 117.87 37.19 117.65 38.4L117.51 39.18C117.29 40.39 116.12 41.37 114.89 41.37H109.14V41.38Z" fill="white"/>
<path d="M127.64 37.08C127.42 38.29 126.25 39.27 125.02 39.27H121.19C121.14 39.27 121.09 39.32 121.08 39.37L120.8 40.92C120.75 41.18 120.5 41.39 120.24 41.39H118.66C118.4 41.39 118.22 41.18 118.27 40.92L119.62 33.45C119.67 33.19 119.92 32.98 120.18 32.98H126.16C127.39 32.98 128.21 33.96 127.99 35.17L127.65 37.08H127.64ZM125.04 35.08H121.94C121.89 35.08 121.84 35.12 121.83 35.17L121.49 37.07C121.49 37.12 121.52 37.16 121.57 37.16H124.67C124.9 37.16 125.12 36.97 125.17 36.75L125.4 35.49C125.44 35.26 125.28 35.07 125.05 35.07L125.04 35.08Z" fill="white"/>
<path d="M126.7 40.8L131.56 33.44C131.81 33.11 132.12 33.02 132.55 33.01C132.67 33 132.79 33 132.93 33.01H132.99C132.99 33.01 133.08 33.01 133.13 33.01C133.31 33.01 133.5 33.01 133.72 33.01C133.72 33.01 134.14 33 134.29 33.44L136.69 40.8C136.73 40.92 136.7 41.07 136.62 41.19C136.54 41.31 136.41 41.38 136.28 41.38H134.37C134.24 41.38 134.13 41.3 134.09 41.17L133.88 40.48H129.83L129.67 40.73L129.36 41.18C129.27 41.31 129.12 41.39 128.97 41.39H126.95C126.81 41.39 126.69 41.32 126.64 41.2C126.59 41.08 126.61 40.93 126.7 40.81V40.8ZM131.16 38.47H133.28L132.59 36.28L131.16 38.47Z" fill="white"/>
<path d="M137.48 39.19L138.22 35.16C138.44 33.95 139.61 32.98 140.84 32.98H145.48C145.74 32.98 145.92 33.19 145.87 33.45L145.65 34.69C145.6 34.95 145.35 35.16 145.09 35.16H141.05C140.89 35.16 140.74 35.29 140.72 35.44L140.09 38.92C140.06 39.07 140.17 39.2 140.32 39.2H144.36C144.62 39.2 144.8 39.41 144.75 39.67L144.52 40.94C144.47 41.2 144.22 41.41 143.96 41.41H139.31C138.08 41.41 137.26 40.43 137.48 39.22V39.19Z" fill="white"/>
<path d="M149.04 32.99C149.3 32.99 149.48 33.2 149.43 33.46L148.08 40.92C148.03 41.18 147.78 41.39 147.52 41.39H145.94C145.68 41.39 145.5 41.18 145.55 40.92L146.9 33.46C146.95 33.2 147.2 32.99 147.46 32.99H149.04Z" fill="white"/>
<path d="M159.64 35.16L158.91 39.2C158.69 40.41 157.52 41.39 156.29 41.39H151.45C150.22 41.39 149.4 40.41 149.62 39.2L150.35 35.16C150.57 33.95 151.74 32.97 152.97 32.97H157.81C159.04 32.97 159.86 33.95 159.64 35.16ZM157.05 35.42C157.08 35.27 156.97 35.14 156.82 35.14H153.18C153.02 35.14 152.87 35.26 152.84 35.42L152.21 38.91C152.18 39.06 152.29 39.19 152.44 39.19H156.09C156.25 39.19 156.4 39.07 156.42 38.91L157.05 35.42Z" fill="white"/>
<path d="M65.39 47.4C65.65 47.4 65.83 47.61 65.78 47.86L64.43 55.32C64.38 55.58 64.13 55.79 63.87 55.79H62.29C62.03 55.79 61.85 55.58 61.9 55.32L63.25 47.86C63.3 47.6 63.55 47.4 63.81 47.4H65.39Z" fill="white"/>
<path d="M69.04 51.12L68.28 55.32C68.23 55.58 67.98 55.79 67.72 55.79H66.15C65.89 55.79 65.71 55.58 65.76 55.32L67.11 47.86C67.16 47.6 67.41 47.39 67.67 47.39H69.67C69.81 47.39 69.93 47.45 70 47.56L72.37 51.78C72.43 51.87 72.57 51.84 72.58 51.74L73.28 47.86C73.33 47.6 73.58 47.39 73.84 47.39H75.41C75.67 47.39 75.85 47.6 75.8 47.86L74.45 55.32C74.4 55.58 74.15 55.79 73.89 55.79H72.15C72.01 55.79 71.89 55.73 71.82 55.62L69.24 51.08C69.18 50.99 69.04 51.02 69.03 51.12H69.04Z" fill="white"/>
<path d="M84.88 47.87L84.66 49.08C84.61 49.34 84.36 49.55 84.1 49.55H81.78C81.73 49.55 81.68 49.59 81.67 49.64L80.64 55.34C80.59 55.6 80.34 55.81 80.08 55.81H78.5C78.24 55.81 78.06 55.6 78.11 55.34L79.14 49.64C79.14 49.59 79.11 49.55 79.06 49.55H76.74C76.48 49.55 76.3 49.34 76.35 49.08L76.57 47.87C76.62 47.61 76.87 47.41 77.13 47.41H84.48C84.74 47.41 84.92 47.62 84.87 47.87H84.88Z" fill="white"/>
<path d="M84.3 55.33L85.65 47.86C85.7 47.6 85.95 47.39 86.21 47.39H93.28C93.44 47.39 93.54 47.52 93.51 47.67L93.22 49.25C93.19 49.41 93.04 49.53 92.89 49.53H87.98C87.93 49.53 87.88 49.57 87.87 49.62L87.71 50.49C87.71 50.54 87.74 50.58 87.79 50.58H91.74C91.9 50.58 92 50.7 91.97 50.86L91.71 52.31C91.68 52.46 91.53 52.59 91.37 52.59H87.42C87.37 52.59 87.32 52.63 87.31 52.68L87.16 53.49C87.16 53.54 87.19 53.58 87.24 53.58H92.15C92.31 53.58 92.41 53.7 92.38 53.86L92.08 55.5C92.05 55.65 91.9 55.78 91.75 55.78H84.68C84.42 55.78 84.24 55.57 84.29 55.31L84.3 55.33Z" fill="white"/>
<path d="M93.24 55.33L94.59 47.86C94.64 47.6 94.89 47.39 95.15 47.39H101.13C102.36 47.39 103.18 48.37 102.96 49.58L102.62 51.49C102.47 52.32 101.87 53.04 101.11 53.41C101.06 53.44 101.03 53.5 101.05 53.54L102.04 55.26C102.17 55.49 102.01 55.77 101.74 55.77C100.92 55.77 100.4 55.8 100.07 55.79C99.5 55.79 99.3 55.77 99.2 55.57L98.3 53.81C98.26 53.73 98.18 53.69 98.09 53.69H96.17C96.12 53.69 96.07 53.73 96.06 53.79L95.78 55.34C95.73 55.6 95.48 55.81 95.22 55.81H93.64C93.38 55.81 93.2 55.6 93.25 55.34L93.24 55.33ZM96.47 51.49C96.47 51.54 96.5 51.58 96.55 51.58H99.65C99.88 51.58 100.1 51.39 100.15 51.16L100.38 49.9C100.42 49.67 100.27 49.48 100.03 49.48H96.93C96.88 49.48 96.83 49.52 96.82 49.57L96.48 51.47L96.47 51.49Z" fill="white"/>
<path d="M106.65 47.4C106.91 47.4 107.09 47.61 107.04 47.86L105.69 55.32C105.64 55.58 105.39 55.79 105.13 55.79H103.55C103.29 55.79 103.11 55.58 103.16 55.32L104.51 47.86C104.56 47.6 104.81 47.4 105.07 47.4H106.65Z" fill="white"/>
<path d="M117.24 49.56L116.51 53.6C116.29 54.81 115.12 55.79 113.89 55.79H109.05C107.82 55.79 107 54.81 107.22 53.6L107.95 49.56C108.17 48.35 109.34 47.37 110.57 47.37H115.41C116.64 47.37 117.46 48.35 117.24 49.56ZM114.65 49.82C114.68 49.66 114.57 49.54 114.42 49.54H110.78C110.62 49.54 110.47 49.66 110.44 49.82L109.81 53.31C109.78 53.47 109.89 53.59 110.04 53.59H113.69C113.85 53.59 114 53.47 114.02 53.31L114.65 49.82Z" fill="white"/>
<path d="M117.42 55.33L118.77 47.86C118.82 47.6 119.07 47.39 119.33 47.39H125.31C126.54 47.39 127.36 48.37 127.14 49.58L126.8 51.49C126.65 52.32 126.05 53.04 125.29 53.41C125.24 53.44 125.21 53.5 125.23 53.54L126.22 55.26C126.35 55.49 126.19 55.77 125.92 55.77C125.1 55.77 124.58 55.8 124.25 55.79C123.68 55.79 123.48 55.77 123.38 55.57L122.48 53.81C122.44 53.73 122.36 53.69 122.27 53.69H120.35C120.3 53.69 120.25 53.73 120.24 53.79L119.96 55.34C119.91 55.6 119.66 55.81 119.4 55.81H117.82C117.56 55.81 117.38 55.6 117.43 55.34L117.42 55.33ZM120.65 51.49C120.65 51.54 120.68 51.58 120.73 51.58H123.83C124.06 51.58 124.28 51.39 124.33 51.16L124.56 49.9C124.6 49.67 124.45 49.48 124.21 49.48H121.11C121.06 49.48 121.01 49.52 121 49.57L120.66 51.47L120.65 51.49Z" fill="white"/>
</g>
<defs>
<filter id="filter0_d_135_28721" x="0" y="0" width="177.07" height="94.6602" filterUnits="userSpaceOnUse" color-interpolation-filters="sRGB">
<feFlood flood-opacity="0" result="BackgroundImageFix"/>
<feColorMatrix in="SourceAlpha" type="matrix" values="0 0 0 0 0 0 0 0 0 0 0 0 0 0 0 0 0 0 127 0" result="hardAlpha"/>
<feOffset dy="4"/>
<feGaussianBlur stdDeviation="4.5"/>
<feComposite in2="hardAlpha" operator="out"/>
<feColorMatrix type="matrix" values="0 0 0 0 0 0 0 0 0 0 0 0 0 0 0 0 0 0 0.8 0"/>
<feBlend mode="normal" in2="BackgroundImageFix" result="effect1_dropShadow_135_28721"/>
<feBlend mode="normal" in="SourceGraphic" in2="effect1_dropShadow_135_28721" result="shape"/>
</filter>
</defs>
</svg>
