<svg width="89" height="70" viewBox="0 0 89 70" fill="none" xmlns="http://www.w3.org/2000/svg">
<path d="M17.84 30.1597C11.86 30.1597 5.86998 30.1597 5.86998 30.1597C5.86998 30.1597 4.96998 30.1597 3.29998 30.7497C1.62998 31.3397 0.149982 33.1197 0.339982 37.4497C0.469982 40.2997 2.72998 42.4897 4.39998 42.4897C5.24998 42.4897 11.83 42.4897 18.1 42.4897" fill="#050606"/>
<path d="M17.84 30.1597C11.86 30.1597 5.86998 30.1597 5.86998 30.1597C5.86998 30.1597 4.96998 30.1597 3.29998 30.7497C1.62998 31.3397 0.149982 33.1197 0.339982 37.4497C0.469982 40.2997 2.72998 42.4897 4.39998 42.4897C5.24998 42.4897 11.83 42.4897 18.1 42.4897" stroke="#BCBEC0" stroke-width="0.65" stroke-miterlimit="10"/>
<path d="M16.49 30.1597C22.47 30.1597 28.46 30.1597 28.46 30.1597C28.46 30.1597 29.36 30.1597 31.03 30.7497C32.7 31.3397 34.18 33.1197 33.99 37.4497C33.86 40.2997 31.6 42.4897 29.93 42.4897C29.08 42.4897 22.5 42.4897 16.23 42.4897" fill="#050606"/>
<path d="M16.49 30.1597C22.47 30.1597 28.46 30.1597 28.46 30.1597C28.46 30.1597 29.36 30.1597 31.03 30.7497C32.7 31.3397 34.18 33.1197 33.99 37.4497C33.86 40.2997 31.6 42.4897 29.93 42.4897C29.08 42.4897 22.5 42.4897 16.23 42.4897" stroke="#BCBEC0" stroke-width="0.65" stroke-miterlimit="10"/>
<path d="M23.38 4.20967L23.7 4.16967C28.54 3.39967 29.74 7.11967 29.74 9.87967C29.74 12.6397 31.25 16.7497 32.16 22.7197C33.07 28.6897 29.9 30.1697 29.9 30.1697H18.41H15.92H4.42996C4.42996 30.1697 1.26996 28.6897 2.16996 22.7197C3.06996 16.7497 4.58996 12.6397 4.58996 9.87967C4.58996 7.11967 5.79996 3.39967 10.63 4.16967L11.03 4.29967" fill="#050606"/>
<path d="M23.38 4.20967L23.7 4.16967C28.54 3.39967 29.74 7.11967 29.74 9.87967C29.74 12.6397 31.25 16.7497 32.16 22.7197C33.07 28.6897 29.9 30.1697 29.9 30.1697H18.41H15.92H4.42996C4.42996 30.1697 1.26996 28.6897 2.16996 22.7197C3.06996 16.7497 4.58996 12.6397 4.58996 9.87967C4.58996 7.11967 5.79996 3.39967 10.63 4.16967L11.03 4.29967" stroke="#BCBEC0" stroke-width="0.65" stroke-miterlimit="10"/>
<path d="M22.73 6.13994C26.85 5.42994 27.88 8.86994 27.88 11.4199C27.88 13.9699 28.64 17.7699 29.42 23.2799C30.19 28.7999 27.34 30.1599 27.34 30.1599H18.23H16.11H6.98996C6.98996 30.1599 4.13996 28.7999 4.90996 23.2799C5.67996 17.7599 6.44996 13.9699 6.44996 11.4199C6.44996 8.86994 7.47996 5.42994 11.6 6.13994H22.73Z" fill="#050606" stroke="#BCBEC0" stroke-width="0.65" stroke-miterlimit="10"/>
<path d="M11.6 6.13965C11.6 6.13965 9.47998 6.60965 9.47998 11.2396V30.1596" fill="#050606"/>
<path d="M11.6 6.13965C11.6 6.13965 9.47998 6.60965 9.47998 11.2396V30.1596" stroke="#BCBEC0" stroke-width="0.65" stroke-miterlimit="10"/>
<path d="M23.38 6.13965C23.38 6.13965 25.5 6.60965 25.5 11.2396C25.5 15.8696 25.5 30.1596 25.5 30.1596" fill="#050606"/>
<path d="M23.38 6.13965C23.38 6.13965 25.5 6.60965 25.5 11.2396C25.5 15.8696 25.5 30.1596 25.5 30.1596" stroke="#BCBEC0" stroke-width="0.65" stroke-miterlimit="10"/>
<path d="M9.47998 20.73H25.5" stroke="#BCBEC0" stroke-width="0.65" stroke-miterlimit="10"/>
<path d="M10.89 30.1597C10.89 30.1597 6.63998 32.9497 5.35998 33.6597C4.06998 34.3697 3.44998 35.7697 3.54998 38.6397C3.67998 42.4997 4.77998 42.4997 4.77998 42.4997H30.29C30.29 42.4997 31.4 42.4997 31.52 38.6397C31.62 35.7597 31 34.3697 29.71 33.6597C28.42 32.9497 24.18 30.1597 24.18 30.1597" stroke="#BCBEC0" stroke-width="0.65" stroke-miterlimit="10"/>
<path d="M17.17 34.8696C10.63 34.8696 4.29998 33.9997 3.35998 33.2197C2.41998 32.4397 4.61998 30.3896 4.61998 30.3896" stroke="#BCBEC0" stroke-width="0.65" stroke-miterlimit="10"/>
<path d="M17.1699 34.8696C23.7099 34.8696 30.0399 33.9997 30.9799 33.2197C31.9199 32.4297 29.7199 30.3896 29.7199 30.3896" stroke="#BCBEC0" stroke-width="0.65" stroke-miterlimit="10"/>
<path d="M21.1599 8.20982H13.1699C11.5399 8.20982 10.2499 6.92982 10.3899 5.42982L10.6699 2.27982C10.6699 1.19982 11.6199 0.319824 12.7899 0.319824H21.5399C22.7099 0.319824 23.6599 1.19982 23.6599 2.27982L23.9399 5.42982C24.0699 6.92982 22.7899 8.20982 21.1599 8.20982Z" fill="#050606" stroke="#BCBEC0" stroke-width="0.65" stroke-miterlimit="10"/>
<path d="M72.38 30.1597C66.4 30.1597 60.41 30.1597 60.41 30.1597C60.41 30.1597 59.51 30.1597 57.84 30.7497C56.17 31.3397 54.69 33.1197 54.88 37.4497C55.01 40.2997 57.27 42.4897 58.94 42.4897C59.79 42.4897 66.37 42.4897 72.64 42.4897" fill="#050606"/>
<path d="M72.38 30.1597C66.4 30.1597 60.41 30.1597 60.41 30.1597C60.41 30.1597 59.51 30.1597 57.84 30.7497C56.17 31.3397 54.69 33.1197 54.88 37.4497C55.01 40.2997 57.27 42.4897 58.94 42.4897C59.79 42.4897 66.37 42.4897 72.64 42.4897" stroke="#BCBEC0" stroke-width="0.65" stroke-miterlimit="10"/>
<path d="M71.02 30.1597C77 30.1597 82.99 30.1597 82.99 30.1597C82.99 30.1597 83.89 30.1597 85.56 30.7497C87.23 31.3397 88.71 33.1197 88.52 37.4497C88.39 40.2997 86.13 42.4897 84.46 42.4897C83.61 42.4897 77.03 42.4897 70.76 42.4897" fill="#050606"/>
<path d="M71.02 30.1597C77 30.1597 82.99 30.1597 82.99 30.1597C82.99 30.1597 83.89 30.1597 85.56 30.7497C87.23 31.3397 88.71 33.1197 88.52 37.4497C88.39 40.2997 86.13 42.4897 84.46 42.4897C83.61 42.4897 77.03 42.4897 70.76 42.4897" stroke="#BCBEC0" stroke-width="0.65" stroke-miterlimit="10"/>
<path d="M77.91 4.20967L78.23 4.16967C83.07 3.39967 84.27 7.11967 84.27 9.87967C84.27 12.6397 85.78 16.7497 86.69 22.7197C87.6 28.6897 84.43 30.1697 84.43 30.1697H72.94H70.45H58.96C58.96 30.1697 55.8 28.6897 56.7 22.7197C57.61 16.7497 59.12 12.6397 59.12 9.87967C59.12 7.11967 60.33 3.39967 65.16 4.16967L65.56 4.29967" fill="#050606"/>
<path d="M77.91 4.20967L78.23 4.16967C83.07 3.39967 84.27 7.11967 84.27 9.87967C84.27 12.6397 85.78 16.7497 86.69 22.7197C87.6 28.6897 84.43 30.1697 84.43 30.1697H72.94H70.45H58.96C58.96 30.1697 55.8 28.6897 56.7 22.7197C57.61 16.7497 59.12 12.6397 59.12 9.87967C59.12 7.11967 60.33 3.39967 65.16 4.16967L65.56 4.29967" stroke="#BCBEC0" stroke-width="0.65" stroke-miterlimit="10"/>
<path d="M77.27 6.13994C81.39 5.42994 82.42 8.86994 82.42 11.4199C82.42 13.9699 83.18 17.7699 83.96 23.2799C84.73 28.7999 81.88 30.1599 81.88 30.1599H72.77H70.65H61.54C61.54 30.1599 58.69 28.7999 59.46 23.2799C60.23 17.7599 61 13.9699 61 11.4199C61 8.86994 62.03 5.42994 66.15 6.13994H77.28H77.27Z" fill="#050606" stroke="#BCBEC0" stroke-width="0.65" stroke-miterlimit="10"/>
<path d="M66.14 6.13965C66.14 6.13965 64.02 6.60965 64.02 11.2396V30.1596" fill="#050606"/>
<path d="M66.14 6.13965C66.14 6.13965 64.02 6.60965 64.02 11.2396V30.1596" stroke="#BCBEC0" stroke-width="0.65" stroke-miterlimit="10"/>
<path d="M77.91 6.13965C77.91 6.13965 80.03 6.60965 80.03 11.2396C80.03 15.8696 80.03 30.1596 80.03 30.1596" fill="#050606"/>
<path d="M77.91 6.13965C77.91 6.13965 80.03 6.60965 80.03 11.2396C80.03 15.8696 80.03 30.1596 80.03 30.1596" stroke="#BCBEC0" stroke-width="0.65" stroke-miterlimit="10"/>
<path d="M64.01 20.73H80.04" stroke="#BCBEC0" stroke-width="0.65" stroke-miterlimit="10"/>
<path d="M65.43 30.1597C65.43 30.1597 61.18 32.9497 59.9 33.6597C58.62 34.3697 57.99 35.7697 58.09 38.6397C58.22 42.4997 59.32 42.4997 59.32 42.4997H84.82C84.82 42.4997 85.93 42.4997 86.05 38.6397C86.15 35.7597 85.53 34.3697 84.24 33.6597C82.95 32.9497 78.71 30.1597 78.71 30.1597" stroke="#BCBEC0" stroke-width="0.65" stroke-miterlimit="10"/>
<path d="M71.7 34.8696C65.16 34.8696 58.83 33.9997 57.89 33.2197C56.95 32.4397 59.15 30.3896 59.15 30.3896" stroke="#BCBEC0" stroke-width="0.65" stroke-miterlimit="10"/>
<path d="M71.7 34.8696C78.24 34.8696 84.57 33.9997 85.51 33.2197C86.45 32.4397 84.25 30.3896 84.25 30.3896" stroke="#BCBEC0" stroke-width="0.65" stroke-miterlimit="10"/>
<path d="M75.7 8.20982H67.71C66.08 8.20982 64.79 6.92982 64.93 5.42982L65.21 2.27982C65.21 1.19982 66.16 0.319824 67.33 0.319824H76.08C77.25 0.319824 78.2 1.19982 78.2 2.27982L78.48 5.42982C78.61 6.92982 77.33 8.20982 75.7 8.20982Z" fill="#050606" stroke="#BCBEC0" stroke-width="0.65" stroke-miterlimit="10"/>
<path d="M45.11 30.1602C39.13 30.1602 33.14 30.1602 33.14 30.1602C33.14 30.1602 32.24 30.1602 30.57 30.7502C28.9 31.3402 27.42 33.1202 27.61 37.4502C27.74 40.3002 30 42.4902 31.67 42.4902C32.52 42.4902 39.1 42.4902 45.37 42.4902" fill="#050606"/>
<path d="M45.11 30.1602C39.13 30.1602 33.14 30.1602 33.14 30.1602C33.14 30.1602 32.24 30.1602 30.57 30.7502C28.9 31.3402 27.42 33.1202 27.61 37.4502C27.74 40.3002 30 42.4902 31.67 42.4902C32.52 42.4902 39.1 42.4902 45.37 42.4902" stroke="#BCBEC0" stroke-width="0.65" stroke-miterlimit="10"/>
<path d="M43.75 30.1602C49.73 30.1602 55.72 30.1602 55.72 30.1602C55.72 30.1602 56.62 30.1602 58.29 30.7502C59.96 31.3402 61.44 33.1202 61.25 37.4502C61.12 40.3002 58.86 42.4902 57.19 42.4902C56.34 42.4902 49.76 42.4902 43.49 42.4902" fill="#050606"/>
<path d="M43.75 30.1602C49.73 30.1602 55.72 30.1602 55.72 30.1602C55.72 30.1602 56.62 30.1602 58.29 30.7502C59.96 31.3402 61.44 33.1202 61.25 37.4502C61.12 40.3002 58.86 42.4902 57.19 42.4902C56.34 42.4902 49.76 42.4902 43.49 42.4902" stroke="#BCBEC0" stroke-width="0.65" stroke-miterlimit="10"/>
<path d="M50.64 4.21016L50.96 4.17016C55.8 3.40016 57 7.12016 57 9.88016C57 12.6402 58.51 16.7502 59.42 22.7202C60.33 28.6902 57.16 30.1702 57.16 30.1702H45.67H43.18H31.69C31.69 30.1702 28.53 28.6902 29.43 22.7202C30.33 16.7502 31.85 12.6402 31.85 9.88016C31.85 7.12016 33.06 3.40016 37.89 4.17016L38.29 4.30016" fill="#050606"/>
<path d="M50.64 4.21016L50.96 4.17016C55.8 3.40016 57 7.12016 57 9.88016C57 12.6402 58.51 16.7502 59.42 22.7202C60.33 28.6902 57.16 30.1702 57.16 30.1702H45.67H43.18H31.69C31.69 30.1702 28.53 28.6902 29.43 22.7202C30.33 16.7502 31.85 12.6402 31.85 9.88016C31.85 7.12016 33.06 3.40016 37.89 4.17016L38.29 4.30016" stroke="#BCBEC0" stroke-width="0.65" stroke-miterlimit="10"/>
<path d="M50 6.13994C54.12 5.42994 55.15 8.86994 55.15 11.4199C55.15 13.9699 55.91 17.7699 56.69 23.2799C57.47 28.7899 54.61 30.1599 54.61 30.1599H45.5H43.38H34.27C34.27 30.1599 31.42 28.7999 32.19 23.2799C32.96 17.7599 33.73 13.9699 33.73 11.4199C33.73 8.86994 34.76 5.42994 38.88 6.13994H50.01H50Z" fill="#050606" stroke="#BCBEC0" stroke-width="0.65" stroke-miterlimit="10"/>
<path d="M38.87 6.14014C38.87 6.14014 36.75 6.61014 36.75 11.2401V30.1601" fill="#050606"/>
<path d="M38.87 6.14014C38.87 6.14014 36.75 6.61014 36.75 11.2401V30.1601" stroke="#BCBEC0" stroke-width="0.65" stroke-miterlimit="10"/>
<path d="M50.64 6.14014C50.64 6.14014 52.76 6.61014 52.76 11.2401C52.76 15.8701 52.76 30.1601 52.76 30.1601" fill="#050606"/>
<path d="M50.64 6.14014C50.64 6.14014 52.76 6.61014 52.76 11.2401C52.76 15.8701 52.76 30.1601 52.76 30.1601" stroke="#BCBEC0" stroke-width="0.65" stroke-miterlimit="10"/>
<path d="M36.74 20.73H52.77" stroke="#BCBEC0" stroke-width="0.65" stroke-miterlimit="10"/>
<path d="M38.16 30.1602C38.16 30.1602 33.91 32.9502 32.63 33.6602C31.34 34.3702 30.72 35.7702 30.82 38.6402C30.95 42.5002 32.05 42.5002 32.05 42.5002H57.55C57.55 42.5002 58.66 42.5002 58.78 38.6402C58.88 35.7602 58.26 34.3702 56.97 33.6602C55.68 32.9502 51.44 30.1602 51.44 30.1602" stroke="#BCBEC0" stroke-width="0.65" stroke-miterlimit="10"/>
<path d="M44.43 34.8701C37.89 34.8701 31.56 34.0001 30.62 33.2201C29.68 32.4401 31.88 30.3901 31.88 30.3901" stroke="#BCBEC0" stroke-width="0.65" stroke-miterlimit="10"/>
<path d="M44.4299 34.8701C50.9699 34.8701 57.2999 34.0001 58.2399 33.2201C59.1799 32.4401 56.9799 30.3901 56.9799 30.3901" stroke="#BCBEC0" stroke-width="0.65" stroke-miterlimit="10"/>
<path d="M48.4299 9.07994H40.4399C38.8099 9.07994 37.5199 7.79994 37.6599 6.29994L37.9399 3.14994C37.9399 2.06994 38.8899 1.18994 40.0599 1.18994H48.8099C49.9799 1.18994 50.9299 2.06994 50.9299 3.14994L51.2099 6.29994C51.3399 7.79994 50.0599 9.07994 48.4299 9.07994Z" fill="#050606" stroke="#BCBEC0" stroke-width="0.65" stroke-miterlimit="10"/>
<path d="M22.29 54.0195C15.66 54.0195 9.01999 54.0195 9.01999 54.0195C9.01999 54.0195 8.01999 54.0195 6.16999 54.7295C4.30999 55.4395 2.67999 57.5795 2.88999 62.7895C3.02999 66.2195 5.53999 68.8595 7.38999 68.8595C8.32999 68.8595 15.63 68.8595 22.58 68.8595" fill="#050606"/>
<path d="M22.29 54.0195C15.66 54.0195 9.01999 54.0195 9.01999 54.0195C9.01999 54.0195 8.01999 54.0195 6.16999 54.7295C4.30999 55.4395 2.67999 57.5795 2.88999 62.7895C3.02999 66.2195 5.53999 68.8595 7.38999 68.8595C8.32999 68.8595 15.63 68.8595 22.58 68.8595" stroke="#EAEAEA" stroke-width="0.75" stroke-miterlimit="10"/>
<path d="M20.79 54.0195C27.42 54.0195 34.06 54.0195 34.06 54.0195C34.06 54.0195 35.06 54.0195 36.91 54.7295C38.77 55.4395 40.4 57.5795 40.19 62.7895C40.05 66.2195 37.54 68.8595 35.69 68.8595C34.75 68.8595 27.45 68.8595 20.5 68.8595" fill="#050606"/>
<path d="M20.79 54.0195C27.42 54.0195 34.06 54.0195 34.06 54.0195C34.06 54.0195 35.06 54.0195 36.91 54.7295C38.77 55.4395 40.4 57.5795 40.19 62.7895C40.05 66.2195 37.54 68.8595 35.69 68.8595C34.75 68.8595 27.45 68.8595 20.5 68.8595" stroke="#EAEAEA" stroke-width="0.75" stroke-miterlimit="10"/>
<path d="M28.43 22.7897L28.79 22.7397C34.15 21.8097 35.49 26.2897 35.49 29.6097C35.49 32.9297 37.17 37.8697 38.17 45.0597C39.18 52.2397 35.67 54.0197 35.67 54.0197H22.92H20.16H7.40998C7.40998 54.0197 3.89998 52.2397 4.90998 45.0597C5.91998 37.8797 7.58998 32.9297 7.58998 29.6097C7.58998 26.2897 8.92998 21.8097 14.29 22.7397L14.73 22.8997" fill="#050606"/>
<path d="M28.43 22.7897L28.79 22.7397C34.15 21.8097 35.49 26.2897 35.49 29.6097C35.49 32.9297 37.17 37.8697 38.17 45.0597C39.18 52.2397 35.67 54.0197 35.67 54.0197H22.92H20.16H7.40998C7.40998 54.0197 3.89998 52.2397 4.90998 45.0597C5.91998 37.8797 7.58998 32.9297 7.58998 29.6097C7.58998 26.2897 8.92998 21.8097 14.29 22.7397L14.73 22.8997" stroke="#EAEAEA" stroke-width="0.75" stroke-miterlimit="10"/>
<path d="M27.71 25.1098C32.28 24.2498 33.42 28.3898 33.42 31.4598C33.42 34.5298 34.27 39.0998 35.12 45.7298C35.98 52.3698 32.82 54.0098 32.82 54.0098H22.72H20.37H10.26C10.26 54.0098 7.09999 52.3698 7.95999 45.7298C8.81999 39.0898 9.65999 34.5198 9.65999 31.4598C9.65999 28.3898 10.8 24.2498 15.37 25.1098H27.72H27.71Z" fill="#050606" stroke="#EAEAEA" stroke-width="0.75" stroke-miterlimit="10"/>
<path d="M15.37 25.1099C15.37 25.1099 13.01 25.6799 13.01 31.2499V54.0199" fill="#050606"/>
<path d="M15.37 25.1099C15.37 25.1099 13.01 25.6799 13.01 31.2499V54.0199" stroke="#EAEAEA" stroke-width="0.75" stroke-miterlimit="10"/>
<path d="M28.4299 25.1099C28.4299 25.1099 30.7899 25.6799 30.7899 31.2499V54.0199" fill="#050606"/>
<path d="M28.4299 25.1099C28.4299 25.1099 30.7899 25.6799 30.7899 31.2499V54.0199" stroke="#EAEAEA" stroke-width="0.75" stroke-miterlimit="10"/>
<path d="M13.01 42.6699H30.79" stroke="#EAEAEA" stroke-width="0.75" stroke-miterlimit="10"/>
<path d="M14.58 54.0195C14.58 54.0195 9.87003 57.3695 8.44003 58.2295C7.01003 59.0895 6.33003 60.7695 6.43003 64.2295C6.57003 68.8695 7.80003 68.8695 7.80003 68.8695H36.09C36.09 68.8695 37.32 68.8695 37.46 64.2295C37.57 60.7695 36.88 59.0895 35.45 58.2295C34.02 57.3695 29.31 54.0195 29.31 54.0195" stroke="#EAEAEA" stroke-width="0.75" stroke-miterlimit="10"/>
<path d="M21.5399 59.6895C14.2799 59.6895 7.26993 58.6496 6.22993 57.6996C5.18993 56.7496 7.62993 54.2896 7.62993 54.2896" stroke="#EAEAEA" stroke-width="0.75" stroke-miterlimit="10"/>
<path d="M21.5399 59.6895C28.7999 59.6895 35.8099 58.6496 36.8499 57.6996C37.8899 56.7496 35.4499 54.2896 35.4499 54.2896" stroke="#EAEAEA" stroke-width="0.75" stroke-miterlimit="10"/>
<path d="M25.97 24.0098H17.11C15.3 24.0098 13.88 22.4598 14.02 20.6598L14.33 16.8698C14.33 15.5698 15.38 14.5098 16.69 14.5098H26.4C27.7 14.5098 28.76 15.5598 28.76 16.8698L29.07 20.6598C29.22 22.4598 27.79 24.0098 25.98 24.0098H25.97Z" fill="#050606" stroke="#EAEAEA" stroke-width="0.75" stroke-miterlimit="10"/>
<path d="M67.3599 54.0195C60.7299 54.0195 54.0899 54.0195 54.0899 54.0195C54.0899 54.0195 53.0899 54.0195 51.2399 54.7295C49.3799 55.4395 47.7499 57.5795 47.9599 62.7895C48.0999 66.2195 50.6099 68.8595 52.4599 68.8595C53.3999 68.8595 60.6999 68.8595 67.6499 68.8595" fill="#050606"/>
<path d="M67.3599 54.0195C60.7299 54.0195 54.0899 54.0195 54.0899 54.0195C54.0899 54.0195 53.0899 54.0195 51.2399 54.7295C49.3799 55.4395 47.7499 57.5795 47.9599 62.7895C48.0999 66.2195 50.6099 68.8595 52.4599 68.8595C53.3999 68.8595 60.6999 68.8595 67.6499 68.8595" stroke="#EAEAEA" stroke-width="0.75" stroke-miterlimit="10"/>
<path d="M65.8599 54.0195C72.4899 54.0195 79.1299 54.0195 79.1299 54.0195C79.1299 54.0195 80.1299 54.0195 81.9799 54.7295C83.84 55.4395 85.4699 57.5795 85.2599 62.7895C85.1199 66.2195 82.6099 68.8595 80.7599 68.8595C79.8199 68.8595 72.5199 68.8595 65.5699 68.8595" fill="#050606"/>
<path d="M65.8599 54.0195C72.4899 54.0195 79.1299 54.0195 79.1299 54.0195C79.1299 54.0195 80.1299 54.0195 81.9799 54.7295C83.8399 55.4395 85.4699 57.5795 85.2599 62.7895C85.1199 66.2195 82.6099 68.8595 80.7599 68.8595C79.8199 68.8595 72.5199 68.8595 65.5699 68.8595" stroke="#EAEAEA" stroke-width="0.75" stroke-miterlimit="10"/>
<path d="M73.4999 22.7897L73.8599 22.7397C79.2199 21.8097 80.5599 26.2897 80.5599 29.6097C80.5599 32.9297 82.2399 37.8697 83.2399 45.0597C84.2499 52.2397 80.7399 54.0197 80.7399 54.0197H67.9899H65.2299H52.4799C52.4799 54.0197 48.9699 52.2397 49.9799 45.0597C50.9899 37.8797 52.6599 32.9297 52.6599 29.6097C52.6599 26.2897 53.9999 21.8097 59.3599 22.7397L59.7999 22.8997" fill="#050606"/>
<path d="M73.4999 22.7897L73.8599 22.7397C79.2199 21.8097 80.5599 26.2897 80.5599 29.6097C80.5599 32.9297 82.2399 37.8697 83.2399 45.0597C84.2499 52.2397 80.7399 54.0197 80.7399 54.0197H67.9899H65.2299H52.4799C52.4799 54.0197 48.9699 52.2397 49.9799 45.0597C50.9899 37.8797 52.6599 32.9297 52.6599 29.6097C52.6599 26.2897 53.9999 21.8097 59.3599 22.7397L59.7999 22.8997" stroke="#EAEAEA" stroke-width="0.75" stroke-miterlimit="10"/>
<path d="M72.7799 25.1098C77.3499 24.2498 78.4899 28.3898 78.4899 31.4598C78.4899 34.5298 79.3399 39.0998 80.1899 45.7298C81.0499 52.3698 77.8899 54.0098 77.8899 54.0098H67.7899H65.4399H55.3399C55.3399 54.0098 52.1799 52.3698 53.0399 45.7298C53.8999 39.0898 54.7399 34.5198 54.7399 31.4598C54.7399 28.3998 55.8799 24.2498 60.4499 25.1098H72.7999H72.7799Z" fill="#050606" stroke="#EAEAEA" stroke-width="0.75" stroke-miterlimit="10"/>
<path d="M60.44 25.1099C60.44 25.1099 58.08 25.6799 58.08 31.2499V54.0199" fill="#050606"/>
<path d="M60.44 25.1099C60.44 25.1099 58.08 25.6799 58.08 31.2499V54.0199" stroke="#EAEAEA" stroke-width="0.75" stroke-miterlimit="10"/>
<path d="M73.5 25.1099C73.5 25.1099 75.86 25.6799 75.86 31.2499C75.86 36.8199 75.86 54.0199 75.86 54.0199" fill="#050606"/>
<path d="M73.5 25.1099C73.5 25.1099 75.86 25.6799 75.86 31.2499C75.86 36.8199 75.86 54.0199 75.86 54.0199" stroke="#EAEAEA" stroke-width="0.75" stroke-miterlimit="10"/>
<path d="M58.08 42.6699H75.85" stroke="#EAEAEA" stroke-width="0.75" stroke-miterlimit="10"/>
<path d="M59.65 54.0195C59.65 54.0195 54.94 57.3695 53.51 58.2295C52.08 59.0895 51.4 60.7695 51.5 64.2295C51.64 68.8695 52.87 68.8695 52.87 68.8695H81.16C81.16 68.8695 82.39 68.8695 82.53 64.2295C82.64 60.7695 81.95 59.0895 80.52 58.2295C79.09 57.3695 74.38 54.0195 74.38 54.0195" stroke="#EAEAEA" stroke-width="0.75" stroke-miterlimit="10"/>
<path d="M66.61 59.6895C59.35 59.6895 52.34 58.6496 51.3 57.6996C50.26 56.7496 52.7 54.2896 52.7 54.2896" stroke="#EAEAEA" stroke-width="0.75" stroke-miterlimit="10"/>
<path d="M66.61 59.6895C73.87 59.6895 80.88 58.6496 81.92 57.6996C82.96 56.7496 80.52 54.2896 80.52 54.2896" stroke="#EAEAEA" stroke-width="0.75" stroke-miterlimit="10"/>
<path d="M71.04 24.0098H62.18C60.37 24.0098 58.95 22.4598 59.09 20.6598L59.4 16.8698C59.4 15.5698 60.45 14.5098 61.76 14.5098H71.47C72.77 14.5098 73.83 15.5598 73.83 16.8698L74.14 20.6598C74.29 22.4598 72.86 24.0098 71.05 24.0098H71.04Z" fill="#050606" stroke="#EAEAEA" stroke-width="0.75" stroke-miterlimit="10"/>
</svg>
