<svg width="287" height="67" viewBox="0 0 287 67" fill="none" xmlns="http://www.w3.org/2000/svg">
<g clip-path="url(#clip0_45_2903)">
<path d="M269.129 50.9014L8.99099 51.2305C7.55962 51.2305 6.25217 52.0375 5.60155 53.3102L0.247831 63.7836C-0.501937 65.255 0.563849 66.9995 2.2121 66.9995L262.629 66.6643C265.077 66.6519 267.302 65.2302 268.349 63.0076L271.98 55.2721C272.903 53.2109 271.391 50.889 269.136 50.9014H269.129Z" fill="#F68D35"/>
<path d="M15.7637 55.917L15.3361 56.9289C15.2432 57.1462 15.0015 57.32 14.7908 57.32H12.9381C12.8947 57.32 12.8451 57.3573 12.8266 57.4007L10.8127 62.1687C10.7198 62.386 10.4781 62.5598 10.2674 62.5598H8.99717C8.78649 62.5598 8.69354 62.386 8.78029 62.1749L10.7941 57.4069C10.8127 57.3635 10.7941 57.3262 10.7508 57.3262H8.89802C8.68734 57.3262 8.5882 57.1524 8.68115 56.9413L9.1087 55.9294C9.20165 55.7121 9.44331 55.5382 9.65399 55.5382H15.5468C15.7575 55.532 15.8504 55.7059 15.7637 55.917Z" fill="white"/>
<path d="M23.3171 57.3262L21.892 60.7098C21.4644 61.7217 20.3181 62.5412 19.3328 62.5474H15.4539C14.4686 62.5536 14.0163 61.7341 14.4438 60.7222L15.869 57.3387C16.2966 56.3267 17.4429 55.5072 18.4281 55.501H22.3071C23.2923 55.4948 23.7447 56.3143 23.3171 57.3262ZM21.1918 57.5435C21.2475 57.4132 21.1918 57.3076 21.0616 57.3076H18.1431C18.0192 57.3076 17.8705 57.4194 17.8147 57.5435L16.5816 60.4677C16.5258 60.598 16.5816 60.7036 16.7117 60.7036H19.6303C19.7542 60.7036 19.9029 60.5918 19.9587 60.4614L21.1918 57.5373V57.5435Z" fill="white"/>
<path d="M22.4496 62.1508L25.0955 55.8804C25.1885 55.6631 25.4301 55.4893 25.6408 55.4893H30.1456C31.1308 55.4831 31.5832 56.3026 31.1556 57.3145L29.7304 60.6981C29.3029 61.71 28.1565 62.5357 27.1713 62.5357H22.6665C22.4558 62.5419 22.3629 62.3681 22.4496 62.1508ZM25.1947 60.4621C25.1389 60.5925 25.1947 60.6981 25.3248 60.6981H27.4687C27.5927 60.6981 27.7414 60.5925 27.7972 60.4621L29.0302 57.538C29.086 57.4077 29.0302 57.3021 28.9001 57.3021H26.7562C26.6322 57.3021 26.4835 57.4077 26.4277 57.538L25.1947 60.4621Z" fill="white"/>
<path d="M39.6695 57.3018L38.2443 60.6854C37.8168 61.6973 36.6704 62.523 35.6852 62.523H31.8062C30.821 62.5292 30.3686 61.7097 30.7962 60.6978L32.2214 57.3143C32.6489 56.3023 33.7953 55.4828 34.7805 55.4766H38.6595C39.6447 55.4704 40.097 56.2899 39.6695 57.3018ZM37.5441 57.5191C37.5999 57.3888 37.5441 57.2832 37.414 57.2832H34.4955C34.3715 57.2832 34.2228 57.395 34.1671 57.5191L32.934 60.4432C32.8782 60.5736 32.934 60.6792 33.0641 60.6792H35.9826C36.1065 60.6792 36.2552 60.5674 36.311 60.4432L37.5441 57.5191Z" fill="white"/>
<path d="M46.4298 55.4824H47.7C47.9107 55.4824 48.0037 55.6563 47.9107 55.8673L45.9898 60.4304C45.9341 60.5608 45.9898 60.6664 46.1199 60.6664H49.212C49.4226 60.6664 49.5156 60.834 49.4288 61.0513L48.9827 62.1129C48.8898 62.3302 48.6481 62.504 48.4374 62.504H43.4741C43.2634 62.5102 43.1704 62.3364 43.2572 62.1191L45.8907 55.8735C45.9836 55.6563 46.2253 55.4824 46.436 55.4824H46.4298Z" fill="white"/>
<path d="M59.1758 57.2774L57.7507 60.6609C57.3231 61.6729 56.1768 62.4986 55.1915 62.4986H51.3126C50.3273 62.5048 49.875 61.6853 50.3025 60.6734L51.7277 57.2898C52.1553 56.2779 53.3016 55.4584 54.2869 55.4522H58.1658C59.1511 55.446 59.6034 56.2655 59.1758 57.2774ZM57.0505 57.4947C57.1062 57.3643 57.0505 57.2588 56.9203 57.2588H54.0018C53.8779 57.2588 53.7292 57.3705 53.6734 57.4947L52.4403 60.4188C52.3845 60.5492 52.4403 60.6547 52.5704 60.6547H55.489C55.6129 60.6547 55.7616 60.543 55.8174 60.4126L57.0505 57.4885V57.4947Z" fill="white"/>
<path d="M69.2822 62.1628C69.245 62.1814 69.2141 62.2187 69.2141 62.2559L69.2017 62.7588C69.2017 62.9575 69.0034 63.1872 68.7803 63.2679H68.7741C68.5077 63.3548 68.2412 63.4603 67.9748 63.5473C67.7331 63.628 67.4357 63.7459 67.2064 63.7025C67.0887 63.6776 67.0081 63.5969 67.0081 63.4665L67.0329 62.5229C67.0329 62.5229 67.0143 62.4732 66.9833 62.4732H64.3003C63.3151 62.4732 62.8627 61.6599 63.2903 60.648L64.7155 57.2644C65.143 56.2525 66.2894 55.433 67.2746 55.4268H71.1535C72.1388 55.4206 72.5911 56.2401 72.1636 57.252L70.7384 60.6356C70.4657 61.275 69.9081 61.8338 69.2884 62.1628H69.2822ZM70.032 57.4693C70.0878 57.339 70.032 57.2334 69.9019 57.2334H66.9833C66.8594 57.2334 66.7107 57.3452 66.6549 57.4693L65.4219 60.3934C65.3661 60.5238 65.4219 60.6294 65.552 60.6294H68.4705C68.5944 60.6294 68.7431 60.5176 68.7989 60.3934L70.032 57.4693Z" fill="white"/>
<path d="M80.9377 55.8052L78.9053 60.629C78.4777 61.641 77.3314 62.4667 76.3461 62.4605H76.1541H72.8576C71.8785 62.4605 71.4262 61.6348 71.8537 60.629L73.8862 55.8114C73.9791 55.5941 74.2208 55.4203 74.4315 55.4203H75.6336C75.8442 55.4203 75.9372 55.5941 75.8504 55.8052L73.9233 60.3745C73.8676 60.5049 73.9233 60.6104 74.0535 60.6104H76.7055C76.8295 60.6104 76.9782 60.4987 77.034 60.3745L78.961 55.8052C79.054 55.5879 79.2956 55.4141 79.5063 55.4141H80.7332C80.9439 55.4141 81.043 55.5879 80.9501 55.799L80.9377 55.8052Z" fill="white"/>
<path d="M79.5125 62.0634L82.1522 55.8054C82.2451 55.5882 82.4868 55.4143 82.6975 55.4143H88.361C88.4849 55.4081 88.5469 55.5137 88.4911 55.6378L87.9335 56.9602C87.8777 57.0906 87.729 57.1961 87.605 57.1961H83.6703C83.6269 57.1961 83.5774 57.2396 83.5588 57.283L83.2551 58.0094C83.2366 58.0529 83.2551 58.0901 83.2985 58.0901H86.4649C86.5888 58.0901 86.6508 58.1894 86.595 58.3198L86.0807 59.5366C86.0249 59.667 85.8824 59.7725 85.7523 59.7725H82.5859C82.5426 59.7725 82.493 59.8098 82.4744 59.8533L82.1894 60.53C82.1708 60.5734 82.1894 60.6107 82.2327 60.6107H86.1675C86.2914 60.6107 86.3534 60.71 86.2976 60.8404L85.7213 62.2186C85.6656 62.349 85.5168 62.4545 85.3929 62.4545H79.7294C79.5187 62.4607 79.4196 62.2869 79.5125 62.0696V62.0634Z" fill="white"/>
<path d="M91.3291 62.0511L93.9688 55.7994C94.0617 55.5821 94.3034 55.4082 94.5141 55.4082H99.3039C100.289 55.402 100.742 56.2215 100.314 57.2335L100.078 57.7984C100.078 57.7984 100.066 57.8295 100.06 57.8481C99.905 58.2144 99.6323 58.5372 99.3039 58.7918C99.3349 58.7669 99.4464 59.1829 99.4526 59.2201C99.4774 59.3753 99.4588 59.5243 99.4217 59.6858C99.3907 59.8161 99.3349 59.9465 99.273 60.0955L99.0127 60.7163C98.6099 61.6662 97.538 62.4422 96.6085 62.4422H91.5522C91.3415 62.4485 91.2424 62.2746 91.3353 62.0573L91.3291 62.0511ZM93.9936 60.5363C93.975 60.5798 93.9936 60.617 94.037 60.617H96.689C96.8749 60.617 97.0918 60.4556 97.1724 60.2631L97.2529 60.0707C97.3335 59.8782 97.2529 59.723 97.0608 59.723H94.4088C94.3654 59.723 94.3158 59.7603 94.2972 59.8037L93.9874 60.5363H93.9936ZM95.0718 57.9785C95.0532 58.0219 95.0718 58.0592 95.1151 58.0592H97.5937C97.7796 58.0592 97.9965 57.8978 98.077 57.7053L98.1576 57.5129C98.2381 57.3204 98.1576 57.1652 97.9655 57.1652H95.4869C95.4436 57.1652 95.394 57.2024 95.3754 57.2459L95.0656 57.9785H95.0718Z" fill="white"/>
<path d="M109.175 55.7622L107.142 60.5861C106.715 61.598 105.569 62.4237 104.583 62.4175H104.391H101.095C100.116 62.4175 99.6633 61.5918 100.091 60.5861L102.123 55.7684C102.216 55.5511 102.458 55.3773 102.669 55.3773H103.871C104.081 55.3773 104.174 55.5511 104.088 55.7622L102.16 60.3315C102.105 60.4619 102.16 60.5674 102.291 60.5674H104.943C105.067 60.5674 105.215 60.4557 105.271 60.3315L107.198 55.7622C107.291 55.5449 107.533 55.3711 107.743 55.3711H108.97C109.181 55.3711 109.28 55.5449 109.187 55.756L109.175 55.7622Z" fill="white"/>
<path d="M107.998 62.4111C107.787 62.4111 107.694 62.2373 107.781 62.02L108.227 60.9584C108.32 60.7411 108.561 60.5673 108.772 60.5673H112.992C113.116 60.561 113.264 60.4555 113.32 60.3251L113.463 59.9899C113.519 59.8595 113.463 59.754 113.333 59.754H110.296C109.311 59.754 108.859 58.9407 109.286 57.9287L109.59 57.2148C110.018 56.2028 111.164 55.3833 112.149 55.3771H116.635C116.846 55.3709 116.939 55.5447 116.852 55.762L116.425 56.774C116.332 56.9913 116.09 57.1651 115.879 57.1651H111.777C111.653 57.1713 111.505 57.2769 111.449 57.4072L111.263 57.848C111.207 57.9784 111.263 58.0839 111.393 58.0839H114.429C115.415 58.0839 115.867 58.8972 115.439 59.9092L115.161 60.5673C114.733 61.5792 113.587 62.3987 112.601 62.4049H112.403H107.998V62.4111Z" fill="white"/>
<path d="M116.096 60.5672L117.528 57.1899C117.955 56.1779 119.095 55.3646 120.081 55.3584H123.798C124.009 55.3584 124.108 55.526 124.015 55.7433L123.575 56.7801C123.482 56.9974 123.241 57.1712 123.03 57.1712H119.795C119.672 57.1712 119.523 57.283 119.467 57.4133L118.234 60.325C118.178 60.4554 118.234 60.561 118.364 60.561H121.599C121.809 60.561 121.902 60.7286 121.816 60.9459L121.369 62.0075C121.276 62.2248 121.035 62.3986 120.824 62.3986H117.1C116.115 62.4048 115.662 61.5853 116.09 60.5734L116.096 60.5672Z" fill="white"/>
<path d="M121.97 61.908L127.399 55.737C127.665 55.4576 127.938 55.3893 128.285 55.3769C128.378 55.3645 128.483 55.3707 128.588 55.3707H128.638C128.675 55.3707 128.712 55.3707 128.749 55.3707C128.892 55.3707 129.047 55.3707 129.22 55.3707C129.22 55.3707 129.555 55.3583 129.592 55.7308L129.982 61.8894C129.989 61.995 129.939 62.1191 129.846 62.2185C129.753 62.3178 129.635 62.3799 129.536 62.3799H128.006C127.9 62.3799 127.826 62.3116 127.826 62.206L127.801 61.6225H124.554L124.368 61.8397L124.021 62.2122C123.922 62.3178 123.78 62.3923 123.662 62.3923H122.045C121.933 62.3923 121.853 62.3302 121.834 62.2309C121.816 62.1315 121.865 62.0074 121.964 61.9018L121.97 61.908ZM126.023 59.9586H127.727L127.628 58.1272L126.023 59.9586Z" fill="white"/>
<path d="M130.98 62.3805C130.769 62.3805 130.676 62.2067 130.763 61.9894L131.209 60.9278C131.302 60.7105 131.544 60.5366 131.755 60.5366H135.974C136.098 60.5304 136.247 60.4249 136.303 60.2945L136.445 59.9655C136.501 59.8351 136.445 59.7296 136.315 59.7296H133.279C132.294 59.7296 131.841 58.9163 132.269 57.9043L132.573 57.1904C133 56.1784 134.146 55.3589 135.132 55.3527H139.618C139.829 55.3465 139.922 55.5203 139.835 55.7376L139.407 56.7496C139.314 56.9669 139.073 57.1407 138.862 57.1407H134.76C134.636 57.1469 134.487 57.2524 134.431 57.3828L134.246 57.8236C134.19 57.954 134.246 58.0595 134.376 58.0595H137.412C138.397 58.0595 138.85 58.8728 138.422 59.8848L138.143 60.5428C137.716 61.5548 136.569 62.3743 135.584 62.3805H135.386H130.98Z" fill="white"/>
<path d="M143.038 61.9706L145.678 55.7127C145.771 55.4954 146.013 55.3215 146.223 55.3215H151.887C152.011 55.3153 152.073 55.4209 152.017 55.545L151.459 56.8674C151.403 56.9978 151.255 57.1033 151.131 57.1033H147.196C147.153 57.1033 147.103 57.1468 147.085 57.1903L146.781 57.9166C146.762 57.9601 146.781 57.9973 146.824 57.9973H149.991C150.115 57.9973 150.177 58.0967 150.121 58.227L149.607 59.4439C149.551 59.5742 149.408 59.6798 149.278 59.6798H146.112C146.068 59.6798 146.019 59.717 146 59.7605L145.715 60.4372C145.697 60.4806 145.715 60.5179 145.759 60.5179H149.693C149.817 60.5179 149.879 60.6172 149.823 60.7476L149.247 62.1196C149.191 62.25 149.043 62.3556 148.919 62.3556H143.255C143.045 62.3618 142.945 62.1879 143.038 61.9706Z" fill="white"/>
<path d="M153.894 58.4375L152.407 61.9576C152.314 62.1749 152.073 62.3487 151.862 62.3487H150.604C150.393 62.3487 150.294 62.1749 150.387 61.9638L153.021 55.7245C153.114 55.5072 153.355 55.3334 153.566 55.3334H155.171C155.282 55.3334 155.369 55.383 155.406 55.4699L156.429 58.9963C156.46 59.0708 156.571 59.0521 156.608 58.9652L157.978 55.7183C158.071 55.501 158.312 55.3271 158.523 55.3271H159.781C159.992 55.3271 160.085 55.501 159.998 55.7183L157.364 61.9576C157.271 62.1749 157.03 62.3487 156.819 62.3487H155.431C155.32 62.3487 155.233 62.2991 155.196 62.2122L154.074 58.4127C154.043 58.3382 153.932 58.3568 153.894 58.4437V58.4375Z" fill="white"/>
<path d="M171.907 55.6875L171.48 56.6994C171.387 56.9167 171.145 57.0905 170.935 57.0905H169.082C169.039 57.0905 168.989 57.1278 168.97 57.1712L166.957 61.9392C166.864 62.1565 166.622 62.3303 166.411 62.3303H165.141C164.93 62.3303 164.837 62.1565 164.924 61.9454L166.938 57.1775C166.957 57.134 166.938 57.0967 166.895 57.0967H165.042C164.831 57.0967 164.732 56.9229 164.825 56.7118L165.253 55.6999C165.345 55.4826 165.587 55.3088 165.798 55.3088H171.691C171.901 55.3025 171.994 55.4764 171.907 55.6875Z" fill="white"/>
<path d="M179.727 55.6568L177.695 60.4806C177.267 61.4926 176.121 62.3183 175.136 62.3121H174.944H171.647C170.668 62.3121 170.216 61.4863 170.643 60.4806L172.676 55.663C172.769 55.4457 173.01 55.2718 173.221 55.2718H174.423C174.634 55.2718 174.727 55.4457 174.64 55.6568L172.713 60.2261C172.657 60.3564 172.713 60.462 172.843 60.462H175.495C175.619 60.462 175.768 60.3502 175.824 60.2261L177.751 55.6568C177.844 55.4395 178.085 55.2656 178.296 55.2656H179.523C179.734 55.2656 179.833 55.4395 179.74 55.6505L179.727 55.6568Z" fill="white"/>
<path d="M191.079 58.6929C190.652 59.7049 189.505 60.5244 188.52 60.5306H185.447C185.403 60.5368 185.354 60.574 185.341 60.6175L184.796 61.915C184.703 62.1323 184.461 62.3062 184.251 62.3062H182.987C182.776 62.3062 182.677 62.1323 182.77 61.9212L185.403 55.6695C185.496 55.4522 185.738 55.2784 185.949 55.2784H190.738C191.724 55.2721 192.176 56.0916 191.748 57.1036L191.073 58.6991L191.079 58.6929ZM189.412 57.0229H186.934C186.89 57.0229 186.841 57.0601 186.822 57.1036L186.153 58.6929C186.135 58.7364 186.153 58.7736 186.196 58.7736H188.675C188.861 58.7736 189.078 58.6122 189.158 58.4198L189.604 57.3706C189.685 57.1781 189.604 57.0229 189.412 57.0229Z" fill="white"/>
<path d="M190.955 62.2928C190.745 62.2928 190.646 62.119 190.738 61.9017L193.372 55.6499C193.465 55.4327 193.707 55.2588 193.917 55.2588H198.713C199.698 55.2526 200.151 56.0721 199.723 57.0841L199.048 58.6796C198.757 59.3749 198.125 59.9771 197.437 60.2875C197.387 60.3124 197.35 60.362 197.362 60.3993L197.796 61.8334C197.852 62.0259 197.666 62.2618 197.449 62.2618C196.786 62.2618 196.371 62.2866 196.105 62.2804C195.64 62.2866 195.491 62.268 195.454 62.0942L195.095 60.6228C195.076 60.5607 195.026 60.5173 194.952 60.5173H193.415C193.372 60.5173 193.322 60.5545 193.304 60.598L192.758 61.8955C192.666 62.1128 192.424 62.2866 192.213 62.2866H190.949L190.955 62.2928ZM194.122 58.6858C194.103 58.7293 194.122 58.7665 194.165 58.7665H196.644C196.83 58.7665 197.046 58.6051 197.127 58.4126L197.573 57.3634C197.654 57.171 197.573 57.0158 197.381 57.0158H194.902C194.859 57.0158 194.809 57.053 194.791 57.0965L194.122 58.6858Z" fill="white"/>
<path d="M203.311 55.2529C203.522 55.2529 203.615 55.4268 203.528 55.6441L200.894 61.8896C200.801 62.1069 200.56 62.2807 200.349 62.2807H199.079C198.868 62.2807 198.775 62.1069 198.862 61.8958L201.495 55.6503C201.588 55.433 201.83 55.2591 202.041 55.2591H203.311V55.2529Z" fill="white"/>
<path d="M206.787 55.2533C206.936 55.2533 207.029 55.3402 207.035 55.4768L207.103 59.8226C207.103 59.9033 207.209 59.9219 207.27 59.8536L211.156 55.4768C211.273 55.3402 211.447 55.2471 211.596 55.2471H213.064C213.275 55.2471 213.368 55.4209 213.281 55.632L210.648 61.8713C210.555 62.0886 210.313 62.2625 210.102 62.2625H208.956C208.745 62.2625 208.652 62.0886 208.739 61.8775L209.792 59.3818L207.425 62.0452C207.308 62.1817 207.134 62.2749 206.985 62.2749H205.467C205.319 62.2749 205.226 62.188 205.219 62.0514L205.096 59.4066L204.048 61.89C203.955 62.1072 203.714 62.2811 203.503 62.2811H202.357C202.146 62.2811 202.053 62.1072 202.14 61.8962L204.773 55.6568C204.866 55.4395 205.108 55.2657 205.319 55.2657H206.787V55.2533Z" fill="white"/>
<path d="M211.899 61.871L214.539 55.6131C214.632 55.3958 214.874 55.2219 215.084 55.2219H220.748C220.872 55.2157 220.934 55.3213 220.878 55.4454L220.32 56.7678C220.264 56.8982 220.116 57.0037 219.992 57.0037H216.057C216.014 57.0037 215.964 57.0472 215.945 57.0906L215.642 57.817C215.623 57.8605 215.642 57.8977 215.685 57.8977H218.852C218.976 57.8977 219.038 57.9971 218.982 58.1274L218.467 59.3443C218.412 59.4746 218.269 59.5802 218.139 59.5802H214.973C214.929 59.5802 214.88 59.6174 214.861 59.6609L214.576 60.3376C214.557 60.381 214.576 60.4183 214.619 60.4183H218.554C218.678 60.4183 218.74 60.5176 218.684 60.648L218.108 62.02C218.052 62.1504 217.904 62.2559 217.78 62.2559H212.116C211.905 62.2622 211.806 62.0883 211.899 61.871Z" fill="white"/>
<path d="M219.465 62.2499C219.254 62.2499 219.155 62.076 219.248 61.8587L221.888 55.607C221.981 55.3897 222.222 55.2159 222.433 55.2159H227.229C228.214 55.2096 228.667 56.0291 228.239 57.0411L227.564 58.6366C227.273 59.332 226.641 59.9342 225.953 60.2446C225.903 60.2694 225.866 60.3191 225.878 60.3563L226.312 61.7904C226.368 61.9829 226.182 62.2188 225.965 62.2188C225.302 62.2188 224.887 62.2437 224.621 62.2374C224.156 62.2437 224.007 62.225 223.97 62.0512L223.61 60.5798C223.598 60.5177 223.542 60.4743 223.468 60.4743H221.931C221.888 60.4743 221.838 60.5115 221.82 60.555L221.274 61.8525C221.181 62.0698 220.94 62.2437 220.729 62.2437H219.465V62.2499ZM222.631 58.6428C222.613 58.6863 222.631 58.7235 222.675 58.7235H225.153C225.339 58.7235 225.556 58.5621 225.637 58.3697L226.077 57.3205C226.157 57.128 226.077 56.9728 225.885 56.9728H223.406C223.363 56.9728 223.313 57.0101 223.301 57.0535L222.631 58.6428Z" fill="white"/>
<path d="M231.418 61.7469L236.846 55.5758C237.113 55.2965 237.385 55.2282 237.732 55.2158C237.825 55.2034 237.93 55.2096 238.036 55.2096C238.054 55.2096 238.073 55.2096 238.085 55.2096C238.123 55.2096 238.16 55.2096 238.197 55.2096C238.339 55.2096 238.494 55.2096 238.668 55.2096C238.668 55.2096 239.002 55.1971 239.04 55.5696L239.43 61.7283C239.436 61.8338 239.387 61.958 239.294 62.0573C239.201 62.1566 239.083 62.2187 238.984 62.2187H237.453C237.348 62.2187 237.274 62.1504 237.274 62.0449L237.249 61.4613H234.002L233.816 61.6786L233.469 62.0511C233.37 62.1566 233.227 62.2311 233.11 62.2311H231.492C231.381 62.2311 231.3 62.1691 231.282 62.0697C231.263 61.9704 231.313 61.8462 231.412 61.7407L231.418 61.7469ZM235.47 59.7975H237.174L237.075 57.966L235.47 59.7975Z" fill="white"/>
<path d="M249.679 55.5513L247.646 60.3751C247.219 61.3871 246.073 62.2128 245.087 62.2066H244.895H241.599C240.62 62.2066 240.167 61.3809 240.595 60.3751L242.627 55.5575C242.72 55.3402 242.962 55.1664 243.173 55.1664H244.375C244.585 55.1664 244.678 55.3402 244.592 55.5513L242.664 60.1206C242.609 60.251 242.664 60.3565 242.795 60.3565H245.447C245.571 60.3565 245.719 60.2448 245.775 60.1206L247.702 55.5513C247.795 55.334 248.037 55.1602 248.247 55.1602H249.474C249.685 55.1602 249.778 55.334 249.691 55.5451L249.679 55.5513Z" fill="white"/>
<path d="M257.077 55.5634L256.65 56.5754C256.557 56.7927 256.315 56.9665 256.105 56.9665H254.252C254.208 56.9665 254.159 57.0038 254.14 57.0472L252.126 61.8152C252.033 62.0325 251.792 62.2063 251.581 62.2063H250.311C250.1 62.2063 250.007 62.0325 250.094 61.8214L252.108 57.0534C252.126 57.01 252.108 56.9727 252.064 56.9727H250.212C250.001 56.9727 249.902 56.7989 249.995 56.5878L250.422 55.5759C250.515 55.3586 250.757 55.1847 250.968 55.1847H256.861C257.071 55.1785 257.164 55.3524 257.077 55.5634Z" fill="white"/>
<path d="M264.631 56.9727L263.206 60.3563C262.778 61.3682 261.632 62.1939 260.647 62.1939H256.768C255.782 62.2001 255.33 61.3806 255.758 60.3687L257.183 56.9852C257.61 55.9732 258.757 55.1537 259.742 55.1475H263.621C264.606 55.1413 265.058 55.9608 264.631 56.9727ZM262.505 57.19C262.561 57.0597 262.505 56.9541 262.375 56.9541H259.457C259.333 56.9541 259.184 57.0659 259.128 57.19L257.895 60.1141C257.84 60.2445 257.895 60.3501 258.025 60.3501H260.944C261.068 60.3501 261.217 60.2383 261.272 60.1141L262.505 57.19Z" fill="white"/>
<path d="M40.7477 6.93502C40.8778 7.16472 41.1566 7.28889 41.5408 7.28889L45.1843 7.30131H45.2277H45.4445C46.4422 7.30131 47.793 6.46319 48.3878 5.46365L51.4737 0.285924C51.4737 0.285924 51.4861 0.267299 51.4923 0.254883H50.1476C50.0175 0.254883 49.7944 0.379049 49.6953 0.546673L46.7768 5.43882C46.6467 5.65611 46.3864 5.81752 46.1509 5.81752H43.189C43.0341 5.81752 42.904 5.74923 42.8358 5.62506C42.7615 5.49469 42.7739 5.33327 42.8668 5.17807L45.7792 0.285924C45.7792 0.285924 45.7915 0.267299 45.7915 0.261091H44.4779C44.3478 0.261091 44.1247 0.385257 44.0256 0.552881L40.9459 5.71198C40.6547 6.19623 40.5865 6.64323 40.7477 6.93502Z" fill="white"/>
<path d="M42.0241 0.286133H40.6423C40.5122 0.286133 40.2891 0.410299 40.19 0.577923L38.1142 4.06078C38.0274 4.20357 37.8663 4.29049 37.7052 4.26565C37.5751 4.24703 37.4698 4.15391 37.4388 4.02353L36.8935 0.286133H35.1089C34.9788 0.286133 34.7557 0.410299 34.6566 0.577923L30.6661 7.26426C30.6661 7.26426 30.6537 7.28289 30.6537 7.29531H32.0293C32.1594 7.29531 32.3825 7.17114 32.4816 7.00352L34.7309 3.23508C34.8177 3.09229 34.985 3.00537 35.1399 3.0302C35.27 3.04883 35.3754 3.14195 35.4063 3.26612L36.0136 7.29531H37.5627C37.6928 7.29531 37.9159 7.17114 38.015 7.00352L42.0055 0.317174C42.0055 0.317174 42.0179 0.292341 42.0241 0.286133Z" fill="white"/>
<path d="M59.1201 1.67686C59.1573 1.67686 59.2626 1.62099 59.306 1.5527L60.0743 0.267578H53.9461C53.8159 0.267578 53.5867 0.397952 53.4937 0.559368L49.4908 7.26434C49.466 7.30779 49.4598 7.33883 49.4598 7.34504L55.774 7.29538C55.8174 7.29538 55.9165 7.2395 55.9599 7.17121L56.7592 5.83643H52.4093L52.2916 5.68743C52.2358 5.58809 52.242 5.47014 52.304 5.36459L52.7377 4.63822C52.8121 4.51406 52.9546 4.43335 53.0909 4.43335H56.6291C56.6663 4.43335 56.7716 4.37747 56.815 4.30918L57.509 3.14202H54.0204L53.9027 2.99302C53.8469 2.89369 53.8531 2.77573 53.9151 2.67019L54.3798 1.89415C54.4542 1.76999 54.5967 1.68307 54.733 1.68307H59.1325L59.1201 1.67686Z" fill="white"/>
<path d="M68.1978 1.31671L69.1831 0.286133H67.6959C67.603 0.286133 67.4357 0.354424 67.3117 0.484798L62.8255 5.1969C62.6954 5.33348 62.5095 5.36452 62.367 5.29002C62.2369 5.22173 62.1749 5.07273 62.2121 4.92373L63.3336 0.286133H61.6358C61.5738 0.286133 61.4561 0.373049 61.4437 0.422715L61.1835 1.52779C60.8571 2.89776 60.506 4.35671 60.1301 5.90465L59.7831 7.32635L62.3236 7.29531C62.4166 7.29531 62.5839 7.22081 62.7078 7.09043L63.7612 5.97915C65.3433 4.31118 66.8243 2.75497 68.204 1.3105L68.1978 1.31671Z" fill="white"/>
<path d="M77.5297 1.83179C77.8209 1.34754 77.8891 0.900546 77.728 0.608756C77.5978 0.379049 77.3128 0.254883 76.9286 0.254883H72.5973C71.5811 0.254883 70.2551 1.08059 69.654 2.09254L67.4915 5.71819C67.2002 6.20244 67.1321 6.64943 67.2932 6.94122C67.4233 7.17093 67.7083 7.2951 68.0925 7.2951H72.4238C73.44 7.2951 74.7661 6.46939 75.3671 5.45744L77.5297 1.83179ZM73.6879 5.45744C73.5578 5.67473 73.2975 5.82994 73.0621 5.82994H69.8027C69.6478 5.82994 69.5177 5.76165 69.4495 5.63748C69.3752 5.50711 69.3876 5.34569 69.4805 5.19048L71.3518 2.05529C71.482 1.838 71.7422 1.67658 71.9777 1.67658H75.237C75.3919 1.67658 75.522 1.74488 75.5902 1.86904C75.6646 1.99942 75.6522 2.16083 75.5592 2.31604L73.6879 5.45123V5.45744Z" fill="white"/>
<path d="M92.302 0.44037L91.6575 1.52061C91.5212 1.75032 91.2176 1.93657 90.9821 1.93657H88.9125C88.863 1.93657 88.8072 1.97382 88.7762 2.02349L85.7276 7.13292C85.5912 7.36263 85.2876 7.54888 85.0521 7.54888H83.6332C83.3977 7.54888 83.3172 7.36263 83.4597 7.13292L86.5083 2.02349C86.5393 1.97382 86.5207 1.93657 86.4711 1.93657H84.4015C84.1661 1.93657 84.0855 1.75032 84.228 1.52061L84.8725 0.44037C85.0088 0.210663 85.3124 0.0244141 85.5479 0.0244141H92.1285C92.3639 0.0244141 92.4383 0.210663 92.302 0.44037Z" fill="white"/>
<path d="M100.723 1.96182L98.5604 5.58747C97.916 6.67393 96.497 7.5493 95.394 7.5493H91.0627C89.9597 7.5493 89.5941 6.66772 90.2448 5.58747L92.4073 1.96182C93.0518 0.875371 94.4707 0 95.5737 0H99.905C101.008 0 101.374 0.881579 100.723 1.96182ZM98.3125 2.19153C98.3931 2.05495 98.3497 1.9432 98.2072 1.9432H94.9479C94.8053 1.9432 94.6257 2.05495 94.5451 2.19153L92.6738 5.32672C92.5932 5.46331 92.6366 5.57506 92.7791 5.57506H96.0384C96.181 5.57506 96.3607 5.46331 96.4412 5.32672L98.3125 2.19153Z" fill="white"/>
<path d="M110.061 0.40312L104.819 4.78618C104.757 4.85447 104.701 4.92276 104.639 4.99106L103.363 7.13292C103.226 7.36263 102.923 7.54888 102.687 7.54888H101.268C101.033 7.54888 100.952 7.36263 101.095 7.13292L102.371 4.99106C102.396 4.91656 102.415 4.84206 102.439 4.76756V0.40312C102.433 0.235496 102.681 0.0244141 102.873 0.0244141H104.67C104.819 0.0244141 104.912 0.105122 104.912 0.229288V2.44565C104.912 2.52015 105.011 2.53878 105.085 2.47669L107.774 0.229288C107.929 0.0989137 108.115 0.0244141 108.264 0.0244141H110.061C110.259 0.0244141 110.253 0.235496 110.061 0.40312Z" fill="white"/>
<path d="M118.228 1.96182L116.065 5.58747C115.421 6.67393 114.002 7.5493 112.899 7.5493H108.568C107.465 7.5493 107.099 6.66772 107.75 5.58747L109.912 1.96182C110.557 0.875371 111.976 0 113.079 0H117.41C118.513 0 118.878 0.881579 118.228 1.96182ZM115.817 2.19153C115.898 2.05495 115.855 1.9432 115.712 1.9432H112.453C112.31 1.9432 112.131 2.05495 112.05 2.19153L110.179 5.32672C110.098 5.46331 110.141 5.57506 110.284 5.57506H113.543C113.686 5.57506 113.866 5.46331 113.946 5.32672L115.817 2.19153Z" fill="white"/>
<path d="M127.578 0.44037L126.934 1.52061C126.797 1.75032 126.494 1.93657 126.258 1.93657H124.189C124.139 1.93657 124.083 1.97382 124.052 2.02349L121.004 7.13292C120.867 7.36263 120.564 7.54888 120.328 7.54888H118.909C118.674 7.54888 118.593 7.36263 118.736 7.13292L121.785 2.02349C121.816 1.97382 121.797 1.93657 121.747 1.93657H119.678C119.442 1.93657 119.362 1.75032 119.504 1.52061L120.149 0.44037C120.285 0.210663 120.589 0.0244141 120.824 0.0244141H127.405C127.64 0.0244141 127.715 0.210663 127.578 0.44037Z" fill="white"/>
<path d="M123.216 7.02818L130.317 0.422545C130.664 0.124546 130.974 0.0500466 131.364 0.03763C131.47 0.0252134 131.581 0.0252134 131.705 0.0314217H131.761C131.804 0.0314217 131.841 0.0314217 131.891 0.0314217C132.046 0.0314217 132.219 0.0314217 132.418 0.0314217C132.418 0.0314217 132.796 0.0190051 132.771 0.416336L132.17 7.02197C132.157 7.13372 132.083 7.26409 131.965 7.36964C131.848 7.47518 131.705 7.54347 131.594 7.54347H129.883C129.766 7.54347 129.697 7.46897 129.71 7.35101L129.778 6.73018H126.153L125.911 6.95368L125.459 7.35101C125.329 7.46897 125.162 7.54347 125.025 7.54347H123.216C123.092 7.54347 123.011 7.47518 123.011 7.36964C123.011 7.26409 123.086 7.12751 123.21 7.02197L123.216 7.02818ZM128.068 4.94219H129.97L130.168 2.98037L128.068 4.94219Z" fill="white"/>
<path d="M84.3706 42.85L93.6652 25.5723C94.2539 24.2748 95.2143 23.1883 96.4288 22.4558C98.0833 21.4562 100.754 19.9228 104.174 18.2093C108.035 16.2785 111.344 15.4466 112.893 15.13C113.444 15.0182 114.002 14.9623 114.566 14.9623H148.088C148.485 14.9623 148.869 15.0679 149.21 15.2603L155.524 18.8612C155.853 19.0474 155.716 19.5441 155.344 19.5441H118.866C117.955 19.5441 117.063 19.7552 116.251 20.1587C115.105 20.7299 113.407 21.6301 112.087 22.5737C110.854 23.4553 109.764 24.3493 108.964 25.0508C108.041 25.8517 107.335 26.8761 106.901 28.0184L103.406 35.9216C103.233 36.3872 103.573 37.306 104.069 37.306H132.944C133.273 37.306 133.564 37.1136 133.7 36.8218L136.594 31.4764C136.761 31.1101 136.495 30.6942 136.098 30.6942H117.057C116.871 30.6942 116.753 30.4893 116.852 30.3341C117.057 30.0051 117.447 29.5519 118.624 28.3723C119.232 27.7639 119.975 27.2858 120.514 26.9816C120.954 26.7333 121.444 26.6091 121.952 26.6091H155.648C155.97 26.6091 156.2 26.9257 156.1 27.2299L150.115 42.9432C149.997 43.3157 149.644 43.5702 149.253 43.5702H84.8291C84.4573 43.5702 84.2157 43.1853 84.3644 42.85H84.3706ZM74.7537 43.0301L87.8282 15.6018C87.9645 15.3038 87.7476 14.9623 87.4192 14.9623H51.9632C49.4661 14.9623 46.9875 15.3286 44.5957 16.0488C41.6896 16.9242 37.5999 18.2155 34.2662 19.513C30.0279 21.1644 27.0412 22.4868 24.9902 23.4677C22.5302 24.6473 20.4234 26.4539 18.8743 28.7013L9.1769 42.788C8.94763 43.117 9.1831 43.5702 9.58586 43.5702H23.9058C24.2466 43.5702 24.5564 43.384 24.7175 43.086C25.5479 41.5525 28.138 36.7969 29.2162 35.1083C29.9163 34.0094 31.6018 31.731 32.8473 30.0671C33.8573 28.7199 35.1213 27.5962 36.5713 26.7457C38.0213 25.8952 40.0723 24.7342 41.9808 23.8154C44.4842 22.6048 46.5909 21.7356 47.9851 21.1955C49.1191 20.7547 50.315 20.5188 51.5295 20.4753L67.3924 19.9662C68.1979 19.9414 68.737 20.7981 68.359 21.5121L65.3723 27.2362C65.143 27.6769 64.6845 27.9625 64.1826 27.9625L49.2678 28.0743C48.6482 28.0743 48.0347 28.2047 47.4584 28.4406C46.5352 28.8255 45.0356 29.496 43.5919 30.3589C41.7949 31.433 40.4875 32.5877 39.8492 33.2023C39.6819 33.3637 39.7997 33.6493 40.0351 33.6431L60.9914 33.4134C61.5739 33.4134 61.9643 34.0094 61.7288 34.5433L57.8808 42.8562C57.7321 43.1853 57.9738 43.5578 58.3332 43.5578H73.911C74.2704 43.5578 74.5988 43.3467 74.7475 43.0177L74.7537 43.0301ZM273.882 42.6576L286.957 15.2293C287.093 14.9313 286.876 14.5898 286.548 14.5898H251.092C248.595 14.5898 246.116 14.9561 243.724 15.6763C240.818 16.5517 236.728 17.843 233.395 19.1405C229.156 20.7919 226.17 22.1143 224.119 23.0952C221.659 24.2748 219.552 26.0814 218.003 28.3288L208.305 42.4155C208.076 42.7445 208.312 43.1977 208.714 43.1977H223.034C223.375 43.1977 223.685 43.0115 223.846 42.7135C224.676 41.18 227.266 36.4244 228.345 34.7358C229.045 33.6369 230.73 31.3585 231.976 29.6946C232.986 28.3474 234.25 27.2237 235.7 26.3732C237.181 25.504 239.201 24.3617 241.109 23.4429C243.613 22.2323 245.719 21.3631 247.114 20.823C248.248 20.3822 249.443 20.1463 250.658 20.1028L266.521 19.5937C267.326 19.5689 267.865 20.4256 267.487 21.1396L264.501 26.8637C264.271 27.3044 263.813 27.59 263.311 27.59L248.396 27.7018C247.777 27.7018 247.163 27.8322 246.587 28.0681C245.664 28.453 244.164 29.1235 242.72 29.9864C240.923 31.0605 239.616 32.2152 238.978 32.8298C238.81 32.9913 238.928 33.2768 239.164 33.2706L260.12 33.0409C260.702 33.0409 261.093 33.6369 260.857 34.1708L257.009 42.4837C256.861 42.8128 257.102 43.1853 257.462 43.1853H273.039C273.399 43.1853 273.727 42.9742 273.876 42.6452L273.882 42.6576ZM162.309 15.3535L180.248 27.7204C180.558 27.9315 180.675 28.335 180.533 28.6827L173.506 42.8376C173.364 43.1853 173.618 43.564 173.996 43.564H190.15C190.596 43.564 190.993 43.2846 191.147 42.8687L197.245 29.8685C197.387 29.4774 197.672 29.1545 198.044 28.9621L225.494 15.7943C225.903 15.577 225.748 14.9623 225.29 14.9623H212.544C212.265 14.9623 211.992 15.0244 211.738 15.1362L195.758 22.1888C195.429 22.3378 195.051 22.3192 194.741 22.1329L183.216 15.2293C182.925 15.0555 182.596 14.9623 182.256 14.9623H162.452C162.241 14.9623 162.154 15.2355 162.328 15.3535H162.309Z" fill="white"/>
</g>
<defs>
<clipPath id="clip0_45_2903">
<rect width="287" height="67" fill="white"/>
</clipPath>
</defs>
</svg>
