<svg width="33" height="34" viewBox="0 0 33 34" fill="none" xmlns="http://www.w3.org/2000/svg">
<path d="M26.4813 26.5942C25.3576 26.5942 24.4462 25.6828 24.4462 24.5591C24.4462 23.4354 25.3576 22.524 26.4813 22.524C27.605 22.524 28.5164 23.4354 28.5164 24.5591C28.5164 25.6828 27.605 26.5942 26.4813 26.5942ZM22.3986 24.4467H10.5749C10.3003 24.4467 10.088 24.222 10.088 23.9598C10.088 23.6976 10.3003 23.4729 10.5749 23.4729H22.3986C22.6608 23.4729 22.8855 23.6851 22.8855 23.9598C22.8855 24.2345 22.6733 24.4467 22.3986 24.4467ZM22.3986 26.2197H10.5749C10.3003 26.2197 10.088 26.0074 10.088 25.7327C10.088 25.458 10.3003 25.2458 10.5749 25.2458H22.3986C22.6608 25.2458 22.8855 25.4705 22.8855 25.7327C22.8855 25.9949 22.6733 26.2197 22.3986 26.2197ZM6.49222 26.5817C5.36853 26.5817 4.4571 25.6703 4.4571 24.5466C4.4571 23.4229 5.36853 22.5115 6.49222 22.5115C7.6159 22.5115 8.52734 23.4229 8.52734 24.5466C8.52734 25.6703 7.6159 26.5817 6.49222 26.5817ZM25.1828 18.279H20.9003C20.9003 17.0928 21.8617 16.1315 23.0478 16.1315C24.2339 16.1315 25.1953 17.0928 25.1953 18.279M9.93818 13.2723H23.0478C24.8957 13.2723 26.5063 15.4573 27.1181 18.4288C26.8184 18.3663 26.4938 18.3414 26.1692 18.3164C26.1692 16.5809 24.7708 15.1826 23.0603 15.1826C21.3498 15.1826 19.939 16.5809 19.939 18.3039H7.21637C6.74193 18.3039 6.29245 18.3414 5.86795 18.4288C6.46725 15.4573 8.09035 13.2723 9.93818 13.2723ZM28.6912 18.9532C28.1294 14.8205 25.857 11.8115 23.0478 11.8115H9.93818C7.12897 11.8115 4.85663 14.8205 4.29479 18.9532C2.27216 19.977 1.22339 22.0995 1.22339 24.5591C1.22339 26.4569 1.84766 28.1424 3.04625 29.2911V33.199H7.90307V30.8268H25.0705V33.199H29.9273V29.2911C31.1384 28.1424 31.7501 26.4444 31.7501 24.5591C31.7501 22.0995 30.7014 19.977 28.6787 18.9532" fill="#E39242"/>
<path d="M30.4144 9.83891C30.2521 9.62666 30.0648 9.42689 29.84 9.26458C30.0648 9.10227 30.2521 8.91499 30.4144 8.69025C30.5767 8.91499 30.764 9.10227 30.9887 9.26458C30.7764 9.42689 30.5767 9.61417 30.4144 9.83891ZM32.4744 8.77765C31.6005 8.77765 30.8888 8.06598 30.8888 7.19201C30.8888 6.92981 30.6766 6.70508 30.4019 6.70508C30.1272 6.70508 29.9149 6.91733 29.9149 7.19201C29.9149 8.06598 29.2033 8.77765 28.3418 8.77765C28.0796 8.77765 27.8549 8.9899 27.8549 9.26458C27.8549 9.53926 28.0671 9.75151 28.3418 9.75151C29.2158 9.75151 29.9149 10.4632 29.9149 11.3372C29.9149 11.5993 30.1272 11.8241 30.4019 11.8241C30.6766 11.8241 30.8888 11.6118 30.8888 11.3372C30.8888 10.4632 31.6005 9.75151 32.4744 9.75151C32.7366 9.75151 32.9614 9.53926 32.9614 9.26458C32.9614 8.9899 32.7491 8.77765 32.4744 8.77765Z" fill="#E39242"/>
<path d="M2.55938 8.69025C2.72169 8.91499 2.90897 9.10227 3.13371 9.26458C2.92146 9.42689 2.72169 9.61417 2.55938 9.83891C2.39707 9.62666 2.20979 9.42689 1.98505 9.26458C2.20979 9.10227 2.39707 8.91499 2.55938 8.69025ZM2.07245 11.3247C2.07245 11.5869 2.2847 11.8116 2.55938 11.8116C2.83406 11.8116 3.04631 11.5993 3.04631 11.3247C3.04631 10.4507 3.75798 9.73902 4.63195 9.73902C4.89415 9.73902 5.11888 9.52677 5.11888 9.2521C5.11888 8.97742 4.90663 8.76517 4.63195 8.76517C3.75798 8.76517 3.04631 8.0535 3.04631 7.19201C3.04631 6.92981 2.83406 6.70508 2.55938 6.70508C2.2847 6.70508 2.07245 6.91733 2.07245 7.19201C2.07245 8.06598 1.36078 8.76517 0.486808 8.76517C0.224615 8.76517 -0.00012207 8.97742 -0.00012207 9.2521C-0.00012207 9.52677 0.212129 9.73902 0.486808 9.73902C1.36078 9.73902 2.07245 10.4507 2.07245 11.3247Z" fill="#E39242"/>
<path d="M16.493 2.14749C16.7303 2.52205 17.0549 2.83418 17.417 3.0714C17.0424 3.30863 16.7303 3.63325 16.493 3.99532C16.2558 3.62076 15.9312 3.30863 15.5691 3.0714C15.9437 2.83418 16.2558 2.50956 16.493 2.14749ZM13.9086 3.55833C15.0572 3.55833 16.0061 4.49474 16.0061 5.65588C16.0061 5.91807 16.2184 6.14281 16.493 6.14281C16.7677 6.14281 16.98 5.93055 16.98 5.65588C16.98 4.49474 17.9164 3.55833 19.0775 3.55833C19.3397 3.55833 19.5644 3.34608 19.5644 3.0714C19.5644 2.79672 19.3522 2.58447 19.0775 2.58447C17.9164 2.58447 16.98 1.64807 16.98 0.48693C16.98 0.224737 16.7677 0 16.493 0C16.2184 0 16.0061 0.212251 16.0061 0.48693C16.0061 1.63558 15.0697 2.58447 13.9086 2.58447C13.6464 2.58447 13.4216 2.79672 13.4216 3.0714C13.4216 3.34608 13.6339 3.55833 13.9086 3.55833Z" fill="#E39242"/>
</svg>
