<svg width="32" height="33" viewBox="0 0 32 33" fill="none" xmlns="http://www.w3.org/2000/svg">
<path d="M25.2946 8.44467C25.769 8.44467 25.9064 7.79543 25.4819 7.60815L8.714 0.179354C7.6902 -0.282605 6.4916 0.179354 6.04213 1.20315L0.174003 14.3627C-0.275471 15.3865 0.174003 16.5851 1.1978 17.0346L4.58134 18.4954C5.00584 18.6827 5.48029 18.3705 5.48029 17.9086V12.3276C5.48029 10.1926 7.21576 8.45716 9.35076 8.45716H25.2821L25.2946 8.44467Z" fill="#EF872D"/>
<path d="M29.1278 15.0245H9.91275V12.877H29.1278V15.0245ZM29.6771 10.2676H9.3634C8.22723 10.2676 7.3158 11.1915 7.3158 12.3152V26.6734C7.3158 27.8095 8.23971 28.721 9.3634 28.721H12.0852C12.0228 28.3214 11.9853 27.9094 11.9853 27.4974C11.9853 27.023 12.0353 26.5735 12.1102 26.124H9.91275V19.257H29.1278V26.124H26.9178C26.9927 26.5735 27.0427 27.023 27.0427 27.4974C27.0427 27.9094 27.0052 28.3214 26.9428 28.721H29.6771C30.8133 28.721 31.7247 27.797 31.7247 26.6734V12.3277C31.7247 11.1915 30.8008 10.2801 29.6771 10.2801" fill="#EF872D"/>
<path d="M21.0371 29.5821C20.8124 29.8692 20.5002 30.0565 20.1631 30.1439C20.0133 30.1814 19.9384 30.2688 19.9509 30.4311C19.9509 30.5809 19.9509 30.7432 19.9509 30.9055C19.9509 31.0428 19.876 31.1178 19.7386 31.1178C19.5763 31.1178 19.4015 31.1178 19.2392 31.1178C19.0894 31.1178 19.0269 31.0304 19.0269 30.893V30.5559C19.0269 30.3062 19.0145 30.2937 18.7772 30.2563C18.4651 30.2063 18.1655 30.1314 17.8908 30.0066C17.666 29.8942 17.6411 29.8442 17.7035 29.607C17.7534 29.4322 17.7909 29.2574 17.8533 29.0951C17.9157 28.8954 17.9657 28.8704 18.153 28.9703C18.4651 29.1326 18.8022 29.22 19.1393 29.2699C19.3641 29.2949 19.5763 29.2699 19.7886 29.1825C20.1756 29.0202 20.238 28.5707 19.9134 28.2961C19.801 28.2087 19.6762 28.1338 19.5388 28.0838C19.2017 27.934 18.8397 27.8216 18.5275 27.6219C18.0031 27.3097 17.6785 26.8852 17.716 26.2485C17.7534 25.5368 18.1655 25.0873 18.8272 24.8501C19.0894 24.7502 19.1019 24.7627 19.1019 24.4755V24.1884C19.1019 23.9761 19.1393 23.9387 19.3516 23.9387H19.5513C19.851 23.9387 20.0008 24.0927 20.0008 24.4006C20.0008 24.7086 20.109 24.8293 20.3254 24.7627C20.5627 24.8002 20.7999 24.8751 21.0246 24.975C21.1495 25.0249 21.1994 25.1123 21.1619 25.2496C21.112 25.4369 21.0496 25.6492 20.9872 25.8364C20.9247 26.0112 20.8623 26.0487 20.6875 25.9613C20.3379 25.7865 19.9634 25.7241 19.5763 25.7366C19.4764 25.7366 19.3765 25.7615 19.2767 25.799C18.9395 25.9488 18.8771 26.3234 19.1768 26.5481C19.3266 26.6605 19.4889 26.7479 19.6637 26.8228C19.9634 26.9476 20.263 27.06 20.5502 27.2223C21.4366 27.7092 21.6863 28.8454 21.0496 29.6195M19.5388 22.2656C16.6298 22.2656 14.27 24.6254 14.27 27.5345C14.27 30.4435 16.6298 32.8033 19.5388 32.8033C22.4479 32.8033 24.8077 30.4435 24.8077 27.5345C24.8077 24.6254 22.4479 22.2656 19.5388 22.2656Z" fill="#EF872D"/>
</svg>
