<svg width="24" height="35" viewBox="0 0 24 35" fill="none" xmlns="http://www.w3.org/2000/svg">
<path d="M14.5578 24.5088L11.6986 26.444L8.85198 24.5088L5.49341 25.0082V34.3348L11.6986 31.3133L17.9164 34.3348V25.0082L14.5578 24.5088Z" fill="#EF872D"/>
<path d="M11.699 6.44238C8.62757 6.44238 6.13049 8.93946 6.13049 12.0109C6.13049 15.0823 8.62757 17.5793 11.699 17.5793C14.7704 17.5793 17.2675 15.0823 17.2675 12.0109C17.2675 8.93946 14.7704 6.44238 11.699 6.44238Z" fill="#EF872D"/>
<path d="M11.6988 19.5896C7.5162 19.5896 4.12017 16.1935 4.12017 12.0109C4.12017 7.82833 7.5162 4.43231 11.6988 4.43231C15.8814 4.43231 19.2774 7.82833 19.2774 12.0109C19.2774 16.1935 15.8814 19.5896 11.6988 19.5896ZM22.3613 12.0109L23.3976 9.33906L21.3001 7.39134L21.0753 4.53219L18.341 3.68319L16.9052 1.1986L14.071 1.61061L11.6988 0L9.32658 1.61061L6.4924 1.1986L5.05658 3.68319L2.32228 4.53219L2.09754 7.39134L0 9.33906L1.03629 12.0109L0 14.6828L2.09754 16.6305L2.32228 19.4897L5.05658 20.3387L6.4924 22.8233L9.32658 22.4113L11.6988 24.0219L14.071 22.4113L16.9052 22.8233L18.341 20.3387L21.0753 19.4897L21.3001 16.6305L23.3976 14.6828L22.3613 12.0109Z" fill="#EF872D"/>
</svg>
