<svg width="24" height="29" viewBox="0 0 24 29" fill="none" xmlns="http://www.w3.org/2000/svg">
<path d="M2.9511 20.406C3.16601 20.5922 3.39525 20.7641 3.61016 20.9647C4.12596 20.9934 4.64174 21.0364 5.15753 21.108C5.2435 21.0937 5.32946 21.0793 5.41543 21.0507L5.659 20.3343C5.75929 20.2484 5.80227 20.1767 5.80227 20.0764V19.8615C5.80227 19.8615 5.83093 19.7755 5.87391 19.6753C5.91689 19.575 5.95987 19.5176 6.00286 19.489L6.46134 18.4717C6.46134 18.4717 6.5473 18.3571 6.59028 18.2855C6.63327 18.2138 6.66192 18.1565 6.71923 18.0992C6.73356 18.0992 6.74789 18.0706 6.74789 18.0133L6.81952 17.8413C6.87683 17.6121 6.93415 17.4115 7.00578 17.2252C7.07742 17.039 7.17771 16.8384 7.32099 16.6092H7.44994C7.44994 16.7668 7.40695 16.8814 7.36397 16.953C7.32099 17.039 7.26368 17.1393 7.2207 17.2539C7.17772 17.3112 7.1204 17.3829 7.07742 17.4831C7.03444 17.5834 7.00579 17.6694 6.99146 17.7554C6.90549 17.8127 6.83385 17.8986 6.8052 18.0276C6.77654 18.1565 6.74789 18.2712 6.71923 18.4001C6.71923 18.5147 6.69058 18.615 6.67625 18.7153C6.6476 18.8156 6.57596 18.8872 6.46134 18.9445C6.46134 19.0305 6.46134 19.1022 6.46134 19.1451C6.46134 19.1881 6.46134 19.2311 6.46134 19.2598L6.27508 19.5463C6.27508 19.6323 6.24643 19.7182 6.18912 19.8042C6.18912 19.8329 6.17479 19.8615 6.14613 19.8902C6.11748 19.9475 6.08882 20.0048 6.07449 20.0621C6.04584 20.1194 5.98853 20.1624 5.87391 20.1767C5.91689 20.2627 5.90256 20.3486 5.87391 20.4346C5.87391 20.4633 5.85958 20.4776 5.83093 20.4776C5.80227 20.4776 5.80227 20.4776 5.80227 20.5206V20.6495C5.80227 20.7641 5.74496 20.8358 5.64467 20.8644C5.64467 20.9217 5.63034 20.9647 5.61601 21.0077C5.8166 20.9647 6.01719 20.9217 6.21777 20.8788C6.28941 20.7068 6.34672 20.5636 6.40403 20.4633L6.63327 19.9475C6.74789 19.9475 6.83385 19.8758 6.87684 19.7039V19.36C6.87684 19.36 6.94847 19.2741 7.03444 19.2741V19.1022C7.03444 19.1022 6.97713 19.0878 6.9628 19.0592C6.94847 19.0305 6.93414 19.0162 6.91982 19.0162C6.9628 18.9589 7.00579 18.9302 7.02011 18.9302H7.04876L7.26368 18.6007C7.24935 18.572 7.24935 18.5577 7.26368 18.5577C7.26368 18.5291 7.26368 18.5004 7.26368 18.4717C7.26368 18.4431 7.26368 18.4001 7.26368 18.3428C7.30666 18.3428 7.33532 18.3428 7.36397 18.2998C7.39263 18.2712 7.42128 18.2425 7.46426 18.2138V18.1279C7.46426 18.1279 7.56456 18.0706 7.62187 18.0276C7.67918 17.9846 7.70783 17.913 7.72216 17.7983H7.6935L7.85111 17.4545L7.77947 17.4115V17.2826H7.82245C7.9514 17.3255 8.02304 17.2682 8.02304 17.125C8.05169 17.0676 8.06602 17.0247 8.06602 16.9817C8.06602 16.9387 8.09468 16.8814 8.13766 16.8384C8.09468 16.7811 8.08035 16.7381 8.08035 16.7095V16.6665C8.08035 16.6665 8.09468 16.6235 8.13766 16.6092C8.16631 16.6092 8.19497 16.5805 8.19497 16.5519C8.19497 16.5232 8.23795 16.4802 8.33824 16.4229L8.3669 16.5089C8.48152 16.4659 8.59614 16.3943 8.72509 16.3369C8.85403 16.2653 8.99731 16.1937 9.15491 16.122C9.39848 16.0217 9.6707 15.9071 9.97158 15.7782C10.2581 15.6492 10.5303 15.5489 10.7882 15.4773C10.9315 15.2624 11.1751 15.1478 11.5046 15.1621C11.5476 15.0761 11.6049 15.0188 11.6479 15.0045C11.6909 14.9758 11.7339 14.9472 11.7912 14.9185C12.2497 14.7036 12.5649 14.546 12.7511 14.4314C12.9374 14.3168 13.1236 14.2021 13.2956 14.0875C13.4102 13.9442 13.5678 13.8153 13.754 13.672C13.9403 13.5431 14.2125 13.3568 14.585 13.1133C14.7713 13.0416 14.9432 12.9413 15.1152 12.841C15.2871 12.7407 15.502 12.6118 15.7456 12.4828L15.3157 12.9413H15.416L15.3157 12.9843L15.1438 13.0559C14.7283 13.3282 14.3271 13.5144 13.9546 13.6434L13.8113 13.7723L13.8687 13.9442C14.0263 13.8726 14.1839 13.801 14.3415 13.7293C14.4991 13.672 14.671 13.6004 14.8573 13.5144C15.1152 13.3282 15.373 13.1849 15.6596 13.0846C15.9461 12.9843 16.204 12.8983 16.4619 12.8267L16.6052 12.5688V12.6118C16.6052 12.6118 16.7198 12.5258 16.7628 12.4828C16.7915 12.4542 16.8631 12.4399 16.9777 12.4542C17.0207 12.4542 17.0494 12.4542 17.078 12.4399C17.1067 12.4399 17.078 12.4255 17.0494 12.4112H17.1783L18.0236 11.5945C18.1096 11.5372 18.1956 11.4656 18.2815 11.3653C18.3675 11.265 18.4535 11.1934 18.5394 11.1361C18.8403 10.9785 19.1985 10.6776 19.614 10.2334H19.7429L20.359 9.78927C20.316 9.81793 20.359 9.76062 20.5166 9.646C20.6742 9.51705 20.8032 9.40243 20.9178 9.30214L21.2043 9.01558V9.05857C21.3333 9.00126 21.4336 8.94395 21.5052 8.85798C21.5769 8.77202 21.6342 8.67172 21.6915 8.57143L22.0067 8.2419C22.107 7.95535 22.2359 7.75476 22.3792 7.61149C22.6084 7.33927 22.7804 6.88079 22.8807 6.25038C22.938 6.1071 22.9666 5.92084 22.9953 5.6916C23.0239 5.46236 23.0383 5.27611 23.0383 5.13283C22.938 4.9609 22.938 4.68868 23.0383 4.35914C23.0383 4.27318 23.0383 4.20154 23.0669 4.14423C23.0956 4.08692 23.0956 3.98663 23.0956 3.84335C23.0812 3.38487 22.9236 2.91207 22.6514 2.42493C22.3792 1.95212 22.107 1.60826 21.8634 1.39335C21.7774 1.3647 21.6628 1.29306 21.5339 1.20709C21.4049 1.1068 21.2903 1.03516 21.1757 0.963525C20.7888 0.748612 20.402 0.562355 20.0152 0.404752C19.6283 0.24715 19.0982 0.146857 18.4391 0.0895469C16.7771 -0.0537282 15.1725 -0.0250732 13.5964 0.175512C12.0204 0.390425 10.5304 0.691302 9.11193 1.1068C9.01164 1.22142 8.86836 1.2644 8.66777 1.25008L7.92274 1.55095C7.73649 1.62259 7.62187 1.66557 7.57889 1.6799C7.5359 1.69423 7.49292 1.69423 7.46426 1.69423H7.29233C7.2207 1.69423 7.06309 1.69423 6.83385 1.75154C6.8052 1.86616 6.74789 1.95212 6.66193 1.99511L6.3897 2.23867V2.32464C6.3897 2.32464 6.31806 2.36762 6.24643 2.36762C6.21777 2.36762 6.21777 2.35329 6.21777 2.32464C6.11748 2.61119 6.04584 2.88341 6.01719 3.14131C5.98853 3.3992 6.01718 3.64277 6.1318 3.88634C6.1318 4.08692 6.2321 4.2302 6.37537 4.28751L6.48999 4.68868L6.67625 4.9609H6.6476L6.97713 5.61997C7.06309 5.67728 7.1204 5.73459 7.14906 5.77757C7.17771 5.82055 7.2207 5.86353 7.26368 5.89219L7.47859 6.25038C7.47859 6.25038 7.50725 6.29336 7.52157 6.32201C7.67918 6.09277 7.86543 5.89219 8.109 5.73459C8.42421 5.534 8.75374 5.39073 9.0976 5.30476C9.58473 5.16149 10.0719 5.1185 10.559 4.98956C11.2181 4.83195 11.8628 4.6457 12.5219 4.50242C12.8657 4.43078 13.2239 4.34482 13.5678 4.34482C13.6251 4.34482 13.6967 4.3878 13.754 4.40213C13.8543 4.35914 13.9976 4.33049 14.2268 4.28751C14.5277 4.24452 14.8143 4.18721 15.0865 4.11558L15.4877 4.00096C15.6883 4.00096 15.8602 4.00096 15.9891 3.94365C16.4333 3.94365 16.8488 3.92932 17.2213 3.90066C17.5938 3.87201 17.9663 3.87201 18.3245 3.90066C18.8833 3.92932 19.528 4.07259 20.3017 4.34482C20.359 4.43078 20.402 4.58838 20.4163 4.78897C20.4163 4.98955 20.4163 5.16149 20.359 5.30476C20.1298 5.51967 19.8576 5.70593 19.571 5.86353L19.1842 6.19307C18.9263 6.40798 18.74 6.55125 18.6254 6.62289C18.5108 6.69453 18.3532 6.79482 18.1383 6.92377C17.6798 7.19599 17.2213 7.45389 16.7485 7.71178C16.2757 7.96968 15.8459 8.2419 15.4304 8.51412L15.0865 8.71471C14.4847 9.11588 13.9403 9.43108 13.4532 9.67465C12.966 9.90389 12.4646 10.1475 11.9344 10.3767L10.1578 11.1934C10.1578 11.1934 10.1578 11.179 10.1578 11.1647C9.57041 11.6518 8.82538 11.9097 8.19497 12.139C8.03737 12.2966 7.85111 12.4255 7.65052 12.4972C7.26368 12.6404 6.86251 12.7551 6.47567 12.9127C6.31806 12.9986 6.16046 13.0846 6.01719 13.2135C5.87391 13.3425 5.71631 13.4571 5.54438 13.5001C5.50139 13.5001 5.45841 13.5001 5.41543 13.5144C5.28648 13.6864 5.17186 13.8583 5.04292 14.0302C4.91397 14.1878 4.77069 14.2881 4.61309 14.3741C4.45549 14.7036 4.29789 15.0475 4.19759 15.377C4.03999 15.8641 3.88238 16.3226 3.72478 16.7811L3.15168 18.3141L2.60724 19.8042C2.60724 19.8042 2.56425 19.9188 2.54993 19.9618C2.67887 20.1051 2.7935 20.2484 2.93677 20.3773" fill="white"/>
<path d="M2.86511 26.2511C2.86511 26.2511 2.95108 26.1937 3.00839 26.1221C3.05137 26.0648 3.03704 26.0218 2.95108 25.9932C2.92242 26.0505 2.90809 26.1078 2.90809 26.1364C2.90809 26.1651 2.89377 26.2081 2.86511 26.2511Z" fill="white"/>
<path d="M2.65012 26.0078C2.73608 26.0078 2.77907 26.0078 2.76474 26.0078C2.76474 26.0078 2.75041 25.9649 2.76474 25.9219C2.60714 25.9219 2.57848 25.9505 2.66445 26.0078" fill="white"/>
<path d="M1.11742 26.2371V26.3088H1.07444C1.07444 26.2658 1.10309 26.2515 1.11742 26.2515M1.5186 27.4407C1.5186 27.4407 1.50427 27.5123 1.48994 27.5123C1.48994 27.5123 1.47561 27.5409 1.46128 27.5553C1.4183 27.5553 1.40397 27.5266 1.4183 27.4836C1.43263 27.4407 1.47561 27.4263 1.5186 27.4407ZM1.64754 27.0968C1.64754 27.0968 1.74783 27.0681 1.77649 27.1254C1.67619 27.1828 1.60456 27.1971 1.56158 27.1828C1.56158 27.1684 1.59023 27.1398 1.64754 27.0968ZM2.42122 25.8216C2.42122 25.8216 2.47853 25.6927 2.49286 25.6354C2.49286 25.5781 2.53585 25.5208 2.59316 25.4635C2.63614 25.4348 2.65047 25.4348 2.6648 25.4635C2.6648 25.4635 2.77941 25.3632 2.80807 25.2772H2.83672C2.79374 25.3918 2.76508 25.4778 2.75076 25.5637C2.75076 25.6497 2.70777 25.7214 2.65046 25.7787C2.65046 25.7643 2.65047 25.75 2.63614 25.7357C2.59316 25.879 2.53585 26.0222 2.47854 26.1512C2.37824 26.3661 2.32094 26.5667 2.30661 26.7386H2.33526C2.32094 26.8819 2.29228 27.0252 2.27795 27.1398C2.26362 27.2544 2.20631 27.3977 2.149 27.5553L2.19198 27.5839C2.19198 27.5839 2.16333 27.6699 2.20632 27.6985C2.2493 27.7272 2.2493 27.7559 2.20632 27.8132C2.17766 27.7845 2.16333 27.8132 2.13467 27.8132V27.8705L2.02006 27.8562C2.02006 27.8132 2.06304 27.8275 2.09169 27.8132C2.06304 27.8562 2.03439 27.8562 1.97708 27.8562C2.04871 27.7988 2.07736 27.7415 2.03438 27.6985C1.9914 27.6556 2.02006 27.6126 2.09169 27.5696H2.02006C2.02006 27.4693 2.04871 27.369 2.12035 27.2687C2.17766 27.1684 2.20631 27.0968 2.19198 27.0252C2.149 27.0252 2.10602 27.0252 2.06304 27.0538C2.02005 27.0825 2.00573 27.0825 1.9914 27.0538C1.94842 27.0825 1.93409 27.1111 1.93409 27.1398C1.93409 27.1684 1.90544 27.1971 1.84813 27.2114C1.81947 27.0681 1.84813 26.9392 1.91976 26.8389C1.9914 26.7386 2.04871 26.624 2.09169 26.5094C2.09169 26.4664 2.09169 26.4234 2.09169 26.3804C2.09169 26.3374 2.10602 26.2945 2.10602 26.2801C2.06304 26.2371 2.02006 26.1942 2.02006 26.1512C2.02006 26.0939 2.06304 26.0652 2.16333 26.0366C2.16333 25.9936 2.13468 25.9936 2.09169 26.0222C2.04871 26.0509 2.03438 26.0366 2.02006 26.0079C2.06304 25.9506 2.17766 25.9076 2.39257 25.836M3.05164 25.5637C3.05164 25.5637 3.05163 25.5208 3.10894 25.5637C3.10894 25.6067 3.10895 25.6354 3.05164 25.6211C2.99433 25.6211 2.96567 25.5924 2.98 25.5494C3.03731 25.6067 3.06597 25.6211 3.05164 25.5781M0.0858449 27.7272C0.0858449 27.7272 0.114498 27.8132 0.10017 27.8562C0.143153 27.8418 0.186135 27.8275 0.229118 27.7988C0.229118 27.8418 0.200464 27.8848 0.157481 27.9421C0.143154 27.9564 0.143153 27.9708 0.128826 27.9851C0.143153 28.0567 0.157482 28.1427 0.186137 28.2143C0.243447 28.3433 0.286425 28.4866 0.343735 28.6155C0.401045 28.6155 0.458355 28.6442 0.472683 28.6442C0.701923 28.6728 0.945493 28.7015 1.17473 28.7301C1.38965 28.7301 1.61888 28.7445 1.8338 28.7445C1.89111 28.7445 1.93409 28.7445 1.94842 28.7445C2.00573 28.7445 2.07737 28.7158 2.12035 28.7158C2.2493 28.6871 2.4069 28.6585 2.52152 28.6012C2.52152 28.6012 2.55018 28.5869 2.5645 28.5869C2.69345 28.5295 2.8224 28.4722 2.95135 28.4149C3.15193 28.3146 3.35251 28.2143 3.5531 28.0997C3.65339 28.0424 3.75368 27.9851 3.85398 27.9135C3.91129 27.8705 3.95427 27.8275 4.01158 27.7988C4.09754 27.7272 4.18351 27.6556 4.25515 27.5839C4.29813 27.5553 4.32679 27.498 4.35544 27.4693C4.36977 27.4407 4.38409 27.4263 4.36977 27.4407C4.36977 27.4407 4.3841 27.412 4.39842 27.3977C4.39842 27.3977 4.39842 27.3977 4.41275 27.369C4.45573 27.1971 4.52737 27.0395 4.61334 26.8962C4.71363 26.6097 4.81392 26.3374 4.91421 26.0509C5.07182 25.5494 5.14345 25.005 5.12912 24.4319C5.10047 24.1023 4.94287 23.8588 4.62766 23.7012C4.36977 23.7012 4.15485 23.7012 4.01158 23.7442C3.8683 23.7871 3.66772 23.8158 3.42415 23.8301C3.3955 23.8731 3.38117 23.9304 3.35251 23.9877C3.32386 24.045 3.26655 24.088 3.18059 24.1023C3.06597 24.1167 2.99433 24.1023 2.96567 24.1023C2.93702 24.088 2.86538 24.0594 2.75076 24.0594C2.7221 24.1023 2.67912 24.1597 2.60748 24.217C2.53585 24.2743 2.53585 24.3602 2.60748 24.4462C2.5645 24.4605 2.52152 24.4749 2.47854 24.4462C2.43555 24.4462 2.39257 24.4319 2.34959 24.4319C2.34959 24.4749 2.34959 24.5035 2.39257 24.5322C2.42122 24.5608 2.43556 24.5752 2.43556 24.6038C2.39257 24.6468 2.4069 24.6754 2.47854 24.6898C2.55017 24.7041 2.55018 24.7328 2.46421 24.7757C2.46421 24.6898 2.42122 24.6754 2.29228 24.7328C2.27795 24.7041 2.26362 24.6898 2.26362 24.6468C2.26362 24.6181 2.26362 24.6038 2.29228 24.6038C2.32093 24.5895 2.32093 24.5752 2.29228 24.5752H2.26362C2.3066 24.4749 2.29228 24.3602 2.22064 24.2456C2.13468 24.131 2.149 24.0307 2.26362 23.9304C2.07736 23.9877 2.00573 24.0594 2.02006 24.1453C2.03438 24.2313 2.02006 24.3316 1.97708 24.4319H1.84813C1.84813 24.4319 1.90543 24.5035 1.90543 24.5322C1.90543 24.5465 1.93409 24.5895 2.00573 24.6325C1.93409 24.6325 1.91976 24.6325 1.93409 24.6754C1.94842 24.7041 1.93409 24.7328 1.89111 24.7614H1.81947C1.81947 24.7614 1.89111 24.6754 1.89111 24.6325C1.77649 24.6325 1.73351 24.6181 1.76216 24.5895C1.79082 24.5752 1.76216 24.5608 1.73351 24.5608C1.73351 24.6468 1.64754 24.6468 1.46128 24.5608C1.51859 24.6038 1.53292 24.6325 1.46128 24.6181C1.40397 24.6181 1.37532 24.6181 1.37532 24.5895C1.37532 24.5465 1.37532 24.4892 1.40397 24.4175C1.4183 24.3459 1.40397 24.2886 1.33234 24.2313C1.33234 24.3029 1.28935 24.3316 1.18906 24.3173C1.31801 24.4319 1.33233 24.5322 1.21771 24.6325C1.11742 24.7184 1.08877 24.8187 1.14608 24.9047C1.10309 24.962 1.08877 25.0193 1.11742 25.0766C1.14608 25.1339 1.11742 25.1769 0.988474 25.2199C0.945491 25.2342 0.902509 25.2199 0.888182 25.1912C0.873854 25.1626 0.830872 25.1339 0.759234 25.1339C0.759234 25.2915 0.759237 25.3918 0.744909 25.4778C0.730582 25.5638 0.687597 25.6354 0.658942 25.75H0.687598C0.687598 25.75 0.658941 25.8503 0.601631 25.9219C0.544321 25.9936 0.558652 26.0795 0.644617 26.1655C0.673272 26.1512 0.687598 26.0939 0.687598 26.0079H0.744909C0.744909 26.0079 0.701926 25.9076 0.744909 25.836C0.787892 25.7643 0.845199 25.707 0.888182 25.664C0.931164 25.707 0.931164 25.7643 0.888182 25.836C0.845199 25.9076 0.802216 25.9649 0.730578 26.0079H0.759234C0.701924 26.1512 0.673272 26.2371 0.644617 26.2658C0.615962 26.2801 0.615959 26.2801 0.630286 26.2658C0.630286 26.2515 0.630288 26.2371 0.587306 26.2371C0.515668 26.2945 0.48701 26.3661 0.472683 26.4521C0.54432 26.4377 0.572977 26.4091 0.55865 26.3804C0.55865 26.3518 0.572979 26.3231 0.644617 26.3088L0.673273 26.3374C0.644618 26.4234 0.615961 26.5094 0.587306 26.6097C0.558651 26.7099 0.515665 26.7959 0.472683 26.8819C0.472683 27.0538 0.386723 27.1684 0.214793 27.2257L0.243443 27.2544C0.243443 27.2544 0.128823 27.369 0.114495 27.4836C0.100168 27.5983 0.0571856 27.6842 0.014203 27.7272H0.0858449C0.0858449 27.7272 0.0285329 27.7702 -0.00012207 27.7845L0.0858449 27.7272Z" fill="white"/>
</svg>
