<svg width="38" height="40" viewBox="0 0 38 40" fill="none" xmlns="http://www.w3.org/2000/svg">
<path d="M32.9614 3.80628C33.4608 3.13207 33.8853 2.57023 34.5221 1.70874C35.5334 4.36812 36.4448 6.75283 37.4062 9.29985C34.6969 9.49961 32.2248 9.6869 29.5029 9.89915C29.89 9.0876 30.1896 8.46333 30.4768 7.87652C22.9606 0.997071 10.1881 1.9959 0 10.1738C4.71947 2.23312 18.9778 -4.49649 32.9614 3.80628Z" fill="#E39242"/>
<path d="M4.64467 36.0809C4.14525 36.7302 3.72075 37.2795 3.084 38.1161C2.13511 35.4941 1.27362 33.1469 0.362183 30.6248C3.02157 30.4625 5.45622 30.3127 8.1156 30.1504C7.71607 30.937 7.41642 31.5488 7.14174 32.1231C14.4207 38.9651 26.9436 38.1785 37.0567 30.3002C32.3123 38.0162 18.2412 44.4212 4.65715 36.0685" fill="#E39242"/>
<path d="M28.2921 17.1283L28.3052 17.1152L28.2921 17.1283Z" fill="#E39242"/>
<path d="M28.4292 17.0043C28.4292 17.0043 28.4423 17.0043 28.4423 16.9912C28.4423 16.9912 28.4423 16.9912 28.4292 17.0043Z" fill="#E39242"/>
<path d="M28.9036 16.5162C28.9036 16.5162 28.9161 16.5037 28.9161 16.4912C28.9161 16.4912 28.9036 16.5037 28.9036 16.5162Z" fill="#E39242"/>
<path d="M28.8036 16.6293L28.8167 16.6162L28.8036 16.6293Z" fill="#E39242"/>
<path d="M17.1183 17.1283L17.1052 17.1152L17.1183 17.1283Z" fill="#E39242"/>
<path d="M16.7303 16.7535C16.7303 16.7535 16.7178 16.741 16.7053 16.7285C16.7053 16.7285 16.7178 16.741 16.7303 16.7535Z" fill="#E39242"/>
<path d="M16.6185 16.6293L16.6053 16.6162L16.6185 16.6293Z" fill="#E39242"/>
<path d="M16.5185 16.5162C16.5185 16.5162 16.506 16.5037 16.506 16.4912C16.506 16.4912 16.5185 16.5037 16.5185 16.5162Z" fill="#E39242"/>
<path d="M30.5141 17.3154C30.5141 17.3154 30.4516 17.3279 30.4142 17.3404C30.4516 17.3404 30.4891 17.3279 30.5141 17.3154Z" fill="#E39242"/>
<path d="M29.3656 17.5656C29.7526 17.4906 30.1272 17.4032 30.4019 17.3408C30.1397 17.4032 29.7526 17.4906 29.3656 17.5656Z" fill="#E39242"/>
<path d="M28.5673 16.8662C28.5673 16.8662 28.5673 16.8662 28.5542 16.8793C28.5542 16.8793 28.5542 16.8793 28.5673 16.8662Z" fill="#E39242"/>
<path d="M16.0436 17.5651C15.6067 17.4777 15.1572 17.3779 14.9075 17.3154C15.1697 17.3779 15.6067 17.4777 16.0436 17.5651Z" fill="#E39242"/>
<path d="M16.8426 16.8663C16.8426 16.8663 16.7677 16.7914 16.7302 16.7539C16.7677 16.7914 16.8051 16.8288 16.8426 16.8663Z" fill="#E39242"/>
<path d="M17.1051 17.1153C17.1051 17.1153 17.0177 17.0404 16.9802 17.0029C17.0177 17.0404 17.0676 17.0778 17.1051 17.1153Z" fill="#E39242"/>
<path d="M16.9676 16.9913C16.9676 16.9913 16.8927 16.9164 16.8552 16.8789C16.8927 16.9164 16.9301 16.9538 16.9676 16.9913Z" fill="#E39242"/>
<path d="M17.2423 17.2403C17.2423 17.2403 17.1674 17.1654 17.1174 17.1279C17.1549 17.1654 17.2048 17.2028 17.2423 17.2403Z" fill="#E39242"/>
<path d="M16.4931 16.4917C16.4931 16.4917 16.4432 16.4293 16.4182 16.4043C16.4307 16.4293 16.4557 16.4667 16.4931 16.4917Z" fill="#E39242"/>
<path d="M28.7042 16.7288C28.7042 16.7288 28.7667 16.6539 28.8041 16.6289C28.7791 16.6664 28.7417 16.6913 28.7042 16.7288Z" fill="#E39242"/>
<path d="M28.9164 16.4917C28.9164 16.4917 28.9663 16.4293 28.9913 16.4043C28.9788 16.4293 28.9538 16.4667 28.9164 16.4917Z" fill="#E39242"/>
<path d="M16.7052 16.7288C16.7052 16.7288 16.6428 16.6539 16.6053 16.6289C16.6303 16.6664 16.6678 16.6913 16.7052 16.7288Z" fill="#E39242"/>
<path d="M28.6788 16.7539C28.6788 16.7539 28.6039 16.8288 28.5664 16.8663C28.6039 16.8288 28.6413 16.7914 28.6788 16.7539Z" fill="#E39242"/>
<path d="M28.8164 16.6165C28.8164 16.6165 28.8788 16.5541 28.9038 16.5166C28.8788 16.5541 28.8414 16.579 28.8164 16.6165Z" fill="#E39242"/>
<path d="M16.6056 16.6165C16.6056 16.6165 16.5432 16.5541 16.5182 16.5166C16.5432 16.5541 16.5681 16.579 16.6056 16.6165Z" fill="#E39242"/>
<path d="M28.1793 17.2403C28.1793 17.2403 28.2542 17.1654 28.3042 17.1279C28.2667 17.1654 28.2168 17.2028 28.1793 17.2403Z" fill="#E39242"/>
<path d="M28.4414 16.9913C28.4414 16.9913 28.5163 16.9164 28.5538 16.8789C28.5163 16.9164 28.4789 16.9538 28.4414 16.9913Z" fill="#E39242"/>
<path d="M28.3042 17.1153C28.3042 17.1153 28.3916 17.0404 28.4291 17.0029C28.3916 17.0404 28.3417 17.0778 28.3042 17.1153Z" fill="#E39242"/>
<path d="M15.3448 17.1657C15.5695 17.1657 15.7693 16.9909 15.7693 16.7786C15.7693 16.5664 15.582 16.3916 15.3448 16.3916C15.1076 16.3916 14.9203 16.5664 14.9203 16.7786C14.9203 16.9909 15.1076 17.1657 15.3448 17.1657Z" fill="#E39242"/>
<path d="M3.10913 25.6182H4.4201V25.9428H3.48369V26.3298H4.20784V26.6669H3.48369V27.1289H4.44507V27.4535H3.10913V25.6182Z" fill="#E39242"/>
<path d="M4.70703 25.618H5.09408L5.88066 26.9789V25.618H6.25522V27.0163C6.25522 27.0163 6.25522 27.1037 6.25522 27.1537C6.25522 27.2036 6.25522 27.2286 6.24273 27.2535C6.23025 27.3035 6.20528 27.3409 6.19279 27.3659C6.16782 27.3909 6.15534 27.4158 6.13036 27.4283C6.10539 27.4408 6.08042 27.4533 6.05545 27.4533C6.03048 27.4533 6.00551 27.4533 5.99303 27.4533C5.91811 27.4533 5.85569 27.4283 5.80574 27.3909C5.7558 27.3534 5.69338 27.2785 5.63095 27.1661L5.09408 26.2797V27.4408H4.71952V25.6055L4.70703 25.618Z" fill="#E39242"/>
<path d="M8.19045 26.4426C8.19045 26.4426 8.30281 26.4426 8.36524 26.4176C8.42767 26.4051 8.47761 26.3802 8.51507 26.3427C8.56501 26.3053 8.58998 26.2678 8.62743 26.2179C8.65241 26.1679 8.66489 26.093 8.66489 26.0181C8.66489 25.9307 8.65241 25.8558 8.62743 25.7933C8.60246 25.7309 8.56501 25.6935 8.52755 25.656C8.4901 25.6186 8.42767 25.6061 8.37773 25.5936C8.3153 25.5936 8.26536 25.5811 8.20293 25.5811H7.79091V26.4426H8.20293H8.19045ZM7.2041 25.1191H8.26536C8.4027 25.1191 8.52755 25.1316 8.63992 25.1691C8.76477 25.2065 8.86466 25.2565 8.95205 25.3314C9.03945 25.4063 9.11436 25.4937 9.16431 25.6186C9.21425 25.7309 9.23922 25.8683 9.23922 26.0306C9.23922 26.1679 9.21425 26.2928 9.16431 26.4051C9.11436 26.5175 9.03945 26.6174 8.95205 26.6923C8.86466 26.7672 8.75229 26.8296 8.63992 26.8671C8.51507 26.9045 8.39021 26.9295 8.24039 26.9295H7.77843V27.8784H7.2041V25.1191Z" fill="#E39242"/>
<path d="M10.9623 26.6048L10.7001 25.6809C10.7001 25.6809 10.6627 25.5935 10.6377 25.581C10.6128 25.5685 10.5878 25.5561 10.5628 25.5561C10.5254 25.5561 10.5004 25.5561 10.4754 25.581C10.4504 25.606 10.438 25.631 10.4255 25.6809L10.1508 26.6048H10.9623ZM9.87611 25.606C9.90109 25.5186 9.93854 25.4437 9.96351 25.3688C10.001 25.3063 10.0509 25.2439 10.1009 25.194C10.1508 25.144 10.2257 25.1066 10.3006 25.0941C10.3755 25.0691 10.4754 25.0566 10.5753 25.0566C10.6752 25.0566 10.7751 25.0566 10.85 25.0941C10.9249 25.1191 10.9873 25.1565 11.0373 25.194C11.0872 25.2439 11.1247 25.2939 11.1621 25.3563C11.1996 25.4187 11.2245 25.4936 11.2495 25.5685L11.9237 27.7909L11.3494 27.9158L11.0997 27.0793H10.0135L9.76375 27.9158L9.2019 27.7909L9.86363 25.5935L9.87611 25.606Z" fill="#E39242"/>
<path d="M13.1844 26.3802C13.3342 26.3802 13.4466 26.3427 13.534 26.2803C13.6214 26.2179 13.6588 26.118 13.6588 25.9806C13.6588 25.8932 13.6463 25.8308 13.6214 25.7809C13.5964 25.7309 13.5714 25.6935 13.5215 25.656C13.484 25.631 13.4341 25.6061 13.3716 25.5936C13.3092 25.5936 13.2468 25.5811 13.1719 25.5811H12.7973V26.3802H13.1719H13.1844ZM12.2355 25.1191H13.2842C13.4216 25.1191 13.5464 25.1316 13.6588 25.1566C13.7712 25.1816 13.8711 25.2315 13.9585 25.2939C14.0459 25.3564 14.1083 25.4313 14.1582 25.5436C14.2082 25.6435 14.2331 25.7684 14.2331 25.9182C14.2331 26.0181 14.2206 26.1055 14.1832 26.1929C14.1582 26.2803 14.1083 26.3552 14.0583 26.4301C14.0084 26.4925 13.946 26.555 13.8711 26.6049C13.7961 26.6548 13.7212 26.6923 13.6463 26.7173C13.6838 26.7422 13.7337 26.7672 13.7587 26.8047C13.7961 26.8421 13.8336 26.8796 13.8711 26.9295L14.4828 27.6412L14.0459 27.9658L13.3592 27.1667C13.3592 27.1667 13.2718 27.0669 13.2343 27.0294C13.1968 26.9919 13.1719 26.967 13.1344 26.942C13.097 26.917 13.072 26.9045 13.047 26.9045C13.0221 26.9045 12.9846 26.9045 12.9471 26.9045H12.8098V27.9284H12.2355V25.1691V25.1191Z" fill="#E39242"/>
<path d="M15.3072 25.6061H14.4832V25.1191H16.7056V25.6061H15.8815V27.8784H15.3072V25.6061Z" fill="#E39242"/>
<path d="M17.0303 25.1191H19.0154V25.6061H17.5921V26.1929H18.6908V26.6798H17.5921V27.3915H19.0404V27.8784H17.0303V25.1191Z" fill="#E39242"/>
<path d="M20.6132 27.1287C20.7755 27.1287 20.9129 27.0787 21.0003 26.9913C21.0877 26.9039 21.1376 26.7541 21.1376 26.5419C21.1376 26.3296 21.0877 26.1798 21.0003 26.0924C20.9129 25.9925 20.7755 25.9551 20.6132 25.9551H20.2511V27.1412H20.6132V27.1287ZM19.8766 25.618H20.6382C20.7755 25.618 20.9129 25.6429 21.0252 25.6804C21.1376 25.7178 21.2375 25.7803 21.3124 25.8677C21.3873 25.9426 21.4497 26.0425 21.4872 26.1548C21.5247 26.2672 21.5496 26.392 21.5496 26.5294C21.5496 26.6667 21.5247 26.7916 21.4997 26.9039C21.4747 27.0163 21.4123 27.1162 21.3374 27.1911C21.2625 27.2785 21.1626 27.3409 21.0502 27.3784C20.9378 27.4283 20.8005 27.4408 20.6507 27.4408H19.8891V25.6055L19.8766 25.618Z" fill="#E39242"/>
<path d="M21.7994 25.6182H23.1229V25.9428H22.174V26.3298H22.8982V26.6669H22.174V27.1289H23.1354V27.4535H21.7994V25.6182Z" fill="#E39242"/>
<path d="M24.9835 26.4426C24.9835 26.4426 25.0959 26.4426 25.1583 26.4176C25.2208 26.4051 25.2582 26.3802 25.3082 26.3427C25.3581 26.3053 25.3831 26.2678 25.4205 26.2179C25.4455 26.1679 25.458 26.093 25.458 26.0181C25.458 25.9307 25.4455 25.8558 25.4205 25.7933C25.3956 25.7309 25.3581 25.6935 25.3206 25.656C25.2707 25.6186 25.2208 25.6061 25.1708 25.5936C25.1084 25.5936 25.0585 25.5811 24.996 25.5811H24.584V26.4426H24.996H24.9835ZM23.9972 25.1191H25.0585C25.1958 25.1191 25.3206 25.1316 25.433 25.1691C25.5454 25.2065 25.6577 25.2565 25.7451 25.3314C25.8325 25.4063 25.9075 25.4937 25.9574 25.6186C26.0073 25.7309 26.0323 25.8683 26.0323 26.0306C26.0323 26.1679 26.0073 26.2928 25.9574 26.4051C25.9075 26.5175 25.8325 26.6174 25.7451 26.6923C25.6577 26.7672 25.5454 26.8296 25.433 26.8671C25.3082 26.9045 25.1833 26.9295 25.0335 26.9295H24.5715V27.8784H23.9972V25.1191Z" fill="#E39242"/>
<path d="M27.7672 26.6048L27.505 25.6809C27.505 25.6809 27.4676 25.5935 27.4426 25.581C27.4176 25.5685 27.3927 25.5561 27.3677 25.5561C27.3303 25.5561 27.3053 25.5561 27.2803 25.581C27.2553 25.606 27.2429 25.631 27.2304 25.6809L26.9557 26.6048H27.7672ZM26.681 25.606C26.706 25.5186 26.7434 25.4437 26.7809 25.3688C26.8184 25.3063 26.8683 25.2439 26.9182 25.194C26.9682 25.144 27.0431 25.1066 27.118 25.0941C27.1929 25.0691 27.2928 25.0566 27.3927 25.0566C27.4926 25.0566 27.5924 25.0566 27.6674 25.0941C27.7423 25.1191 27.8047 25.1565 27.8546 25.194C27.9046 25.2439 27.9545 25.2939 27.9795 25.3563C28.0169 25.4187 28.0419 25.4936 28.0669 25.5685L28.7411 27.7909L28.1668 27.9158L27.9171 27.0793H26.8308L26.5811 27.9158L26.0193 27.7909L26.681 25.5935V25.606Z" fill="#E39242"/>
<path d="M30.252 26.3177H31.4006V27.6286C31.3382 27.6786 31.2633 27.716 31.1759 27.7535C31.0885 27.7909 31.0011 27.8284 30.9012 27.8534C30.8013 27.8783 30.7015 27.9033 30.6016 27.9158C30.5017 27.9283 30.3893 27.9408 30.2894 27.9408C30.0272 27.9408 29.815 27.9033 29.6402 27.8284C29.4654 27.7535 29.3156 27.6536 29.2157 27.5287C29.1033 27.4039 29.0284 27.2541 28.9785 27.0668C28.9285 26.892 28.9036 26.7047 28.9036 26.4925C28.9036 26.2802 28.941 26.0929 29.0034 25.9181C29.0659 25.7433 29.1658 25.5935 29.2906 25.4687C29.4155 25.3438 29.5653 25.2439 29.7526 25.169C29.9399 25.0941 30.1521 25.0566 30.3768 25.0566C30.5641 25.0566 30.7389 25.0691 30.8887 25.1066C31.0386 25.144 31.1884 25.194 31.3132 25.2439L31.1384 25.7059C31.0511 25.6684 30.9637 25.631 30.8887 25.6185C30.8138 25.5935 30.7514 25.581 30.689 25.5685C30.6265 25.5561 30.5766 25.5561 30.5142 25.5436C30.4518 25.5311 30.4143 25.5436 30.3519 25.5436C30.0897 25.5436 29.8774 25.631 29.7276 25.7808C29.5778 25.9431 29.4904 26.1803 29.4904 26.48C29.4904 26.8046 29.5528 27.0418 29.6901 27.1916C29.8275 27.3415 30.0148 27.4289 30.277 27.4289C30.3893 27.4289 30.5017 27.4289 30.5891 27.3914C30.6765 27.3664 30.7639 27.3415 30.8263 27.304V26.7796H30.252V26.2927V26.3177Z" fill="#E39242"/>
<path d="M32.7994 27.3662C32.8868 27.4162 32.9991 27.4411 33.124 27.4411C33.2488 27.4411 33.3612 27.4162 33.4486 27.3662C33.536 27.3163 33.6109 27.2539 33.6733 27.1665C33.7358 27.0791 33.7732 26.9792 33.8107 26.8668C33.8357 26.7544 33.8481 26.6296 33.8481 26.5047C33.8481 26.3799 33.8357 26.255 33.8107 26.1427C33.7857 26.0303 33.7358 25.9304 33.6733 25.843C33.6109 25.7556 33.536 25.6932 33.4486 25.6432C33.3612 25.5933 33.2488 25.5683 33.124 25.5683C32.9991 25.5683 32.8868 25.5933 32.7994 25.6432C32.712 25.6932 32.6371 25.7556 32.5746 25.843C32.5122 25.9304 32.4747 26.0303 32.4373 26.1427C32.4123 26.255 32.3998 26.3799 32.3998 26.5047C32.3998 26.7045 32.4373 26.8793 32.4997 27.0291C32.5621 27.1789 32.662 27.2913 32.7994 27.3662ZM32.0877 27.4911C31.9753 27.3537 31.9004 27.2039 31.863 27.0291C31.813 26.8543 31.8005 26.6795 31.8005 26.4922C31.8005 26.305 31.8255 26.1302 31.8755 25.9554C31.9254 25.7806 32.0003 25.6308 32.1127 25.4934C32.225 25.3561 32.3624 25.2562 32.5247 25.1688C32.6995 25.0814 32.8993 25.0439 33.1365 25.0439C33.3737 25.0439 33.5859 25.0814 33.7607 25.1688C33.9355 25.2437 34.0729 25.3561 34.1728 25.4934C34.2726 25.6308 34.3476 25.7806 34.3975 25.9554C34.4474 26.1302 34.4724 26.305 34.4724 26.4922C34.4724 26.6795 34.4474 26.8543 34.3975 27.0291C34.3476 27.2039 34.2726 27.3537 34.1603 27.4911C34.0479 27.6284 33.9106 27.7283 33.7483 27.8157C33.5859 27.8906 33.3737 27.9406 33.1365 27.9406C32.8993 27.9406 32.687 27.9031 32.5122 27.8157C32.3374 27.7408 32.2001 27.6284 32.1002 27.4911" fill="#E39242"/>
<path d="M30.7392 21.0732C30.7392 21.0732 30.7267 20.9358 30.7142 20.761C30.4895 20.8984 29.8278 21.2105 28.367 21.3229C26.4817 21.4602 20.9506 21.5102 20.9506 21.5102C20.9506 21.5102 16.0439 21.5601 14.5831 20.7111C14.5706 20.7111 14.5581 20.6986 14.5456 20.6736C14.5207 20.8859 14.5082 21.0357 14.5082 21.0732C14.5082 21.1731 14.2835 21.3104 14.2835 21.3104L14.221 20.8859C14.0962 18.7009 14.4707 18.3888 14.4707 18.3888C14.7704 18.1017 17.1176 18.3014 17.1176 18.3014C15.3697 18.3389 14.9826 18.5511 14.9826 18.5511C14.8952 18.7134 14.8203 18.9631 14.7579 19.2378C14.7704 19.2878 14.8328 19.4626 14.9951 19.5C15.1824 19.55 17.6295 20.0494 20.5137 20.0993C23.4977 20.1617 25.4579 20.0993 25.4579 20.0993C25.4579 20.0993 29.1286 20.0494 30.3022 19.5375C30.3022 19.5375 30.4645 19.4875 30.5269 19.4001C30.452 19.0505 30.3771 18.7384 30.2647 18.5511C30.2647 18.5511 29.8777 18.3389 28.1297 18.3014C28.1297 18.3014 30.4895 18.1141 30.7766 18.3888C30.7766 18.3888 31.1387 18.7009 31.0263 20.8859L30.9639 21.3104C30.9639 21.3104 30.7517 21.1731 30.7392 21.0732ZM31.1887 21.61C31.2511 21.3853 31.351 19.9869 31.351 19.9245C31.351 19.8621 31.326 19.3627 31.2885 19.113C31.2511 18.8633 31.2386 17.9269 31.2261 17.7271C31.2261 17.6397 31.2261 17.4399 31.2261 17.2152C31.1512 17.2277 31.0513 17.2526 30.914 17.2526C30.7766 17.2526 30.6393 17.2651 30.502 17.3026C30.4645 17.3026 30.4395 17.3151 30.4021 17.3276C30.1399 17.39 29.7528 17.4774 29.3658 17.5523C28.779 17.7521 27.9674 17.9518 26.8188 18.1266L24.1844 18.651C24.1844 18.651 24.1719 18.651 24.1594 18.676C24.1469 18.701 24.1095 18.7634 24.072 18.8258C23.9846 18.9881 23.8847 19.2004 23.7349 19.3502C23.4477 19.6498 22.9608 19.6873 22.6986 19.6873C22.4364 19.6873 21.9495 19.6498 21.6623 19.3502C21.5125 19.2004 21.4126 18.9881 21.3252 18.8258C21.3002 18.7634 21.2628 18.701 21.2503 18.676C21.2503 18.676 21.2503 18.6635 21.2503 18.651L18.5909 18.1266C17.4423 17.9518 16.6307 17.7521 16.0564 17.5523C15.6194 17.4649 15.1699 17.365 14.9202 17.3026C14.7829 17.2651 14.6455 17.2526 14.5082 17.2526C14.2959 17.2526 14.0837 17.1902 14.0213 17.1777C13.9588 17.6522 13.9464 18.214 13.9214 19.0381C13.8465 20.786 14.1711 21.7973 14.1711 21.7973C14.1961 21.9097 14.3709 21.8847 14.3709 21.8847C14.3709 22.8336 14.8203 22.8211 15.8067 22.8211C16.793 22.8211 16.843 22.0845 16.843 22.0845C19.7521 22.4091 28.3295 22.0845 28.3295 22.0845C28.5168 22.509 28.4294 22.8336 29.8153 22.8336C31.2011 22.8336 30.9764 22.0096 30.9764 22.0096C30.9764 22.0096 31.1512 21.8473 31.2136 21.6225" fill="#E39242"/>
<path d="M22.6238 18.514C22.1619 18.514 21.7873 18.2768 21.7873 17.9771C21.7873 17.6775 22.1619 17.4402 22.6238 17.4402C23.0858 17.4402 23.4603 17.6775 23.4603 17.9771C23.4603 18.2768 23.0858 18.514 22.6238 18.514ZM30.0526 15.5425C29.4284 15.9545 26.5567 16.766 22.7237 16.7785C22.7237 16.7785 22.6862 16.7785 22.6738 16.7785H22.6238C18.7908 16.766 15.9192 15.9545 15.2949 15.5425C15.1451 15.4426 14.9953 15.2553 14.8954 15.1055C14.808 15.2303 14.7206 15.3552 14.6332 15.505C15.1576 16.1418 16.4311 16.4164 16.4311 16.4164C16.456 16.4414 16.481 16.4789 16.506 16.5038C16.506 16.5038 16.5185 16.5163 16.5185 16.5288C16.5434 16.5663 16.5809 16.5912 16.6059 16.6287C16.6308 16.6661 16.6683 16.6911 16.7058 16.7286C16.7058 16.7286 16.7182 16.7411 16.7307 16.7535C16.7682 16.791 16.8056 16.8285 16.8431 16.8659C16.8431 16.8659 16.8431 16.8659 16.8556 16.8784C16.893 16.9158 16.9305 16.9533 16.9679 16.9908C16.9679 16.9908 16.9679 16.9908 16.9804 17.0032C17.0179 17.0407 17.0678 17.0782 17.1053 17.1156C17.1427 17.1531 17.1802 17.1905 17.2301 17.228C17.2676 17.2654 17.305 17.3029 17.3425 17.3279C17.7171 17.4153 18.1541 17.4902 18.666 17.5651L21.3253 18.0895C21.3253 18.0895 21.5501 18.1394 21.6874 18.3392C21.7249 18.4016 21.7623 18.4765 21.8123 18.5639C21.8747 18.6888 21.9621 18.8636 22.0495 18.951C22.1494 19.0508 22.3991 19.1133 22.6862 19.1133C22.9734 19.1133 23.2106 19.0508 23.323 18.951C23.4104 18.8636 23.4978 18.6888 23.5602 18.5639C23.6102 18.4765 23.6476 18.4016 23.6851 18.3392C23.8224 18.1394 24.0222 18.102 24.0596 18.0895L26.7065 17.5651C27.2184 17.4902 27.6679 17.4028 28.0425 17.3154C28.0799 17.2779 28.1174 17.253 28.1548 17.2155C28.1923 17.178 28.2298 17.1406 28.2797 17.1031C28.3172 17.0657 28.3671 17.0282 28.4046 16.9908C28.4046 16.9908 28.417 16.9908 28.417 16.9783C28.4545 16.9408 28.4919 16.9034 28.5294 16.8659C28.5294 16.8659 28.5294 16.8659 28.5419 16.8534C28.5793 16.816 28.6168 16.7785 28.6543 16.7411C28.6543 16.7411 28.6667 16.7286 28.6792 16.7161C28.7167 16.6786 28.7417 16.6412 28.7791 16.6162C28.8041 16.5787 28.8415 16.5538 28.8665 16.5163C28.8665 16.5163 28.879 16.5038 28.8915 16.4913C28.9165 16.4664 28.9414 16.4289 28.9664 16.4039C28.9664 16.4039 30.14 16.1917 30.6894 15.5799C30.602 15.4176 30.4771 15.2553 30.4022 15.118C30.3023 15.2678 30.1775 15.4301 30.0276 15.53" fill="#E39242"/>
<path d="M29.6528 16.7786C29.6528 16.9909 29.8401 17.1657 30.0773 17.1657C30.3146 17.1657 30.5018 16.9909 30.5018 16.7786C30.5018 16.5664 30.3146 16.3916 30.0773 16.3916C29.8401 16.3916 29.6528 16.5664 29.6528 16.7786Z" fill="#E39242"/>
<path d="M28.7036 13.5948C28.0169 13.6073 23.7344 13.7197 22.6857 13.7197C21.6369 13.7197 17.1671 13.5699 16.5179 13.5449C16.4804 13.5449 16.4555 13.5074 16.4679 13.47C16.805 12.5835 18.166 11.3724 18.4781 11.1102C18.5155 11.0728 18.578 11.0478 18.6279 11.0478H26.6435C26.6435 11.0478 26.7184 11.0478 26.7559 11.0728C27.6798 11.5847 28.5413 13.1329 28.7411 13.5199C28.766 13.5574 28.7411 13.6073 28.6911 13.6073M30.7013 13.0954C30.4141 12.8832 29.4527 12.8207 29.3154 12.9206C29.1656 13.008 29.3154 13.7447 29.3154 13.7447C29.3154 13.7447 29.253 13.7447 29.1656 13.6448C29.0782 13.5324 29.0782 13.5074 29.0782 13.5074C28.4539 12.184 27.1429 11.1352 26.8058 10.8231C26.4812 10.5109 25.0454 10.5734 25.0454 10.5734H23.3099C23.3099 10.5734 19.8515 10.486 18.7777 10.7107C17.704 10.9479 15.9311 13.8071 15.9311 13.8071V13.6947L16.0559 12.9331C16.0559 12.9081 16.0434 12.8832 16.006 12.8832C15.8562 12.8832 15.3942 12.9206 15.0321 13.008C14.72 13.0954 14.4952 13.3451 14.3954 13.4825C14.3579 13.5449 14.3454 13.6198 14.3954 13.6822C14.7325 14.1692 15.569 14.1941 15.569 14.1941C15.569 14.1941 15.4317 14.344 15.2194 14.6061C15.3068 14.7685 15.4566 15.0057 15.569 15.0806C16.0559 15.4052 18.8776 16.2168 22.6482 16.2168C26.4188 16.2168 29.228 15.3927 29.7274 15.0806C29.8398 15.0057 30.0021 14.756 30.077 14.5937C29.9022 14.3814 29.69 14.1442 29.69 14.1442C29.69 14.1442 30.3392 14.1192 30.6513 14.0318C30.9635 13.9444 31.1757 13.6073 31.1882 13.5699C31.1882 13.5324 31.0009 13.3077 30.7013 13.0954Z" fill="#E39242"/>
<path d="M8.50254 17.4532H10.8248C11.0121 17.4532 11.1619 17.603 11.1619 17.7903V18.889C11.1619 19.0763 11.0121 19.2261 10.8248 19.2261H8.50254C8.31526 19.2261 8.16544 19.0763 8.16544 18.889V17.7903C8.16544 17.603 8.31526 17.4532 8.50254 17.4532ZM9.63871 12.1344C9.77605 11.7848 10.213 11.4977 10.5876 11.4977H16.7803C17.0051 11.2604 17.2049 11.0357 17.3921 10.8359H10.1881C9.5638 10.8359 8.85213 11.3104 8.61491 11.8972L7.81585 13.8449L7.06673 13.6451C6.99181 13.6202 6.9169 13.6202 6.85447 13.6202C6.46743 13.6202 6.19275 13.9198 6.19275 14.3194V14.7314C6.19275 15.2058 6.5798 15.5929 7.05424 15.5929H7.10418L6.99181 15.8675C6.76708 16.4044 6.59228 17.3283 6.59228 17.9151V21.7981C6.59228 22.2725 6.97933 22.6596 7.45377 22.6596H8.47757C8.95202 22.6596 9.33906 22.2725 9.33906 21.7981V20.8492H13.3469V20.8118C13.3594 20.5246 13.3594 18.3771 13.4842 17.4906C13.6091 16.5418 14.1459 15.7552 14.1459 15.7552H8.85213C8.47757 15.7552 8.29029 15.468 8.42763 15.1184L9.63871 12.1594V12.1344Z" fill="#E39242"/>
</svg>
