<svg xmlns="http://www.w3.org/2000/svg" width="12" height="7" viewBox="0 0 12 7" fill="none">
  <path d="M11.5005 3.43084C11.5005 3.43084 11.5041 3.42239 11.4993 3.41033C11.4993 3.41033 11.4993 3.41033 11.4944 3.39827C11.424 3.25846 11.3657 3.11379 11.2953 2.97398C11.2807 2.93781 11.2541 2.9065 11.2395 2.87034C10.5735 2.48714 9.91461 2.08703 9.25216 1.69537C8.38854 1.44788 7.50693 1.24269 6.65644 0.940857C5.49023 1.26386 4.31701 1.67378 3.13805 2.19113C2.69917 2.35405 2.2567 2.52543 1.80343 2.72218C1.35016 2.91893 0.922463 3.19648 0.525186 3.56688C0.312157 3.78591 0.238056 4.05404 0.302885 4.37129C0.459111 4.56759 0.591035 4.70362 0.71917 4.7781C0.838848 4.84898 0.986425 4.97168 1.13653 5.13542C1.18115 5.12443 1.23784 5.10859 1.29452 5.09275C1.3512 5.0769 1.4176 5.08517 1.48293 5.14292C1.56518 5.20787 1.60154 5.26329 1.60406 5.30432C1.60659 5.34535 1.64295 5.40077 1.70954 5.47904C1.75417 5.46805 1.82057 5.47632 1.90749 5.48333C1.99081 5.49879 2.04982 5.45398 2.07248 5.35374C2.11477 5.37173 2.14141 5.40304 2.16445 5.4428C2.17903 5.47897 2.20207 5.51874 2.22871 5.55004C2.26002 5.52341 2.27441 5.48957 2.26829 5.457C2.26216 5.42443 2.27296 5.39906 2.28861 5.38574C2.34655 5.39041 2.35735 5.36503 2.32459 5.30116C2.29183 5.23728 2.30748 5.22396 2.38846 5.2684C2.32585 5.32167 2.34889 5.36144 2.45885 5.40821C2.44805 5.43358 2.43726 5.45896 2.41801 5.48073C2.3903 5.49891 2.37824 5.50377 2.36492 5.48812C2.33955 5.47733 2.32389 5.49064 2.33721 5.5063L2.35539 5.53401C2.25408 5.56084 2.18068 5.63949 2.15568 5.76869C2.13069 5.8979 2.0391 5.94884 1.89784 5.92871C2.04775 6.02244 2.15158 6.03664 2.20088 5.96771C2.25017 5.89878 2.32971 5.8527 2.43101 5.82588L2.50733 5.92826C2.512 5.87031 2.52639 5.83648 2.54204 5.82316C2.5577 5.80984 2.56363 5.77241 2.55858 5.69036C2.59854 5.73732 2.62391 5.74811 2.62984 5.71068C2.64423 5.67685 2.66835 5.66713 2.71064 5.68512L2.75059 5.73208C2.69265 5.72741 2.65162 5.72993 2.62031 5.75657C2.68691 5.83484 2.69789 5.87946 2.67251 5.86867C2.64714 5.85788 2.63994 5.87479 2.66298 5.91456C2.7256 5.86128 2.77528 5.93236 2.81921 6.11086C2.81056 6.03726 2.82622 6.02394 2.86131 6.05885C2.89281 6.10221 2.90253 6.12633 2.88688 6.13964C2.85557 6.16628 2.80375 6.19418 2.74833 6.23054C2.68445 6.2633 2.65926 6.32251 2.66791 6.39611C2.71487 6.35615 2.76562 6.37774 2.8189 6.44035C2.81726 6.27984 2.88707 6.20964 3.01987 6.22618C3.15268 6.24272 3.22861 6.2051 3.25127 6.10486C3.32487 6.09621 3.36823 6.06471 3.38982 6.01396C3.41141 5.96322 3.47295 5.95943 3.56725 6.01952C3.60954 6.03751 3.62772 6.06522 3.61333 6.09905C3.59894 6.13288 3.60992 6.17751 3.64988 6.22447C3.75459 6.11918 3.83286 6.05259 3.9016 6.03189C3.97394 6.00272 4.04987 5.9651 4.14632 5.92622L4.12814 5.89851C4.12814 5.89851 4.22459 5.85963 4.30664 5.85457C4.39716 5.85312 4.44286 5.79265 4.46066 5.68036C4.43528 5.66957 4.38346 5.69747 4.32084 5.75074L4.28089 5.70378C4.27622 5.76172 4.23286 5.79322 4.1472 5.80673C4.06155 5.82024 3.99155 5.82043 3.9372 5.8073C3.94187 5.74936 3.98037 5.7058 4.05757 5.6887C4.13476 5.67159 4.20477 5.6714 4.27243 5.70018L4.25425 5.67247C4.38687 5.61901 4.47612 5.59704 4.50509 5.59938C4.53047 5.61017 4.53892 5.61377 4.51355 5.60297C4.49304 5.60424 4.4943 5.62475 4.52094 5.65606C4.60785 5.66306 4.68505 5.64596 4.74407 5.60114C4.68846 5.5675 4.65103 5.56156 4.64023 5.58694C4.62584 5.62077 4.58841 5.61484 4.5364 5.57274L4.55439 5.53045C4.62186 5.48923 4.6978 5.45161 4.78219 5.41758C4.87018 5.3751 4.95097 5.34954 5.04023 5.32757C5.16186 5.22948 5.297 5.21704 5.43359 5.29512L5.45158 5.25283C5.51079 5.27802 5.59158 5.25245 5.68677 5.19305C5.78195 5.13366 5.85429 5.10449 5.90864 5.11762L5.86868 5.07066C5.92663 5.07533 5.98097 5.08846 6.04018 5.11364C6.09093 5.13523 6.14042 5.1363 6.17172 5.10966C6.13177 5.0627 6.09667 5.0278 6.05438 5.00981C6.01209 4.99182 5.9698 4.97383 5.92751 4.95584C5.95882 4.92921 6.00344 4.91822 6.07344 4.91803C6.14344 4.91784 6.17601 4.91172 6.20013 4.902C6.23541 5.0069 6.21256 5.03714 6.14723 4.97938C6.0783 4.93009 6.05779 4.93135 6.08209 4.99163C6.232 5.08536 6.3443 5.10316 6.42256 5.03657C6.44055 4.99428 6.44775 4.97736 6.46466 4.98456C6.46466 4.98456 6.48158 4.99175 6.49723 4.97843C6.44163 4.94479 6.39574 4.93526 6.36443 4.9619C6.33312 4.98853 6.28597 4.95849 6.21938 4.88022C6.25068 4.85358 6.29657 4.86311 6.35218 4.89676C6.38349 4.87012 6.37377 4.84601 6.34713 4.8147C6.3169 4.79185 6.29872 4.76414 6.30105 4.73517C6.34568 4.72419 6.40722 4.7204 6.48568 4.7238C6.56414 4.72721 6.639 4.73908 6.70667 4.76786L6.74896 4.78585C6.85746 4.74211 6.95391 4.70322 7.05036 4.66434C7.14194 4.6134 7.25657 4.60223 7.40629 4.62596C7.41728 4.67058 7.46317 4.68011 7.55728 4.6702C7.5463 4.62558 7.53298 4.60992 7.50527 4.6281C7.47756 4.64628 7.46064 4.63908 7.434 4.60778C7.43867 4.54983 7.46998 4.5232 7.50255 4.51707C7.54358 4.51455 7.54718 4.50609 7.53386 4.49044C7.48923 4.50142 7.45666 4.50754 7.4205 4.52212C7.38792 4.52825 7.35049 4.52231 7.29488 4.48867C7.35283 4.49334 7.39746 4.48236 7.44082 4.45086C7.48418 4.41936 7.52647 4.43735 7.57615 4.50842C7.6411 4.42618 7.73395 4.39575 7.84624 4.41355C7.81961 4.38224 7.84012 4.38098 7.89213 4.42308C7.94774 4.45672 7.96825 4.45546 7.95727 4.41083C7.93063 4.37953 7.90526 4.36873 7.88961 4.38205C7.87395 4.39537 7.84858 4.38458 7.8304 4.35687C7.82175 4.28327 7.87357 4.25537 7.98946 4.26471C8.02077 4.23807 8.0546 4.25246 8.09096 4.30788L8.044 4.34784L8.19498 4.39208C8.19498 4.39208 8.16582 4.31975 8.13685 4.31741C8.11147 4.30662 8.11147 4.30662 8.14278 4.27998C8.15844 4.26667 8.20073 4.28465 8.26965 4.33395C8.254 4.34727 8.23708 4.34007 8.22377 4.32442C8.21045 4.30877 8.19839 4.31363 8.17788 4.31489C8.20451 4.3462 8.22989 4.35699 8.26246 4.35087C8.29503 4.34474 8.29863 4.33629 8.27938 4.35806C8.30601 4.38937 8.29882 4.40629 8.25779 4.40881C8.21676 4.41134 8.21802 4.43185 8.2362 4.45956C8.28083 4.44858 8.32186 4.44605 8.35443 4.43993C8.39546 4.4374 8.42317 4.41922 8.45933 4.40464C8.43503 4.34436 8.4048 4.32151 8.36377 4.32404C8.31914 4.33502 8.30096 4.30731 8.30563 4.24937C8.36358 4.25404 8.41666 4.24665 8.46489 4.22721C8.51311 4.20777 8.56619 4.20038 8.62414 4.20505C8.5975 4.17375 8.58778 4.14963 8.59984 4.14477C8.59984 4.14477 8.60703 4.12786 8.59371 4.1122C8.63834 4.10122 8.71446 4.1336 8.82208 4.20934C8.81344 4.13574 8.85446 4.13322 8.93311 4.20663C9.01176 4.28004 9.05999 4.26059 9.06339 4.18214C9.00545 4.17746 8.95956 4.16793 8.92699 4.17406C8.88596 4.17658 8.85087 4.14168 8.79759 4.07906C8.83988 4.09705 8.87245 4.09093 8.8953 4.06069C8.91815 4.03046 8.96044 4.04845 9.01372 4.11106C9.01839 4.05312 9.00021 4.02541 8.95432 4.01588C8.90843 4.00635 8.91203 3.99789 8.96259 3.94947C8.98923 3.98078 9.011 4.00003 9.03278 4.01928C9.0497 4.02648 9.03998 4.00237 8.9867 3.93975C9.00235 3.92643 9.02413 3.94569 9.05923 3.98059C9.09432 4.0155 9.1161 4.03475 9.13175 4.02143L9.07362 3.94676C9.12058 3.9068 9.17726 3.89096 9.23161 3.90409L9.17347 3.82942C9.22043 3.78946 9.27964 3.81464 9.34264 3.90137L9.29568 3.94133C9.29568 3.94133 9.32591 3.96418 9.33437 3.96777C9.34283 3.97137 9.3682 3.98217 9.39124 4.02193C9.44919 4.0266 9.45278 4.01814 9.40563 3.9881C9.35488 3.96651 9.3367 3.9388 9.35236 3.92548C9.43694 3.96146 9.50461 3.99024 9.56255 3.99491C9.62049 3.99958 9.67124 4.02117 9.71353 4.03916L9.69536 4.01145L9.73765 4.02944C9.69895 4.00299 9.66512 3.9886 9.63615 3.98626C9.61077 3.97547 9.56848 3.95748 9.50928 3.9323C9.58521 3.89468 9.67572 3.89322 9.7711 3.90383C9.87493 3.91803 9.93162 3.90218 9.9496 3.85989L10.145 3.82316C10.1051 3.77619 10.1038 3.75568 10.1376 3.77007C10.1715 3.78446 10.1751 3.776 10.152 3.73624C10.1364 3.74956 10.111 3.73876 10.0928 3.71105C10.0795 3.6954 10.059 3.69666 10.0469 3.70152C10.1049 3.70619 10.158 3.69881 10.2098 3.67091C10.2616 3.64301 10.3703 3.66926 10.5202 3.763C10.4849 3.65809 10.4993 3.62426 10.5549 3.6579C10.6105 3.69154 10.6311 3.69028 10.6201 3.64565C10.7167 3.67677 10.8072 3.67532 10.8832 3.6377C10.9591 3.60008 11.0519 3.56965 11.1532 3.54282L11.1351 3.51511C11.2848 3.53885 11.403 3.51921 11.5079 3.48393L11.5005 3.43084ZM8.39954 2.83098C8.4465 2.79103 8.48753 2.7885 8.51057 2.82827C8.50356 2.91518 8.47099 2.92131 8.39954 2.83098ZM7.84256 2.61404C7.9077 2.6018 7.96924 2.59801 8.02719 2.60268C8.04051 2.61833 8.05742 2.62553 8.08639 2.62786C8.11177 2.63866 8.13948 2.62048 8.16593 2.58179C8.18878 2.55155 8.20803 2.52977 8.22368 2.51646C8.23933 2.50314 8.25265 2.51879 8.27569 2.55856C8.29873 2.59832 8.29261 2.56575 8.2791 2.4801C8.36368 2.51607 8.42289 2.54126 8.44826 2.55205C8.47364 2.56285 8.50747 2.57724 8.54383 2.63266C8.46556 2.69925 8.39916 2.69098 8.34588 2.62837C8.28327 2.68164 8.19402 2.70361 8.09018 2.68941C7.98275 2.68366 7.85967 2.69124 7.72939 2.71573C7.73406 2.65779 7.76896 2.62269 7.84256 2.61404ZM8.32487 2.88912C8.26225 2.94239 8.19945 2.92567 8.13645 2.83894C8.1944 2.84361 8.22337 2.84594 8.22211 2.82543C8.2257 2.81697 8.25594 2.83982 8.32847 2.88066L8.32487 2.88912ZM5.7767 3.64313C5.85389 3.62602 5.93721 3.64148 6.03152 3.70157C5.95792 3.71022 5.87712 3.73578 5.78194 3.79518C5.68675 3.85458 5.60937 3.80169 5.56183 3.63164C5.6295 3.66042 5.6995 3.66023 5.7767 3.64313ZM5.37158 3.35094L5.42972 3.42562C5.38276 3.46557 5.33687 3.45604 5.29691 3.40908L5.37158 3.35094ZM3.11907 4.09087C3.11907 4.09087 3.0516 4.13209 2.99491 4.14794C2.95729 4.072 2.97528 4.02971 3.04888 4.02106C3.12248 4.01241 3.17683 4.02554 3.21912 4.04353C3.17449 4.05451 3.13832 4.0691 3.11421 4.07882L3.11907 4.09087ZM3.05576 4.33364C3.05576 4.33364 3.10632 4.28522 3.10992 4.27676C3.11712 4.25985 3.1353 4.28756 3.18857 4.35017C3.19488 4.45274 3.14899 4.44321 3.05576 4.33364ZM3.25497 4.35844C3.25497 4.35844 3.22726 4.37662 3.21628 4.33199C3.23427 4.2897 3.26324 4.29204 3.29474 4.3354C3.32624 4.37876 3.3239 4.40774 3.29259 4.43437C3.28395 4.36077 3.27422 4.33666 3.25138 4.3669L3.25497 4.35844ZM3.52621 4.68357C3.44289 4.66811 3.35363 4.69007 3.25359 4.73742L3.23541 4.70971C3.327 4.65877 3.40653 4.61269 3.46555 4.56787C3.52816 4.5146 3.5969 4.49389 3.6705 4.48524C3.65882 4.63011 3.60107 4.69544 3.51775 4.67997L3.52621 4.68357ZM5.21695 4.18414C5.15901 4.17947 5.13237 4.14816 5.14064 4.08176C5.24087 4.10442 5.30494 4.14166 5.33158 4.17297C5.31592 4.18628 5.27489 4.18881 5.21695 4.18414ZM5.45264 3.86487C5.43105 3.91562 5.39002 3.91815 5.32109 3.86885L5.36105 3.91581C5.26946 3.96675 5.16329 3.98152 5.05586 3.97578C4.94843 3.97004 4.87124 3.98714 4.82787 4.01864C4.83886 4.06327 4.86549 4.09458 4.90419 4.12102C4.94648 4.13901 4.9598 4.15466 4.94414 4.16798C4.98643 4.18597 5.01541 4.18831 5.04312 4.17013C5.07082 4.15195 5.0962 4.16274 5.13616 4.2097C5.03018 4.29448 4.91321 4.33462 4.80092 4.31682C4.68863 4.29903 4.56914 4.29814 4.45092 4.31777C4.41961 4.34441 4.38344 4.35899 4.33882 4.36998C4.29419 4.38096 4.26162 4.38708 4.24597 4.4004C4.2413 4.45835 4.21485 4.49704 4.17994 4.53214C4.13658 4.56363 4.08583 4.54205 4.01924 4.46378C3.98793 4.49042 3.99765 4.51453 4.03149 4.52892C4.07378 4.54691 4.07504 4.56742 4.04373 4.59406C3.98579 4.58939 3.88176 4.50519 3.74498 4.35711C3.67138 4.36576 3.60984 4.36954 3.55316 4.38539C3.49647 4.40123 3.43853 4.39656 3.37086 4.36778C3.32857 4.34979 3.31525 4.33414 3.33091 4.32082C3.34656 4.3075 3.3453 4.28699 3.31866 4.25568C3.53819 4.20922 3.75899 4.18327 3.98465 4.16938C4.20184 4.1519 4.38881 4.11156 4.54553 4.04837L4.52735 4.02066C4.65997 3.9672 4.78899 3.92219 4.8903 3.89537C4.99161 3.86854 5.13394 3.83919 5.29319 3.81703L5.30759 3.7832C5.30759 3.7832 5.38478 3.76609 5.3774 3.713C5.37847 3.66352 5.40618 3.64534 5.47744 3.66566C5.47277 3.72361 5.48735 3.75978 5.53684 3.76085C5.58273 3.77038 5.60451 3.78963 5.61549 3.83426C5.53091 3.79828 5.47782 3.80566 5.45624 3.85641L5.45264 3.86487ZM5.52428 4.0252C5.52428 4.0252 5.5797 3.98884 5.58816 3.99244C5.59662 3.99603 5.62073 3.98631 5.63279 3.98145C5.65942 4.01276 5.64863 4.03814 5.61246 4.05272C5.57629 4.0673 5.53886 4.06137 5.51223 4.03006L5.52428 4.0252ZM5.06377 5.10785L5.08895 5.04864L5.12891 5.0956C5.0976 5.12224 5.07709 5.1235 5.06377 5.10785ZM6.31588 3.97236C6.31588 3.97236 6.2871 4.04002 6.24733 4.06306C6.11307 3.95601 6.00438 3.92975 5.9333 3.97943C5.85377 4.02551 5.76685 4.0185 5.66895 3.96687C5.70026 3.94023 5.73283 3.93411 5.78232 3.93518C5.81975 3.94112 5.83054 3.91574 5.79059 3.86878C5.88956 3.87093 6.00059 3.86821 6.10676 3.85344C6.21779 3.85072 6.33854 3.87212 6.46181 3.93454C6.37489 3.92754 6.33027 3.93852 6.31588 3.97236ZM8.35946 3.18351C8.23764 3.2116 8.13867 3.20946 8.05768 3.16502C7.9517 3.24979 7.81909 3.30326 7.66703 3.3085C7.52343 3.31734 7.37137 3.32258 7.22417 3.33988C7.24848 3.40016 7.27871 3.42301 7.31974 3.42048C7.36437 3.4095 7.3982 3.42389 7.42124 3.46365C7.27998 3.44352 7.17381 3.45829 7.09787 3.49591C7.0304 3.53713 6.92909 3.56396 6.81446 3.57513L6.71637 3.4535C6.71637 3.4535 6.66455 3.4814 6.69478 3.50425C6.72502 3.5271 6.76012 3.562 6.78675 3.59331C6.67213 3.60448 6.5539 3.62412 6.43082 3.63169C6.31259 3.65132 6.19437 3.67096 6.07381 3.71956C6.03385 3.6726 6.00721 3.64129 5.98184 3.6305C5.95646 3.61971 5.93955 3.61251 5.92983 3.5884C6.02141 3.53746 6.09735 3.49984 6.15636 3.45502C6.21538 3.4102 6.30104 3.3967 6.41333 3.41449C6.44464 3.38786 6.46875 3.37814 6.49286 3.36842C6.51337 3.36715 6.56053 3.3972 6.62352 3.48392C6.64151 3.44163 6.63539 3.40906 6.61235 3.3693C6.58931 3.32953 6.58445 3.31748 6.6001 3.30416L6.67642 3.40654C6.76674 3.33508 6.86805 3.30826 6.98034 3.32606C7.08903 3.35231 7.19394 3.31703 7.31197 3.22739L7.33015 3.2551L7.40482 3.19697C7.77642 3.14527 8.13469 3.07791 8.47118 2.99131L8.52932 3.06598C8.52932 3.06598 8.55469 3.07677 8.56675 3.07191C8.53311 3.12752 8.45717 3.16514 8.33535 3.19323L8.35946 3.18351ZM8.88178 2.63657C8.80818 2.64521 8.73818 2.6454 8.66458 2.65405C8.66925 2.59611 8.71261 2.56461 8.79827 2.5511C8.88392 2.53759 8.95752 2.52894 9.02752 2.52875C8.99874 2.59642 8.96024 2.63997 8.88178 2.63657ZM8.97558 2.95614L8.9574 2.92843C8.9574 2.92843 9.04665 2.90647 9.08282 2.89189C9.11899 2.8773 9.16974 2.89889 9.21941 2.96996C9.17479 2.98095 9.13376 2.98347 9.10839 2.97268C9.08301 2.96189 9.04198 2.96441 8.97558 2.95614ZM8.95987 3.83844C8.90912 3.81686 8.85244 3.8327 8.76805 3.86673C8.81501 3.82677 8.86683 3.79887 8.92225 3.76251C8.97407 3.73461 9.04048 3.74288 9.10581 3.80063C9.05885 3.84059 9.00576 3.84798 8.95987 3.83844ZM9.53578 3.02462C9.53578 3.02462 9.54404 2.95822 9.58867 2.94724C9.63329 2.93625 9.67559 2.95424 9.71554 3.0012C9.65526 3.02551 9.59372 3.02929 9.53937 3.01617L9.53578 3.02462ZM9.50327 3.50024C9.50327 3.50024 9.48888 3.53407 9.45758 3.56071C9.4322 3.54991 9.40683 3.53912 9.39837 3.53552L9.37066 3.5537C9.37066 3.5537 9.37407 3.47524 9.41023 3.46066C9.4464 3.44608 9.48743 3.44356 9.52972 3.46154C9.51407 3.47486 9.50687 3.49178 9.51173 3.50384L9.50327 3.50024ZM10.0351 2.9074C10.0351 2.9074 9.96745 2.87862 9.93615 2.90526L9.95414 2.86297C9.99264 2.81941 10.0554 2.83614 10.1341 2.90955C10.1028 2.93618 10.0738 2.93385 10.0351 2.9074ZM10.1645 3.0024C10.1645 3.0024 10.1368 3.02058 10.1053 2.97721C10.1307 2.98801 10.1463 2.97469 10.1656 2.95291C10.1728 2.93599 10.1933 2.93473 10.2163 2.9745C10.191 2.9637 10.1717 2.98548 10.1694 3.01445L10.1645 3.0024Z" fill="white"/>
</svg>