<svg width="50" height="24" viewBox="0 0 50 24" fill="none" xmlns="http://www.w3.org/2000/svg">
<path d="M4.58201 17.6797H-0.00012207V18.691H1.6854V23.0109H2.884V18.691H4.58201V17.6797Z" fill="#EF872D"/>
<path d="M9.06445 21.1998C8.87716 21.6742 8.46515 22.0113 7.95325 22.1112C7.86585 22.1237 7.76597 22.1362 7.67857 22.1362C7.59117 22.1362 7.49129 22.1362 7.40389 22.1112C6.90447 22.0238 6.47997 21.6742 6.29269 21.1998C6.19281 20.9376 6.13038 20.6504 6.13038 20.3383C6.13038 20.0262 6.19281 19.7515 6.29269 19.4893C6.47997 19.0273 6.89199 18.6777 7.40389 18.5779C7.49129 18.5654 7.59117 18.5529 7.67857 18.5529C7.76597 18.5529 7.86585 18.5529 7.95325 18.5779C8.46515 18.6653 8.87716 19.0148 9.06445 19.4893C9.16433 19.7515 9.22675 20.0386 9.22675 20.3383C9.22675 20.6379 9.17681 20.9376 9.06445 21.1998ZM7.67857 17.5166C6.1179 17.5166 4.85687 18.7776 4.85687 20.3383C4.85687 21.899 6.1179 23.16 7.67857 23.16C9.23924 23.16 10.5127 21.899 10.5127 20.3383C10.5127 18.7776 9.25173 17.5166 7.67857 17.5166Z" fill="#EF872D"/>
<path d="M10.5253 17.6797H11.9361L13.2596 19.977L14.583 17.6797H15.9939L13.8589 21.0383V23.0109H12.6603V21.0383L10.5253 17.6797Z" fill="#EF872D"/>
<path d="M18.8401 22.1364C18.9275 22.1364 19.0274 22.1364 19.1148 22.1114C19.6142 22.024 20.0387 21.6744 20.226 21.2C20.3259 20.9378 20.3883 20.6506 20.3883 20.3385C20.3883 20.0264 20.3259 19.7517 20.226 19.4895C20.0387 19.0151 19.6267 18.678 19.1148 18.5781C19.0274 18.5656 18.9275 18.5531 18.8401 18.5531C18.7527 18.5531 18.6528 18.5531 18.5654 18.5781C18.0535 18.6655 17.6415 19.0151 17.4542 19.4895C17.3543 19.7517 17.2919 20.0389 17.2919 20.3385C17.2919 20.6382 17.3543 20.9253 17.4542 21.2C17.6415 21.6744 18.0535 22.0115 18.5654 22.1114C18.6528 22.1239 18.7527 22.1364 18.8401 22.1364ZM16.0059 20.351C16.0059 18.7903 17.2794 17.5293 18.8401 17.5293C20.4008 17.5293 21.6618 18.7903 21.6618 20.351C21.6618 21.9117 20.4008 23.1727 18.8401 23.1727C17.2794 23.1727 16.0059 21.9117 16.0059 20.351Z" fill="#EF872D"/>
<path d="M29.8527 20.9009L29.0661 18.7909L28.2795 20.9009H29.8527ZM30.2022 21.8373H27.9299L27.4929 23.0109H26.157L28.317 17.6797H29.8152L31.9752 23.0109H30.6392L30.2022 21.8373Z" fill="#EF872D"/>
<path d="M26.5189 17.6797H21.9243V18.691H23.6223V23.0109H24.8209V18.691H26.5189V17.6797Z" fill="#EF872D"/>
<path d="M33.8476 22.9856V17.6543H35.3458V21.737H37.8929V22.9856H33.8476Z" fill="#EF872D"/>
<path d="M39.8657 17.6543H38.3674V22.9856H39.8657V17.6543Z" fill="#EF872D"/>
<path d="M40.7523 22.9856V17.6543H44.7352V18.8903H42.2256V19.652H44.1483V20.888H42.2256V22.9856H40.7523Z" fill="#EF872D"/>
<path d="M45.3965 22.9856V17.6543H49.3794V18.8903H46.8573V19.602H48.7926V20.8381H46.8573V21.7495H49.4418V22.9856H45.3965Z" fill="#EF872D"/>
<path d="M15.5568 9.86345C15.5568 10.0882 15.3695 10.288 15.1323 10.288H12.3106C12.0734 10.288 11.8861 10.1007 11.8861 9.86345V8.52751C11.8861 8.30278 12.0734 8.1155 12.3106 8.1155H15.1323C15.357 8.1155 15.5568 8.30278 15.5568 8.52751V9.86345ZM18.2536 10.5876C18.2536 10.3629 18.2786 10.1506 18.2786 9.95085C18.341 8.27781 18.3785 7.44129 19.0652 6.2302C19.1151 6.14281 19.1651 6.05541 19.215 5.9805H12.7351C12.2731 5.9805 12.0359 5.63091 12.2107 5.2064L13.6965 1.59813C13.8713 1.17363 14.3956 0.824035 14.8576 0.824035H23.1229C23.1229 0.824035 23.1729 0.824035 23.1854 0.824035C23.2353 0.774093 23.2603 0.749123 23.2603 0.749123C23.6473 0.387047 23.9594 0.149825 24.2216 0H14.3707C13.5966 0 12.7351 0.574327 12.4479 1.28599L11.4741 3.65822L10.5626 3.40851C10.4752 3.38354 10.3878 3.37105 10.3004 3.37105C9.826 3.37105 9.48889 3.73313 9.48889 4.22006V4.71947C9.48889 5.2938 9.96334 5.76824 10.5377 5.76824H10.6001L10.4628 6.10535C10.1881 6.76708 9.97582 7.89076 9.97582 8.60243V13.3469C9.97582 13.9212 10.4503 14.3956 11.0246 14.3956H12.2856C12.8599 14.3956 13.3344 13.9212 13.3344 13.3469V12.1857H18.2287L18.2786 12.0734C18.2536 11.6364 18.2411 11.1245 18.2786 10.5626" fill="#EF872D"/>
<path d="M23.2599 0.774414C23.2599 0.774414 23.2225 0.81187 23.185 0.849326C23.21 0.824356 23.2349 0.799385 23.2599 0.774414Z" fill="#EF872D"/>
<path d="M23.2225 0.849326L23.2599 0.774414C23.2599 0.774414 23.21 0.824356 23.185 0.849326C23.1975 0.849326 23.21 0.849326 23.2349 0.849326" fill="#EF872D"/>
<path d="M24.9334 8.21538C24.0095 8.06556 23.148 7.91573 22.7235 7.84082C22.9233 8.04059 23.1106 8.21538 23.2104 8.30278C23.3228 8.31526 23.4477 8.32775 23.585 8.35272C24.1718 8.42763 24.6962 8.49006 25.1457 8.55249L24.9584 8.24035H24.9459V8.21538H24.9334Z" fill="#EF872D"/>
<path d="M37.1562 7.04199C36.5319 7.21679 35.7079 7.40407 34.6466 7.56638L34.4094 7.95342C34.4094 7.95342 34.3844 7.9784 34.3594 7.99088L31.1008 8.54024C31.1008 8.54024 31.1008 8.54024 31.0883 8.54024C31.0758 8.54024 31.0883 8.54024 31.0758 8.54024C31.0758 8.54024 31.0758 8.55272 31.0633 8.56521C31.0508 8.59018 31.0383 8.61515 31.0134 8.65261C31.4878 8.59018 34.7215 8.04082 36.5694 7.72869C36.7941 7.49147 37.0188 7.24176 37.1562 7.05448" fill="#EF872D"/>
<path d="M34.2348 8.24035L34.0475 8.55249C34.497 8.49006 35.0214 8.42763 35.6082 8.35272C35.7456 8.34024 35.8704 8.31526 35.9828 8.30278C36.0827 8.21538 36.2699 8.04059 36.4697 7.84082C36.0452 7.91573 35.1837 8.06556 34.2598 8.21538V8.24035H34.2473H34.2348Z" fill="#EF872D"/>
<path d="M39.8035 12.8853L39.7161 13.4096C39.7161 13.4096 39.4539 13.2473 39.4414 13.1225C39.4414 13.0975 39.4289 12.9477 39.4039 12.7354C39.1293 12.8977 38.3177 13.2848 36.5323 13.4221C34.235 13.5844 27.4804 13.6594 27.4804 13.6594C27.4804 13.6594 21.4749 13.7218 19.702 12.6855C19.677 12.6855 19.6646 12.673 19.6521 12.6356C19.6271 12.8977 19.6146 13.085 19.6021 13.1225C19.5896 13.2473 19.3275 13.4096 19.3275 13.4096L19.2401 12.8853C19.0902 10.2134 19.5397 9.83883 19.5397 9.83883C19.9018 9.48924 22.7734 9.72646 22.7734 9.72646C20.6384 9.7764 20.1765 10.0386 20.1765 10.0386C20.0766 10.2259 19.9767 10.538 19.9018 10.8751C19.9143 10.9375 19.9892 11.1498 20.1889 11.1997C20.4262 11.2622 23.4102 11.8739 26.9186 11.9364C30.5643 12.0113 32.9615 11.9364 32.9615 11.9364C32.9615 11.9364 37.4437 11.8739 38.8796 11.2497C38.8796 11.2497 39.0668 11.1872 39.1542 11.0749C39.0668 10.6504 38.967 10.2633 38.8421 10.0386C38.8421 10.0386 38.3801 9.7764 36.2451 9.72646C36.2451 9.72646 39.1168 9.48924 39.4789 9.83883C39.4789 9.83883 39.9283 10.2134 39.7785 12.8853M40.1656 11.6242C40.1656 11.5618 40.1656 11.4744 40.1656 11.387C40.1656 11.362 40.1656 11.3371 40.1656 11.3121C40.1656 11.2622 40.1656 11.2122 40.1656 11.1623C40.1656 11.1373 40.1656 11.1123 40.1656 11.0874C40.1656 11.0374 40.1656 10.9875 40.1531 10.9375C40.1531 10.8626 40.1406 10.8002 40.1281 10.7378C40.1156 10.6254 40.1031 10.3882 40.0906 10.1385C40.0906 10.0511 40.0906 9.96368 40.0906 9.87628C40.0906 9.82634 40.0906 9.78888 40.0906 9.73894C40.0906 9.43929 40.0782 9.15213 40.0657 9.05225C40.0657 9.02728 40.0657 8.97733 40.0657 8.92739C40.0657 8.85248 40.0657 8.7526 40.0657 8.65271C40.0657 8.50289 40.0657 8.34058 40.0657 8.17827V8.05342C40.0657 7.96602 40.0657 7.89111 40.0657 7.81619C40.0657 7.74128 40.0657 7.66637 40.0532 7.60394C40.0532 7.54152 40.0407 7.47909 40.0157 7.42915C40.0032 7.36672 39.9783 7.30429 39.9533 7.24187C39.9533 7.22938 39.9408 7.20441 39.9283 7.19193C39.9034 7.14198 39.8784 7.09204 39.8534 7.0421C39.8534 7.0421 39.8534 7.02962 39.8409 7.01713C39.8035 6.96719 39.766 6.91725 39.741 6.86731C39.7036 6.81736 39.6661 6.75494 39.6287 6.705C39.6287 6.705 39.6287 6.69251 39.6162 6.68002C39.6412 6.72997 39.6537 6.77991 39.6661 6.84234C39.766 7.16695 39.9034 7.75377 39.8409 7.9785C39.8409 7.9785 39.6661 8.05342 39.3915 8.05342C39.2416 8.05342 39.0793 8.07839 38.9295 8.11584C38.3677 8.26567 36.9943 8.61526 36.4199 8.60277C36.4199 8.60277 36.2451 8.46543 36.0454 8.40301C35.933 8.41549 35.7957 8.44046 35.6334 8.45295C34.8218 8.55283 33.3985 8.74011 32.2998 8.88994L30.7391 9.12716C30.7391 9.12716 30.7266 9.13964 30.7141 9.15213C30.5144 9.36438 30.1273 9.47675 29.6653 9.47675C29.2783 9.47675 28.7414 9.38935 28.5042 9.15213C28.5042 9.15213 28.4917 9.13964 28.4792 9.12716H28.4543L26.981 8.90242C25.8823 8.7526 24.4215 8.56532 23.5975 8.46543C23.4351 8.44046 23.2978 8.42798 23.1854 8.41549C22.9982 8.47792 22.8109 8.61526 22.8109 8.61526C22.2366 8.61526 20.8756 8.27815 20.3013 8.12833C20.1515 8.09087 20.0017 8.0659 19.8394 8.0659C19.5647 8.0659 19.3899 7.99099 19.3899 7.99099C19.315 7.76625 19.4648 7.17944 19.5647 6.85482C19.6021 6.71748 19.6646 6.59263 19.727 6.46777C19.702 6.51771 19.6646 6.56766 19.6396 6.6176C19.265 7.29181 19.1027 7.80371 19.0278 8.51538C19.0153 8.67769 19.0028 8.84 18.9904 9.01479C18.9654 9.46426 18.9529 9.98865 18.9154 10.6629C18.9154 10.9251 18.903 11.1872 18.903 11.4245C18.903 11.8989 18.9279 12.3234 18.9779 12.673C18.9779 12.7604 19.0028 12.8478 19.0028 12.9227C19.0278 13.085 19.0403 13.2224 19.0653 13.3597C19.1027 13.547 19.1277 13.6968 19.1527 13.8092C19.1901 13.959 19.2151 14.0339 19.2151 14.0339C19.2151 14.0464 19.2151 14.0589 19.2401 14.0839C19.2525 14.1088 19.2775 14.1213 19.315 14.1338C19.3275 14.1338 19.3399 14.1338 19.3524 14.1338C19.4149 14.1338 19.4648 14.1338 19.4648 14.1338C19.4648 14.2087 19.4648 14.2711 19.4648 14.3336C19.4648 14.4584 19.4898 14.5708 19.5147 14.6707C19.5647 14.8579 19.6521 14.9953 19.7769 15.0827C20.0641 15.2825 20.5261 15.27 21.2127 15.27C22.4238 15.27 22.4863 14.3585 22.4863 14.3585C23.098 14.4334 23.9096 14.4709 24.846 14.4959C25.0083 14.4959 25.1831 14.4959 25.3579 14.5084C25.5327 14.5084 25.72 14.5084 25.8948 14.5084C26.1694 14.5084 26.4441 14.5084 26.7313 14.5084C26.8312 14.5084 26.9186 14.5084 27.0184 14.5084C27.2057 14.5084 27.4055 14.5084 27.5928 14.5084H28.1796C28.4792 14.5084 28.7664 14.5084 29.0661 14.5084C29.3657 14.5084 29.6529 14.5084 29.9525 14.5084C30.2397 14.5084 30.5393 14.5084 30.8265 14.4959C31.1137 14.4959 31.4008 14.4959 31.6755 14.4834C32.2249 14.4834 32.7617 14.4584 33.2611 14.4459C33.9978 14.4334 34.6595 14.4085 35.1964 14.396C36.0204 14.371 36.5198 14.346 36.5198 14.346C36.5573 14.4459 36.5947 14.5333 36.6322 14.6207C36.6696 14.7081 36.7071 14.783 36.757 14.8579C36.7695 14.8829 36.7945 14.9079 36.8195 14.9204C37.0068 15.1201 37.3938 15.245 38.3427 15.245C39.1917 15.245 39.5413 14.9953 39.6911 14.7456C39.8409 14.4959 39.766 14.2462 39.766 14.2462C39.766 14.2462 39.816 14.1962 39.8784 14.1088C39.9034 14.0714 39.9408 14.0089 39.9783 13.959C40.0157 13.8966 40.0407 13.8341 40.0532 13.7717C40.0532 13.7343 40.0782 13.6843 40.0906 13.6094C40.0906 13.5345 40.1156 13.4471 40.1156 13.3472C40.1406 13.0975 40.1656 12.7854 40.1905 12.4982C40.203 12.3234 40.2155 12.1611 40.228 12.0363C40.2405 11.8615 40.2405 11.7366 40.2405 11.7241C40.2405 11.7116 40.2405 11.6742 40.2405 11.6242" fill="#EF872D"/>
<path d="M38.7422 11.5986C38.48 11.5986 38.2803 11.8483 38.2803 12.1355C38.2803 12.4227 38.4925 12.6724 38.7422 12.6724C38.9919 12.6724 39.2042 12.4352 39.2042 12.1355C39.2042 11.8359 38.9919 11.5986 38.7422 11.5986Z" fill="#EF872D"/>
<path d="M20.2885 11.5986C20.0263 11.5986 19.8265 11.8483 19.8265 12.1355C19.8265 12.4227 20.0388 12.6724 20.2885 12.6724C20.5382 12.6724 20.7505 12.4352 20.7505 12.1355C20.7505 11.8359 20.5382 11.5986 20.2885 11.5986Z" fill="#EF872D"/>
<path d="M28.1294 8.56521C28.1294 8.56521 28.1294 8.55272 28.1169 8.54024C28.1169 8.54024 28.1169 8.54024 28.1044 8.54024C28.1044 8.54024 28.1044 8.54024 28.0919 8.54024L24.8332 7.99088C24.8332 7.99088 24.7958 7.9784 24.7833 7.95342L24.5461 7.56638C23.4723 7.40407 22.6608 7.22927 22.0365 7.04199C22.1738 7.22927 22.3986 7.47898 22.6233 7.7162C24.4711 8.02834 27.6924 8.57769 28.1793 8.64012C28.1668 8.61515 28.1543 8.57769 28.1419 8.55272" fill="#EF872D"/>
<path d="M29.5401 9.2016C28.9782 9.2016 28.5163 8.90196 28.5163 8.53988C28.5163 8.1778 28.9782 7.87815 29.5401 7.87815C30.1019 7.87815 30.5639 8.1778 30.5639 8.53988C30.5639 8.90196 30.1019 9.2016 29.5401 9.2016ZM39.1039 5.90546C39.1039 5.90546 39.0664 5.85552 39.0539 5.81807C39.0539 5.81807 39.0539 5.80558 39.0414 5.7931C39.029 5.78061 39.0165 5.75564 39.004 5.74315C39.004 5.73067 38.9915 5.71818 38.9915 5.7057C38.9915 5.7057 38.979 5.68073 38.979 5.66824C38.979 5.64327 38.9665 5.63079 38.9665 5.60582C38.9665 5.60582 38.9665 5.58084 38.954 5.56836C38.8417 5.75564 38.6669 6.00535 38.4796 6.1302C37.693 6.65459 34.0847 7.57851 29.6649 7.59099C29.6649 7.59099 29.6275 7.59099 29.6025 7.59099H29.5401C25.1202 7.57851 21.512 6.6421 20.7254 6.1302C20.5381 6.00535 20.3633 5.75564 20.2634 5.56836C20.1885 5.66824 20.1261 5.76813 20.0387 5.88049H20.0886C20.0886 5.88049 20.2759 6.77944 24.4835 7.42868L24.5834 7.44117L27.8296 8.07792C27.8296 8.07792 27.9794 8.10289 28.0918 8.25272C28.1292 8.30266 28.1667 8.39005 28.2166 8.48994C28.304 8.66473 28.4164 8.88947 28.5662 9.03929C28.766 9.23906 29.2654 9.33894 29.6649 9.33894C30.1019 9.33894 30.464 9.22657 30.6513 9.03929C30.7886 8.90195 30.901 8.67722 31.0009 8.48994C31.0508 8.39005 31.0883 8.30266 31.1257 8.25272C31.2381 8.10289 31.3879 8.07792 31.3879 8.07792L34.6091 7.44117L34.734 7.4162C38.7543 6.79193 39.1039 5.95541 39.1288 5.86801" fill="#EF872D"/>
<path d="M22.0243 3.82082C22.4364 2.74708 24.0969 1.26132 24.484 0.936696C24.5339 0.886754 24.5963 0.861784 24.6712 0.861784H34.4598C34.4598 0.861784 34.5472 0.861783 34.5971 0.89924C35.7333 1.52351 36.7821 3.42129 37.0318 3.88324C37.0567 3.93319 37.0318 3.98313 36.9693 3.98313C36.1203 4.0081 30.9014 4.13295 29.6279 4.13295C28.3544 4.13295 22.8858 3.94567 22.0993 3.9207C22.0493 3.9207 22.0119 3.87076 22.0368 3.82082M19.8144 4.35769C19.8893 4.40763 19.9643 4.44509 20.0517 4.48254C20.214 4.55746 20.3763 4.6074 20.5261 4.63237C20.7758 4.68231 20.9756 4.69479 20.9756 4.69479C20.9756 4.69479 20.7259 4.95699 20.3888 5.41895C20.4762 5.58126 20.6634 5.86842 20.8382 5.98079C21.475 6.40529 24.896 7.40412 29.6155 7.41661C34.3349 7.41661 37.7559 6.40529 38.3927 5.98079C38.58 5.85593 38.7548 5.55629 38.8546 5.39398C38.8421 5.36901 38.8172 5.34403 38.8047 5.31906C38.8047 5.31906 38.8047 5.30658 38.7922 5.29409C38.7797 5.28161 38.7672 5.25664 38.7548 5.24415C38.7548 5.24415 38.7423 5.23167 38.7298 5.21918C38.7173 5.19421 38.6923 5.18172 38.6798 5.15675C38.6798 5.15675 38.6674 5.14427 38.6549 5.13178C38.6424 5.10681 38.6174 5.09433 38.6049 5.06936C38.6049 5.06936 38.5924 5.04438 38.58 5.04438C38.58 5.0319 38.555 5.00693 38.5425 4.99444C38.5425 4.99444 38.53 4.98196 38.5175 4.96947C38.505 4.95699 38.4926 4.93202 38.4801 4.91953C38.4801 4.90705 38.4551 4.89456 38.4426 4.86959C38.4426 4.86959 38.4176 4.84462 38.4052 4.83213C38.4052 4.83213 38.3927 4.80716 38.3802 4.79468C38.3802 4.79468 38.3677 4.76971 38.3552 4.76971C38.3552 4.76971 38.3427 4.75722 38.3302 4.74474C38.3302 4.74474 38.3302 4.74474 38.3302 4.73225C38.2678 4.66982 38.2304 4.61988 38.2304 4.61988C38.2304 4.61988 38.6798 4.59491 39.0544 4.54497C39.1793 4.53248 39.3041 4.50751 39.3915 4.48254C39.4414 4.48254 39.4789 4.45757 39.5288 4.4326C39.8285 4.28278 40.0407 3.95816 40.0407 3.9207C40.0407 3.9207 40.0407 3.88324 40.0033 3.84579C39.9908 3.8333 39.9783 3.80833 39.9533 3.78336C39.9159 3.73342 39.8659 3.68348 39.8035 3.62105C39.7036 3.53365 39.5913 3.43377 39.4539 3.33389C39.3041 3.22152 38.992 3.14661 38.6798 3.09667C38.5924 3.09667 38.4926 3.0717 38.4176 3.0717C38.3802 3.0717 38.3302 3.0717 38.2928 3.0717C38.2054 3.0717 38.1305 3.0717 38.0681 3.0717C38.0056 3.0717 37.9432 3.0717 37.8933 3.08418C37.8433 3.08418 37.8059 3.10915 37.7809 3.12164C37.6061 3.23401 37.7809 4.13295 37.7809 4.13295C37.7809 4.13295 37.7684 4.13295 37.7559 4.13295C37.7309 4.13295 37.6685 4.0955 37.6061 4.02058C37.5562 3.95816 37.5312 3.90822 37.5187 3.88324C37.5187 3.85827 37.5187 3.84579 37.5187 3.84579C37.1816 3.13412 36.6947 2.49737 36.2077 1.9605C36.0704 1.81067 35.9331 1.66085 35.7957 1.53599C35.7333 1.47357 35.6709 1.41114 35.5959 1.34871C35.2089 0.986637 34.8968 0.711959 34.7469 0.57462C34.697 0.524678 34.6221 0.487222 34.5347 0.449766C34.2725 0.349883 33.8855 0.299942 33.5109 0.274971C33.024 0.25 32.587 0.274971 32.587 0.274971H30.4769C30.4769 0.274971 29.4157 0.25 28.2046 0.25C27.8925 0.25 27.5803 0.25 27.2682 0.25C27.1184 0.25 26.9561 0.25 26.8062 0.262485C26.6564 0.262485 26.5066 0.262485 26.3568 0.274971C26.0696 0.287456 25.7949 0.312427 25.5577 0.337398C25.3704 0.349883 25.2206 0.374854 25.0708 0.399825C25.0208 0.399825 24.9834 0.41231 24.9459 0.424795C24.8585 0.437281 24.7836 0.474737 24.6962 0.512193C24.6588 0.537164 24.6088 0.562134 24.5589 0.587105C24.4715 0.637047 24.3716 0.699474 24.2842 0.774386C24.2343 0.811842 24.1843 0.849298 24.1469 0.886754C23.9596 1.03658 23.7598 1.22386 23.5725 1.43611C23.0856 1.94801 22.6112 2.57228 22.2366 3.09667C22.2116 3.13412 22.1742 3.17158 22.1492 3.20903C21.7372 3.78336 21.475 4.22035 21.475 4.22035V4.15792L21.5 4.0955L21.5374 3.78336L21.6248 3.15909C21.6248 3.15909 21.6248 3.12164 21.6123 3.10915C21.6123 3.10915 21.5874 3.09667 21.5749 3.09667C21.5499 3.09667 21.5249 3.09667 21.4875 3.09667C21.4126 3.09667 21.3252 3.09667 21.2253 3.12164C21.1254 3.12164 21.013 3.14661 20.9007 3.15909C20.7259 3.18406 20.5511 3.20903 20.3888 3.25898C20.0517 3.34637 19.8019 3.59608 19.6646 3.77088C19.6396 3.79585 19.6272 3.82082 19.6147 3.84579C19.5897 3.88324 19.5772 3.9207 19.5772 3.97064C19.5772 4.02058 19.5772 4.05804 19.6147 4.0955C19.6896 4.20786 19.7895 4.30775 19.9018 4.38266" fill="#EF872D"/>
<path d="M20.3758 7.27913C20.3758 7.54132 20.6005 7.75358 20.8877 7.75358C21.1749 7.75358 21.3996 7.54132 21.3996 7.27913C21.3996 7.01694 21.1749 6.80469 20.8877 6.80469C20.6005 6.80469 20.3758 7.01694 20.3758 7.27913Z" fill="#EF872D"/>
<path d="M37.7803 7.27913C37.7803 7.54132 38.0051 7.75358 38.2922 7.75358C38.5794 7.75358 38.8041 7.54132 38.8041 7.27913C38.8041 7.01694 38.5794 6.80469 38.2922 6.80469C38.0051 6.80469 37.7803 7.01694 37.7803 7.27913Z" fill="#EF872D"/>
</svg>
